<svg xmlns="http://www.w3.org/2000/svg" xmlns:xlink="http://www.w3.org/1999/xlink" viewBox="0 0 1665.53 1530.04"><defs><clipPath id="clip-path" transform="translate(-253.05 -237.7)"><path d="M1635.36,996.46c0,322-261,583.09-583.07,583.09S469.21,1318.49,469.21,996.46s261.05-583.07,583.08-583.07S1635.36,674.45,1635.36,996.46Z" style="fill:#91cc86"/></clipPath></defs><title>anytime</title><g style="isolation:isolate"><g id="Capa_1" data-name="Capa 1"><path d="M1635.36,996.46c0,322-261,583.09-583.07,583.09S469.21,1318.49,469.21,996.46s261.05-583.07,583.08-583.07S1635.36,674.45,1635.36,996.46Z" transform="translate(-253.05 -237.7)" style="fill:#91cc86"/><g style="clip-path:url(#clip-path)"><path d="M1721.93,639.75s15.61-4.8,32.43,6,7.2,6-2.39,24-16.82,12-10.82,32.42,7.22,10.82-4.8,24-15.61,10.82-16.82,25.23-42,10.81-30,25.23,22.82,40.83,12,58.85-28.82,3.6-25.22-16.81,18-62.47-2.39-57.67-2.41-6-14.43,18-50.44-7.2-46.84,15.62,20.42,34.83,30,49.24,10.81,42.06-2.4,57.67-26.44,36-18,52.85,1.21,33.63-12,33.63-28.83-49.25-46.85-13.21,43.25,14.41,12,55.25-54.05,18-49.25,46.84,27.62,40.84,9.61,57.66-54,20.42-44.44-3.61-25.24-43.24-40.84-39.63-13.22-39.65-25.23-20.43-22.83,16.82-22.83,43.25,22.83,57.65-1.19,44.43-22.23-94.88-51.65-91.28c-51.09,6.27-33-52.85-66.66-22.22-10.84,9.87-22.8,22.81-15.62,43.24,11.42,32.43-30.62,13.22-42.64,33.63s-21.62,36.63-16.82,63.06,8.41,37.24-6,56.46-26.39,42.14-24,62.46c5.41,46.24-73.28,70.87-92.48,51.64s-4.81-43.23-18-67.26-16.82-48-10.82-61.25,6-46.85-9.6-61.27-19.22-22.82-46.85-14.41-73.26-2.4-73.26-48,2.41-40.84,33.63-74.46,45.64-22.83,66.07-36,34.83-1.2,40.83,10.81,24,25.23,36,14.41,12,6,38.44,0,45.64-28.82,27.62-30c0,0-34.24,12-33-3s1.2-23.42,31.23-20.42,36.63-7.21,22.82-16.21-14.41-25.83-28.83-12.62-25.22,2.41-24,15-12.61,15-22.82,16.23,8.4,12.61.6,27-14.42-12-18.62-19.82-20.42-32.43-30-34.82,7.21,20.41,16.22,25.81,6,25.83,0,26.43-19.82-2.4-10.81-7.81,6.61-19.81-6-21.61-8.4-14.43-13.2-16.83-19.82.61-21.63,11.41-6.6,12.62-18,13.21-12,9.62-7.81,15-25.22,15-31.82,5.41-15.62-27.62-4.82-36.64,32.44,6,34.24-2.39-15.62-19.23-7.21-23.43,7.81-8.4,15-13.81,2.4-15,13.81-18.62,22.83-2.41,29.43-10.21c0,0,1.6-5.41,14.42-2.21s25.21,3.21,28-1.19-16.41-16.42-8.81-21.62,25.62-3.61,20-12.42-18.42-7.61-16.41-18,16-21.63,12.81-28.42-1.2-18.42-8.41-11.62-21.62,22-18,29.63-1.6,14.82,4,20,5.6,7.61-2.8,16.82-14.82,21.22-21.23,12,0-22.42-14-12.81-18.81-1.19-15.61-18.42,7.6-18,18-28a41.54,41.54,0,0,0,12.41-26c.41-4-.4-22.84,23.63-27.23s39.24-17.61,39.24,0,62.45-2,48,25.22-29.23,0-26.43,10.82,6.81,29.62,26,12,11.22-35.23,31.63-36.84,41.64-7.2,36.83-13.21.8-13.21,11.62-8.8,30.83,23.21,22.82,6.79-17.23-33.22-8-37.63,13.61-4.79,16.42,10.82,0,28.82,6.4,39.63,14.41,2.4,14-15.21-3.59-26.43,8-28.42.8-7.21-4.8-18.42,5.6-12.41,16.41-22.43-9.2-18.42,8.42-30,24.82-8.4,30-22,20-13.61,22.42-2.79,25.22,13.61,14,31.62,15.21,14.42,20,3.21,26,2.8,32.83,4,13.62-8.79,23.63-13.21,12,15.63,23.62,20.43,20.82,1.59,23.62-9.62,5.6-28,28.83-21.21,31.23,11.61,41.64.4,14.81-12.42,26-3.6,6.8,17.2,23.21,4,32.84-20,50.85-11.62S1721.93,639.75,1721.93,639.75Z" transform="translate(-253.05 -237.7)" style="fill:#312864"/><path d="M1675.09,1264.74s27.23,6.41,33.63-4,26.43-13.61,30.43-7.2-5.61,21.62,9.61,22.42,16.82-29.63,29.62-9.62,20.84,33.64,14.41,60.07-28,40.83-36,55.26-31.23,5.59-36.84-4.82-8-29.62-23.22-26.42-46.44-1.6-57.65,9.6-25.63,6.41-20.82-5.59,15.21-39.24,13.61-47.25,24.82-16.82,36.83-25.62S1675.09,1264.74,1675.09,1264.74Z" transform="translate(-253.05 -237.7)" style="fill:#312864"/><path d="M727.39,643.05c20.42-8.4,37.24,4.81,40.84,12s48-9.3,68.47-6.9,18,24,9.6,26.43-18,8.4-27.62,18S804.26,707,785,707s-10.81,14.42-36,28.82-37.24-18-26.42-18,18.6-17.86,16.81-25.22C736.3,679.77,707,651.47,727.39,643.05Z" transform="translate(-253.05 -237.7)" style="fill:#312864"/><path d="M986.44,878.38s12,4,9.2,12-13.21,16.4-2.39,18.41,22.41-4.4,21.61-15.22-14-9.21-12.41-16.81-13.21-15.21-10.81-21.62-19.22,2.8-16,14.82S981.23,879.18,986.44,878.38Z" transform="translate(-253.05 -237.7)" style="fill:#312864"/><path d="M971.62,902.41s12.41-.8,11.21-10.42-10.81-6.8-8.41-13.21-19.61,11.62-13.21,16.82S971.62,902.41,971.62,902.41Z" transform="translate(-253.05 -237.7)" style="fill:#312864"/><path d="M1477.3,1155.85s24.83,50.45,47.24,52.84,6.41-12,3.2-20.81-16.8-4-20-12.82-10.41-25.62-20-23.23S1477.3,1155.85,1477.3,1155.85Z" transform="translate(-253.05 -237.7)" style="fill:#312864"/><path d="M1580.6,1181.47s-1.6-17.61,5.6-24.83-3.2-13.61-14.41-8-16,12.81-15.21,21.62-.8,20-5.61,24,6.41,27.23,25.63,17.62S1581.4,1193.48,1580.6,1181.47Z" transform="translate(-253.05 -237.7)" style="fill:#312864"/><path d="M1699.11,1223.91s1.61-4,12.81-6.41,19.22,15.21,26.43,7.22-18.42-13.63-24.82-24.84-19.21-11.21-23.23-9.6-16-8.81-32-7.21-11.2,14.41,4.81,16,24,6.4,26.42,17.62S1691.09,1228.72,1699.11,1223.91Z" transform="translate(-253.05 -237.7)" style="fill:#312864"/><path d="M624.89,648.17s12.41,5.2,22,.79,16.42,7.61,14.42,11.22-14.82,2-14.82,9.2,13.22,20.41,16.82,14.82-.4-7.21,8.41-7.21,14-2.8,12-9.2-8.81-9.62-2-16-4-4.81-15.21-6.41-17-8.21-16.21-13S636.5,640.56,633.7,643s-4-12.41-12.81,0S624.89,648.17,624.89,648.17Z" transform="translate(-253.05 -237.7)" style="fill:#312864"/><path d="M819.88,1195.28c-7.81-4.21-16.82-14.42-25.83-12s-25.82,3-27-13.82-13.8-30-31.22-22.81-18.62-31.24-25.82-24-11.42-5.41-22.83,0-13.81-6.61-21-5.41-19.82,10.81-26.42,15.61-7.81-1.8-21-4.8-9-21.62-9-30-12.61-2.4-17.42-9.61,6-15-1.2-19.82-16.21,13.21-28.23,18.61-19.21-24.62-21-29.43-2.39-13.2,11.41-23.41,22.82-4.2,31.83-12,13.22-3,21.62,0,2.42,31.22,9,31.83,8.41-21.61,7.2-33,18-16.83,26.43-18.62,13.22-18,13.22-25.23,13.21-9.6,24.62-19.21-1.8-16.82,1.2-32.44,19.22-18,38.44-18,28.82,9.6,35.43-18.62-32.43-10.21-20.42-25.82,3-30-1.19-36.64S731,840.94,722,842.75s-4.2-9.62-2.39-21.63-2.41-15-9-8.4-15.61-6-24.62,3-9.6,12.61-9.6,21.63,9,16.81-2.41,24.61-3.61,19.23-13.22,27.64-8.4-12.62-6-23.42,0-10.22-9-8.41-33-.61-30.63-15.62-5.41-6-6.61-18,8.4-29.43,25.22-30,21.62-11.41,21.62-13.21,4.21-11.42,22.22-12.62,15-27.62,9.61-34.23-10.8,12-21.62,16.22-10.21-7.81-4.2-19.22,4.8-33.63-5.4-33.63-27,26.42-25.23,36.63-16.21,7.81-25.22,1.8-9-3-22.83,3.62-24.62-6-15.6-18.63a6.47,6.47,0,0,0,1.07-2.33c2.61-4.6,10.73-14.85,33.15-19.88,29.43-6.62,30.63-24,17.42-27s-32.44-11.41-32.44-21-9.6-11.41-25.22-2.4-47.44,5.39-51.65,18-19.22,25.23-27.63,23.43c-14.42-2.41-33.62-46.86-78.66-44.45s-35.44,48.05-35.44,48.05-11.41-7.81-27-.6,9.61,10.8,10.21,21-13.81.59-27.62,8.4-5.41,22.83-6,40.24,20.42,10.22,21.62,16.22-20.41,14.41-28.23,25.22,28.83-2.41,37.24-3,15-15.62,16.81-27,15.62-4.22,19.23-9,7.8,14.41,18,12,27,12,22.23,22.82-1.2,18.62,9.6,34.84,15,25.22,4.21,23.42-14.42,1.8-9,16.2,19.22,23.42,7.2,54.06,4.2,70.86,12.61,76.87,15,27,18.61,42.64,17.44,23.42,14.42,7.2-19.21-34.82-10.81-40.23,9.62,27,18,31.83,14.41,15,14.41,30.63,31.23,26.42,36.63,22.82,16.82,13.82,33,18.62,18.62,1.21,24,10.8,21,14.42,33,16.22,3,13.21,2.41,21-12,13.81-16.22,18-5.4,16.81-2.39,24,13.2,3.61,19.81,27,34.24,29.43,37.84,36,7.81,26.42,3,33.63-2.4,44.44-2.4,49.25,6,17.41-1.81,26.42,1.21,24-1.19,33.63,10.81,15,3.6,25.22,12.61,26.43,15,40.24,17.42,10.21,30.63,9.61-6.61-13.81-13.21-27-4.2-4.2,3.61-12.61,3-12,1.2-26.42,5.4-7.21,9-22.22,10.82-10.21,19.83-19.21-8.41-20.43,16.21-23.43,16.83-10.81,23.43-34.83,6-21,33-31.84,12-31.23,13.22-46.23,16.82-15,21-31.85S827.69,1199.49,819.88,1195.28Z" transform="translate(-253.05 -237.7)" style="fill:#312864"/><path d="M593.16,618.24s9-1.51,5.71,4.5,1.5,10.22,7.51,7.21,8.41-6,14.4-5.41,16.83,1.5,14.72-3.6-6.3-6.61-3-10.82-5.1-4.5-9.91.61-12.91,2.7-12.31-.61-.31-4.19-3.61-3.6-9.3-4.2-17.4-2.4-26.14,9.31-18.63,9.91,8.71,8.1,15,4.5S593.16,618.24,593.16,618.24Z" transform="translate(-253.05 -237.7)" style="fill:#312864"/><path d="M719.88,582.5s62.46-7.81,56.77-1.81-33,8.42-32.45,13.81-15,10.22-19.51,7.82-15.91,8.41-18.32,1.51-1.5-9,7.81-12.33S722.59,584.6,719.88,582.5Z" transform="translate(-253.05 -237.7)" style="fill:#312864"/><path d="M661.18,624.89s3.9,10.51,11.41,7.21,12-6.91,17.42-3.31,10.81-4.81,5.4-12-7.36-9.16-3.61-17.71c1.08-2.45-8.7-1.2-11.7,5.41s-9.91,8.1-13.52,5.1S651.56,615.28,661.18,624.89Z" transform="translate(-253.05 -237.7)" style="fill:#312864"/><path d="M1617.44,1158.64s-20.43-16.81-14.42-28.81,10.8-22.83,8.41-37.25,7.2-27.62,18-20.42,8.41,27.63,12,43.24-3.59,14.43,9.62,31.24S1635.46,1169.45,1617.44,1158.64Z" transform="translate(-253.05 -237.7)" style="fill:#312864"/></g><path d="M1550.75,693.81a637.41,637.41,0,0,1,4.88,78.62c0,170.2-68.43,335.31-188.71,455.6s-285.4,188.71-455.6,188.71c-123.65,0-244.59-36.15-347.63-102,104.06,159.43,284,264.83,488.6,264.83,322,0,583.07-261.06,583.07-583.09A580.39,580.39,0,0,0,1550.75,693.81Z" transform="translate(-253.05 -237.7)" style="fill:#bed9bb;mix-blend-mode:multiply"/><path d="M825.44,693.33c76.69-71.54,209.85-37.93,207.94-100.46-1.64-53.89-252.43-35-252.43-35-6.93,0-103.13,16-109.2,106.61,0,0-20.68,224.67,19,238.85C733.91,918.78,750.12,763.58,825.44,693.33Z" transform="translate(-253.05 -237.7)" style="fill:#fff;mix-blend-mode:soft-light"/><path d="M1181.62,398A112.81,112.81,0,1,0,956,398c0,90,111.71,181.57,111.71,181.57S1181.62,489.41,1181.62,398Z" transform="translate(-253.05 -237.7)" style="fill:#f06ca9"/><path d="M998.45,418.7c4.35-55.47,39.39-84.55,102.07-102.07,12.64-3.53-14.14-15.37-39.36-14.19-44.31,2.08-80.33,36-80.33,80.33C980.83,404.64,997.13,435.59,998.45,418.7Z" transform="translate(-253.05 -237.7)" style="fill:#fff;opacity:0.5;mix-blend-mode:soft-light"/><path d="M1143.89,313.82a242.79,242.79,0,0,1,6.65,79.54c-1.51,18.16-4.57,35.53-11.72,52.37-7.49,17.68-19,33.16-31.52,47.64-19.77,22.93-45.44,45.63-75.78,51.58a423.77,423.77,0,0,0,36.19,34.62S1181.62,489.41,1181.62,398A112.52,112.52,0,0,0,1143.89,313.82Z" transform="translate(-253.05 -237.7)" style="fill:#e6bccf;mix-blend-mode:multiply"/><path d="M1138,386.12a67.28,67.28,0,1,1-67.28-67.29A67.27,67.27,0,0,1,1138,386.12Z" transform="translate(-253.05 -237.7)" style="fill:#fff"/><path d="M567.46,666.4a3.2,3.2,0,0,1-3,3.36H519.74a3.2,3.2,0,0,1-3-3.36v-32a3.2,3.2,0,0,1,3-3.36h44.72a3.19,3.19,0,0,1,3,3.36Z" transform="translate(-253.05 -237.7)" style="fill:#534da0"/><path d="M575,631.31a3,3,0,0,1-3,3H512.22a3,3,0,0,1-3-3v-8.65a3,3,0,0,1,3-3H572a3,3,0,0,1,3,3Z" transform="translate(-253.05 -237.7)" style="fill:#534da0"/><path d="M493.93,681.46a2.74,2.74,0,0,1-.54,3.82l-36.85,26a2.71,2.71,0,0,1-3.77-.78l-16.24-23a2.71,2.71,0,0,1,.53-3.81l36.85-26a2.75,2.75,0,0,1,3.78.79Z" transform="translate(-253.05 -237.7)" style="fill:#534da0"/><path d="M593.84,682.42a2.73,2.73,0,0,0,.44,3.83l36.25,26.82a2.73,2.73,0,0,0,3.79-.7l16.76-22.65a2.72,2.72,0,0,0-.44-3.83l-36.25-26.82a2.73,2.73,0,0,0-3.79.7Z" transform="translate(-253.05 -237.7)" style="fill:#534da0"/><path d="M653.41,784.59A112.72,112.72,0,1,1,540.7,671.87,112.71,112.71,0,0,1,653.41,784.59Z" transform="translate(-253.05 -237.7)" style="fill:#fff"/><path d="M665.56,783.55A125.08,125.08,0,1,1,540.49,658.48,125.07,125.07,0,0,1,665.56,783.55Z" transform="translate(-253.05 -237.7)" style="fill:#616eb4"/><path d="M645.3,783.55a104.81,104.81,0,1,1-104.81-104.8A104.81,104.81,0,0,1,645.3,783.55Z" transform="translate(-253.05 -237.7)" style="fill:#fff"/><path d="M540.49,678.88A104.68,104.68,0,1,0,645.17,783.55,104.67,104.67,0,0,0,540.49,678.88Zm0,196.93a92.26,92.26,0,1,1,92.25-92.26A92.24,92.24,0,0,1,540.49,875.81Z" transform="translate(-253.05 -237.7)" style="fill:#dfd6d3;mix-blend-mode:multiply"/><path d="M541.68,769.34a10.34,10.34,0,0,0-10.34,10.35,10.13,10.13,0,0,0,.36,2.55l-46.86,35,4.54,6.1,46.77-34.88a10.34,10.34,0,1,0,5.53-19.07Z" transform="translate(-253.05 -237.7)" style="fill:#534da0"/><path d="M1704.36,1371.13a4.08,4.08,0,0,1-4.07,4.08H1441.45a4.08,4.08,0,0,1-4.09-4.08V1187.22a4.09,4.09,0,0,1,4.09-4.08h258.84a4.08,4.08,0,0,1,4.07,4.08Z" transform="translate(-253.05 -237.7)" style="fill:#34c1d0"/><path d="M1483.5,1198.46a4.08,4.08,0,0,1-4.08,4.09h-11.23a4.09,4.09,0,0,1-4.1-4.09v-33.2a4.09,4.09,0,0,1,4.1-4.09h11.23a4.08,4.08,0,0,1,4.08,4.09Z" transform="translate(-253.05 -237.7)" style="fill:#ef579f"/><path d="M1548.21,1198.46a4.08,4.08,0,0,1-4.08,4.09h-11.25a4.09,4.09,0,0,1-4.08-4.09v-33.2a4.09,4.09,0,0,1,4.08-4.09h11.25a4.08,4.08,0,0,1,4.08,4.09Z" transform="translate(-253.05 -237.7)" style="fill:#ef579f"/><rect x="1340.45" y="923.46" width="19.42" height="41.39" rx="4.09" style="fill:#ef579f"/><rect x="1405.16" y="923.46" width="19.42" height="41.39" rx="4.09" style="fill:#ef579f"/><path d="M1487,1238.8a1.66,1.66,0,0,1-1.67,1.66H1464a1.66,1.66,0,0,1-1.66-1.66v-20.54a1.66,1.66,0,0,1,1.66-1.66h21.36a1.66,1.66,0,0,1,1.67,1.66Z" transform="translate(-253.05 -237.7)" style="fill:#312864"/><path d="M1534.77,1238.8a1.66,1.66,0,0,1-1.67,1.66h-21.35a1.66,1.66,0,0,1-1.67-1.66v-20.54a1.66,1.66,0,0,1,1.67-1.66h21.35a1.66,1.66,0,0,1,1.67,1.66Z" transform="translate(-253.05 -237.7)" style="fill:#616eb4"/><path d="M1582.49,1238.8a1.65,1.65,0,0,1-1.65,1.66h-21.37a1.66,1.66,0,0,1-1.66-1.66v-20.54a1.66,1.66,0,0,1,1.66-1.66h21.37a1.65,1.65,0,0,1,1.65,1.66Z" transform="translate(-253.05 -237.7)" style="fill:#616eb4"/><path d="M1354.15,978.9h21.36a1.67,1.67,0,0,1,1.67,1.67v20.53a1.66,1.66,0,0,1-1.66,1.66h-21.36a1.66,1.66,0,0,1-1.66-1.66V980.57A1.67,1.67,0,0,1,1354.15,978.9Z" style="fill:#616eb4"/><path d="M1678,1238.8a1.66,1.66,0,0,1-1.66,1.66h-21.36a1.66,1.66,0,0,1-1.66-1.66v-20.54a1.66,1.66,0,0,1,1.66-1.66h21.36a1.66,1.66,0,0,1,1.66,1.66Z" transform="translate(-253.05 -237.7)" style="fill:#312864"/><path d="M1487,1277.41a1.66,1.66,0,0,1-1.67,1.66H1464a1.66,1.66,0,0,1-1.67-1.66v-20.53a1.66,1.66,0,0,1,1.67-1.66h21.35a1.66,1.66,0,0,1,1.67,1.66Z" transform="translate(-253.05 -237.7)" style="fill:#616eb4"/><path d="M1534.77,1277.41a1.66,1.66,0,0,1-1.67,1.66h-21.35a1.66,1.66,0,0,1-1.67-1.66v-20.53a1.66,1.66,0,0,1,1.67-1.66h21.35a1.66,1.66,0,0,1,1.67,1.66Z" transform="translate(-253.05 -237.7)" style="fill:#312864"/><path d="M1582.49,1277.41a1.65,1.65,0,0,1-1.65,1.66h-21.37a1.66,1.66,0,0,1-1.66-1.66v-20.53a1.66,1.66,0,0,1,1.66-1.66h21.37a1.65,1.65,0,0,1,1.65,1.66Z" transform="translate(-253.05 -237.7)" style="fill:#616eb4"/><path d="M1630.23,1277.41a1.66,1.66,0,0,1-1.67,1.66H1607.2a1.66,1.66,0,0,1-1.66-1.66v-20.53a1.66,1.66,0,0,1,1.66-1.66h21.36a1.66,1.66,0,0,1,1.67,1.66Z" transform="translate(-253.05 -237.7)" style="fill:#312864"/><path d="M1678,1277.41a1.66,1.66,0,0,1-1.66,1.66h-21.36a1.66,1.66,0,0,1-1.66-1.66v-20.53a1.66,1.66,0,0,1,1.66-1.66h21.36a1.66,1.66,0,0,1,1.66,1.66Z" transform="translate(-253.05 -237.7)" style="fill:#616eb4"/><path d="M1211,1056.12h21.37a1.66,1.66,0,0,1,1.66,1.66v20.53a1.67,1.67,0,0,1-1.67,1.67H1211a1.67,1.67,0,0,1-1.67-1.67v-20.53A1.66,1.66,0,0,1,1211,1056.12Z" style="fill:#616eb4"/><path d="M1534.77,1316a1.67,1.67,0,0,1-1.67,1.67h-21.35a1.67,1.67,0,0,1-1.67-1.67v-20.53a1.66,1.66,0,0,1,1.67-1.66h21.35a1.66,1.66,0,0,1,1.67,1.66Z" transform="translate(-253.05 -237.7)" style="fill:#616eb4"/><path d="M1582.49,1316a1.66,1.66,0,0,1-1.65,1.67h-21.37a1.66,1.66,0,0,1-1.66-1.67v-20.53a1.66,1.66,0,0,1,1.66-1.66h21.37a1.65,1.65,0,0,1,1.65,1.66Z" transform="translate(-253.05 -237.7)" style="fill:#312864"/><path d="M1354.15,1056.12h21.36a1.67,1.67,0,0,1,1.67,1.67v20.53a1.67,1.67,0,0,1-1.67,1.67h-21.36a1.66,1.66,0,0,1-1.66-1.66v-20.54A1.66,1.66,0,0,1,1354.15,1056.12Z" style="fill:#616eb4"/><path d="M1678,1316a1.66,1.66,0,0,1-1.66,1.67h-21.36a1.66,1.66,0,0,1-1.66-1.67v-20.53a1.66,1.66,0,0,1,1.66-1.66h21.36a1.66,1.66,0,0,1,1.66,1.66Z" transform="translate(-253.05 -237.7)" style="fill:#616eb4"/><path d="M1487,1354.64a1.66,1.66,0,0,1-1.67,1.66H1464a1.66,1.66,0,0,1-1.66-1.66V1334.1a1.66,1.66,0,0,1,1.66-1.66h21.36a1.67,1.67,0,0,1,1.67,1.66Z" transform="translate(-253.05 -237.7)" style="fill:#616eb4"/><path d="M1534.77,1354.64a1.66,1.66,0,0,1-1.67,1.66h-21.35a1.66,1.66,0,0,1-1.67-1.66V1334.1a1.67,1.67,0,0,1,1.67-1.66h21.35a1.66,1.66,0,0,1,1.67,1.66Z" transform="translate(-253.05 -237.7)" style="fill:#616eb4"/><path d="M1582.49,1354.64a1.65,1.65,0,0,1-1.65,1.66h-21.37a1.66,1.66,0,0,1-1.66-1.66V1334.1a1.66,1.66,0,0,1,1.66-1.66h21.37a1.65,1.65,0,0,1,1.65,1.66Z" transform="translate(-253.05 -237.7)" style="fill:#312864"/><path d="M1630.23,1354.64a1.66,1.66,0,0,1-1.67,1.66H1607.2a1.66,1.66,0,0,1-1.66-1.66V1334.1a1.66,1.66,0,0,1,1.66-1.66h21.36a1.67,1.67,0,0,1,1.67,1.66Z" transform="translate(-253.05 -237.7)" style="fill:#616eb4"/><path d="M1678,1354.64a1.66,1.66,0,0,1-1.66,1.66h-21.36a1.66,1.66,0,0,1-1.66-1.66V1334.1a1.66,1.66,0,0,1,1.66-1.66h21.36a1.66,1.66,0,0,1,1.66,1.66Z" transform="translate(-253.05 -237.7)" style="fill:#616eb4"/><path d="M1700.29,1183.14h-13.71a227.6,227.6,0,0,1-19.4,50.83c-15.18,28.72-36.36,51.59-61.31,72.21-27,22.29-56.69,35.37-91.32,41a282.72,282.72,0,0,1-50.74,3.71c-7-.13-14.2-.26-21-1.86a54.2,54.2,0,0,1-5.4-1.64v23.77a4.08,4.08,0,0,0,4.09,4.08h258.84a4.08,4.08,0,0,0,4.07-4.08V1187.22A4.08,4.08,0,0,0,1700.29,1183.14Z" transform="translate(-253.05 -237.7)" style="fill:#b5dcee;mix-blend-mode:multiply"/><path d="M1481.89,1233.38c13.39-13.22,36.65-7,36.32-18.57-.28-10-59.46-4.91-59.46-4.91a2.2,2.2,0,0,0-2.19,2.2s-5.12,57.48,1.8,60.1C1465.91,1275.05,1468.73,1246.36,1481.89,1233.38Z" transform="translate(-253.05 -237.7)" style="fill:#fff;mix-blend-mode:soft-light"/><path d="M1297.53,1008.51c0-175.23-143.08-226.15-228.61-226.15-86.25,0-227.57,44.33-227.57,226.15,0,178-72.83,168.69-67.05,269.65,9.12,159.47,146.38,196.58,295.14,196.58s286-37.11,295.15-196.58C1370.36,1177.2,1297.53,1186.48,1297.53,1008.51Z" transform="translate(-253.05 -237.7)" style="fill:#835f5c"/><path d="M1297.53,1008.51c0-83.09-32.18-138.22-75.13-173.23,27.81,34.3,46.43,81.32,46.43,144.53,0,178,53.82,179.22,48,280.18-9.12,159.46-127.37,186-276.13,186-88.26,0-172.46-13.07-228.27-57,52.48,67.15,151.85,85.69,257,85.69,148.77,0,286-37.11,295.15-196.58C1370.36,1177.2,1297.53,1186.48,1297.53,1008.51Z" transform="translate(-253.05 -237.7)" style="fill:#70524f"/><ellipse cx="815.87" cy="798.87" rx="189.48" ry="206.54" style="fill:#ffe2b0"/><polygon points="857.69 1088.27 816.59 1126.53 774.05 1088.27 774.05 985.23 857.69 985.23 857.69 1088.27" style="fill:#f5d9a9"/><path d="M1181.84,870.71,1027.5,956.35c23.26,108.1,180.07,142.16,180.07,142.16-32.5,69.44-101.44,115.9-167.35,115.9-42.31,0-81.38-15.13-112.92-40.68,34.71,42.55,85.28,69.39,141.62,69.39,104.65,0,189.48-92.48,189.48-206.55C1258.4,968.62,1228.3,908.35,1181.84,870.71Z" transform="translate(-253.05 -237.7)" style="fill:#f5d9a9"/><rect x="377.3" y="1486.68" width="877.13" height="43.37" rx="7" style="fill:#835f5c"/><path d="M1206.8,880.85c-50.66-55.43-120.46-59.07-170.39-50.82C985.2,838.48,892,881.81,878.75,1005.18c0,0,88.93,2.49,148.75-48.83,34,60.55,100.73,123.88,230.9,123.88C1258.4,1080.23,1284.79,966.2,1206.8,880.85Z" transform="translate(-253.05 -237.7)" style="fill:#835f5c"/><path d="M1273,1339.38c-49.12-11.73-166.41-50.7-166.41-50.7l-38.18,71.71-35.3-71.71s-133.92,39.66-181.21,57.37c-42.81,16-69,214.62-84.57,312.1-4.36,27.36,54,66.85,54,66.85H1307s66-48.09,61.66-71.92C1350.91,1555.2,1336.55,1354.56,1273,1339.38Z" transform="translate(-253.05 -237.7)" style="fill:#283475"/><path d="M1027.1,1274.33l-44.43,31.56s33.9,16.5,86.08,54.5Z" transform="translate(-253.05 -237.7)" style="fill:#fff"/><path d="M1111.41,1274.33l43,31.56s-36,16.5-86.08,54.5Z" transform="translate(-253.05 -237.7)" style="fill:#fff"/><path d="M851.39,1026.8c-.11-4-2.15-98.28,60-162.31,36.28-37.37,86.91-56.31,150.49-56.31,115.95,0,170.89,59.5,196.56,109.43,27.69,53.85,28,106.83,28,109.06h-8.61c0-.53-.36-53.39-27.2-105.41-35.77-69.33-99.28-104.49-188.76-104.49-61.16,0-109.72,18.07-144.32,53.7C857.92,931.93,860,1025.61,860,1026.55Z" transform="translate(-253.05 -237.7)" style="fill:#283475"/><rect x="544.67" y="1139.79" width="542.4" height="315.27" rx="20.34" style="fill:#8dd6ef"/><path d="M1319.79,1377.49h-19.38s-45.23,294.93-502.68,294.93h0a20.4,20.4,0,0,0,20.34,20.34h501.72a20.4,20.4,0,0,0,20.33-20.34V1397.83A20.39,20.39,0,0,0,1319.79,1377.49Z" transform="translate(-253.05 -237.7)" style="fill:#5cc9e6"/><path d="M1129.72,1535.12a60.8,60.8,0,1,1-60.8-60.79A60.8,60.8,0,0,1,1129.72,1535.12Z" transform="translate(-253.05 -237.7)" style="fill:#fff"/><path d="M1101.26,1535.12a32.2,32.2,0,1,1-32.2-32.2A32.21,32.21,0,0,1,1101.26,1535.12Z" transform="translate(-253.05 -237.7)" style="fill:none;stroke:#f78e25;stroke-miterlimit:10"/><path d="M1068.79,1556.51c-17.78,0-32.2-9.57-32.2-21.39s14.42-21.38,32.2-21.38,32.2,9.58,32.2,21.38S1086.58,1556.51,1068.79,1556.51Z" transform="translate(-253.05 -237.7)" style="fill:none;stroke:#f78e25;stroke-miterlimit:10"/><path d="M1068.79,1542.15c-17.78,0-32.2-3.15-32.2-7s14.42-7,32.2-7,32.2,3.14,32.2,7S1086.58,1542.15,1068.79,1542.15Z" transform="translate(-253.05 -237.7)" style="fill:none;stroke:#f78e25;stroke-miterlimit:10"/><path d="M1047.54,1535.12c0-17.78,9.58-32.2,21.38-32.2s21.39,14.42,21.39,32.2-9.57,32.21-21.39,32.21S1047.54,1552.91,1047.54,1535.12Z" transform="translate(-253.05 -237.7)" style="fill:none;stroke:#f78e25;stroke-miterlimit:10"/><path d="M1061.9,1535.12c0-17.78,3.15-32.2,7-32.2s7,14.42,7,32.2-3.14,32.21-7,32.21S1061.9,1552.91,1061.9,1535.12Z" transform="translate(-253.05 -237.7)" style="fill:none;stroke:#f78e25;stroke-miterlimit:10"/><path d="M944.39,1700.65c0,18.16-4.23,5.18-9.44,5.18H856.5c-5.21,0-9.44,10.24-9.44-5.18v-10.07a9.44,9.44,0,0,1,9.44-9.44H935a9.44,9.44,0,0,1,9.44,9.44Z" transform="translate(-253.05 -237.7)" style="fill:#fff"/><path d="M1290.79,1706.2c0,5.21-4.22,4.12-9.44,4.12h-78.44c-5.22,0-9.45,1.46-9.45-3.76v-16a9.44,9.44,0,0,1,9.45-9.44h78.44a9.43,9.43,0,0,1,9.44,9.44Z" transform="translate(-253.05 -237.7)" style="fill:#fff"/><path d="M1340.12,1712.51a11.86,11.86,0,0,1-11.86,11.87H809.59a11.86,11.86,0,0,1-11.86-11.87h0a11.86,11.86,0,0,1,11.86-11.86h518.67a11.86,11.86,0,0,1,11.86,11.86Z" transform="translate(-253.05 -237.7)" style="fill:#8dd6ef"/><path d="M1013.59,1216.65c-63.51,0-109.5-16.25-136.72-48.31-33.17-39.07-25.77-86.8-25.44-88.81l8.49,1.39c-.07.45-7,46,23.59,81.94,25.51,30,69.28,45.19,130.08,45.19Z" transform="translate(-253.05 -237.7)" style="fill:#283475"/><path d="M877.8,1096.59h0A56.83,56.83,0,0,1,821,1039.77v-6.4a56.83,56.83,0,0,1,56.83-56.82h0" transform="translate(-253.05 -237.7)" style="fill:#f78e25"/><path d="M888.75,1098.46a12.33,12.33,0,0,1-12.33,12.33h0a12.34,12.34,0,0,1-12.33-12.33V974.68a12.34,12.34,0,0,1,12.33-12.33h0a12.33,12.33,0,0,1,12.33,12.33Z" transform="translate(-253.05 -237.7)" style="fill:#283475"/><path d="M1260.05,976.55h0a56.82,56.82,0,0,1,56.82,56.82v6.4a56.82,56.82,0,0,1-56.82,56.82h0" transform="translate(-253.05 -237.7)" style="fill:#f78e25"/><path d="M1287,983.35a56.59,56.59,0,0,1,12.62,35.67v6.4a56.84,56.84,0,0,1-39.6,54.15v17a56.82,56.82,0,0,0,56.82-56.82v-6.4A56.81,56.81,0,0,0,1287,983.35Z" transform="translate(-253.05 -237.7)" style="fill:#ec8423"/><path d="M1249.09,974.68a12.34,12.34,0,0,1,12.33-12.33h0a12.33,12.33,0,0,1,12.33,12.33v123.78a12.33,12.33,0,0,1-12.33,12.33h0a12.34,12.34,0,0,1-12.33-12.33Z" transform="translate(-253.05 -237.7)" style="fill:#283475"/><path d="M1047.54,1212.35a22.78,22.78,0,1,1-22.77-22.78A22.77,22.77,0,0,1,1047.54,1212.35Z" transform="translate(-253.05 -237.7)" style="fill:#283475"/><path d="M1433.47,663.46c-107.28,0-194.25,87-194.25,194.24a193.39,193.39,0,0,0,18.42,82.59l-61,116.62,116.65-46.69A193.39,193.39,0,0,0,1433.47,1052c107.28,0,194.25-87,194.25-194.25S1540.75,663.46,1433.47,663.46Z" transform="translate(-253.05 -237.7)" style="fill:#8dd6ef"/><path d="M1602.33,761.73a194.21,194.21,0,0,1,8.17,55.79c0,107.28-87,194.25-194.25,194.25A193.34,193.34,0,0,1,1296,970l-99.43,86.88h0l116.65-46.69A193.39,193.39,0,0,0,1433.47,1052c107.28,0,194.25-87,194.25-194.25A193.27,193.27,0,0,0,1602.33,761.73Z" transform="translate(-253.05 -237.7)" style="fill:#5cc9e6"/><text transform="translate(1115.83 715.76)" style="font-size:266.6635437011719px;fill:#283475;font-family:Montserrat-ExtraBold, Montserrat;font-weight:800">?</text><path d="M752.08,355.86c-1.46-26.46-21.57-47.44-46.23-47.44a42.81,42.81,0,0,0-13.75,2.26c-9.74-19.65-28.82-33-50.76-33a53.43,53.43,0,0,0-22.88,5.15C606.24,265.28,586.9,254,565.13,254c-30.16,0-55.66,21.73-64,51.6a45.53,45.53,0,0,0-14.61-2.4c-26.89,0-48.72,23.52-49.15,52.71Z" transform="translate(-253.05 -237.7)" style="fill:#fff"/><path d="M1662.83,339.61c-1.47-26.46-21.58-47.44-46.23-47.44a42.76,42.76,0,0,0-13.75,2.26c-9.75-19.65-28.82-33-50.77-33a53.47,53.47,0,0,0-22.88,5.15C1517,249,1497.64,237.7,1475.88,237.7c-30.16,0-55.66,21.73-64,51.6a45.59,45.59,0,0,0-14.62-2.4c-26.89,0-48.71,23.52-49.14,52.71Z" transform="translate(-253.05 -237.7)" style="fill:#fff"/><path d="M709.83,931.07c-1.46-26.46-21.57-47.44-46.22-47.44a42.87,42.87,0,0,0-13.76,2.26c-9.74-19.66-28.82-33-50.76-33A53.43,53.43,0,0,0,576.21,858c-12.22-17.54-31.56-28.87-53.33-28.87-30.16,0-55.65,21.73-64,51.6a45.53,45.53,0,0,0-14.61-2.4c-26.89,0-48.71,23.52-49.15,52.71Z" transform="translate(-253.05 -237.7)" style="fill:#fff"/><path d="M1804.19,992c-1.47-26.46-21.57-47.44-46.23-47.44a42.81,42.81,0,0,0-13.75,2.26c-9.74-19.65-28.82-33-50.76-33a53.4,53.4,0,0,0-22.88,5.15c-12.23-17.53-31.56-28.87-53.33-28.87-30.16,0-55.65,21.73-64,51.6a45.47,45.47,0,0,0-14.6-2.4c-26.89,0-48.72,23.52-49.15,52.71Z" transform="translate(-253.05 -237.7)" style="fill:#fff"/><path d="M469.49,1155.82H420.06c-2-3.29-6.65-12.6-.22-21.23h18.23c8.08,0,14.63-7.77,14.63-17.36s-6.55-17.35-14.63-17.35H267.69c-8.09,0-14.64,7.77-14.64,17.35s6.55,17.36,14.64,17.36h27.15c2.71,3.17,8.47,12-1.31,21.23h-16c-9.1,0-16.49,7.67-16.49,17.12s7.39,17.12,16.49,17.12h192c9.11,0,16.49-7.66,16.49-17.12S478.6,1155.82,469.49,1155.82Z" transform="translate(-253.05 -237.7)" style="fill:#05b4ea"/><path d="M491.2,579.78H451.12c-1.65-2.67-5.39-10.21-.18-17.22h14.79c6.55,0,11.86-6.29,11.86-14.07s-5.31-14.07-11.86-14.07H327.57c-6.55,0-11.86,6.3-11.86,14.07s5.31,14.07,11.86,14.07h22c2.2,2.57,6.87,9.72-1.06,17.22h-13a13.89,13.89,0,0,0,0,27.76H491.2a13.89,13.89,0,0,0,0-27.76Z" transform="translate(-253.05 -237.7)" style="fill:#616eb4"/><path d="M1793.18,1137.71H1747.1c-1.91-3.07-6.21-11.74-.22-19.8h17c7.53,0,13.64-7.24,13.64-16.17s-6.11-16.19-13.64-16.19H1605c-7.53,0-13.64,7.24-13.64,16.19s6.11,16.17,13.64,16.17h25.32c2.53,3,7.9,11.18-1.22,19.8h-15c-8.49,0-15.37,7.14-15.37,16s6.88,16,15.37,16h179c8.5,0,15.38-7.15,15.38-16S1801.68,1137.71,1793.18,1137.71Z" transform="translate(-253.05 -237.7)" style="fill:#616eb4"/><path d="M1897.64,519.25h-62.79c-2.59-4.18-8.45-16-.29-27h23.17c10.27,0,18.58-9.87,18.58-22s-8.31-22-18.58-22H1641.29c-10.26,0-18.58,9.87-18.58,22s8.32,22,18.58,22h34.49c3.45,4,10.77,15.23-1.65,27h-20.39c-11.58,0-21,9.73-21,21.75s9.37,21.74,21,21.74h243.9c11.57,0,20.94-9.74,20.94-21.74S1909.21,519.25,1897.64,519.25Z" transform="translate(-253.05 -237.7)" style="fill:#f06ca9"/></g></g></svg>