<svg xmlns="http://www.w3.org/2000/svg" viewBox="0 0 500 500"><defs><style>.cls-1{isolation:isolate;}.cls-2{fill:#1960b1;opacity:0.3;}.cls-3{fill:#1d1d1b;opacity:0.23;}.cls-14,.cls-3{mix-blend-mode:multiply;}.cls-4{fill:#fafafa;}.cls-5{font-size:20.3px;font-family:BebasNeueBold, Bebas Neue;}.cls-11,.cls-5{fill:#3b60ae;}.cls-6{letter-spacing:-0.04em;}.cls-7{fill:#44c68b;}.cls-8{fill:#585a59;}.cls-9{fill:#bebfbf;}.cls-10{fill:none;stroke:#585a59;stroke-miterlimit:10;stroke-width:2px;}.cls-12{fill:#fff;}.cls-13{fill:#3c3c3b;}.cls-14{fill:#5d5d5d;opacity:0.51;}</style></defs><title>bonus2</title><g class="cls-1"><g id="Layer_1" data-name="Layer 1"><circle class="cls-2" cx="160.15" cy="340.12" r="129.1"/><circle class="cls-2" cx="233.41" cy="365.46" r="53.59"/><circle class="cls-2" cx="398.46" cy="119.39" r="71.39"/><path class="cls-3" d="M345.17,428.77h-4.58c0-1.82-.35-2-.35-2l-14.64-1.18c-.38-1.44-.93-1.58-.93-1.58l-54.52-2.55v-.94H185a2.39,2.39,0,0,0-2.38,2.38v.91h-7.52a2.49,2.49,0,0,0-2.49,2.49v6.19a2.48,2.48,0,0,0,2.49,2.49h7.52v.92a2.38,2.38,0,0,0,2.38,2.37h85.14v-.94l54.52-2.55a3.17,3.17,0,0,0,.8-1.56l14.77-1.19a4.25,4.25,0,0,0,.34-2h4.59a.67.67,0,0,0,0-1.33Z"/><path class="cls-3" d="M167.24,381.69s201.72,28,232.33,27.8c18-59.47,27.43-228.27,59.32-298.16-4-.64-26.17-3.86-26.17-3.86Z"/><path class="cls-4" d="M394,403.15c-67.89,6.42-226.72-21.46-226.72-21.46l49-308.88,235.48,37.37S396.62,386.37,394,403.15Z"/><text class="cls-5" transform="matrix(0.99, 0.16, -0.16, 0.99, 276.03, 129.12)">Free registr<tspan class="cls-6" x="83.61" y="0">a</tspan><tspan x="91.1" y="0">tion</tspan></text><path class="cls-7" d="M256.11,173.19,248,162.57l4.14-3.15,4.92,6.47,23.58-17.76,3.15,4.15Z"/><path class="cls-8" d="M264.35,184.3l-23.27-3.69a5.66,5.66,0,0,1-4.7-6.47l3.73-23.52a5.67,5.67,0,0,1,6.47-4.7l23.28,3.7-.47,3-23.28-3.69a2.66,2.66,0,0,0-3,2.2l-3.73,23.52a2.66,2.66,0,0,0,2.21,3l23.27,3.69a2.66,2.66,0,0,0,3-2.21l1.47-9.27,3,.47-1.47,9.27A5.67,5.67,0,0,1,264.35,184.3Z"/><rect class="cls-9" x="286.77" y="169.98" width="112.95" height="4.88" transform="translate(31.26 -51.66) rotate(9.02)"/><rect class="cls-9" x="284.53" y="184.15" width="112.95" height="4.88" transform="translate(33.45 -51.13) rotate(9.02)"/><path class="cls-7" d="M246.84,231.59,238.77,221l4.15-3.14,4.92,6.47,23.58-17.76,3.14,4.14Z"/><path class="cls-8" d="M255.09,242.71,231.81,239a5.66,5.66,0,0,1-4.7-6.47L230.84,209a5.67,5.67,0,0,1,6.48-4.7L260.59,208l-.47,3-23.27-3.69a2.66,2.66,0,0,0-3,2.21L230.08,233a2.66,2.66,0,0,0,2.2,3l23.28,3.69a2.66,2.66,0,0,0,3-2.21l1.47-9.26,3,.47L261.56,238A5.67,5.67,0,0,1,255.09,242.71Z"/><rect class="cls-9" x="277.83" y="224.27" width="60.53" height="4.88" transform="translate(39.33 -45.48) rotate(9.02)"/><rect class="cls-9" x="275.26" y="242.55" width="112.95" height="4.88" transform="translate(42.49 -48.96) rotate(9.02)"/><path class="cls-7" d="M237.57,290l-8.06-10.61,4.14-3.15,4.92,6.47,23.58-17.76,3.15,4.14Z"/><path class="cls-8" d="M245.82,301.11l-23.27-3.69a5.67,5.67,0,0,1-4.7-6.48l3.73-23.51a5.65,5.65,0,0,1,6.47-4.7l23.27,3.69-.47,3-23.27-3.69a2.66,2.66,0,0,0-3,2.21l-3.73,23.51a2.66,2.66,0,0,0,2.21,3l23.27,3.7a2.67,2.67,0,0,0,3-2.21l1.47-9.27,3,.47-1.47,9.27A5.65,5.65,0,0,1,245.82,301.11Z"/><rect class="cls-9" x="268.38" y="284.96" width="89.73" height="4.88" transform="translate(48.91 -45.54) rotate(9.02)"/><rect class="cls-9" x="265.99" y="300.95" width="112.95" height="4.88" transform="translate(51.53 -46.78) rotate(9.02)"/><path class="cls-7" d="M228.31,348.39l-8.07-10.61,4.14-3.15,4.92,6.47,23.58-17.76,3.15,4.15Z"/><path class="cls-8" d="M236.55,359.51l-23.27-3.69a5.67,5.67,0,0,1-4.7-6.48l3.73-23.51a5.66,5.66,0,0,1,6.47-4.7l23.28,3.69-.47,3-23.28-3.7a2.67,2.67,0,0,0-3,2.21l-3.73,23.51a2.65,2.65,0,0,0,2.21,3l23.27,3.7a2.66,2.66,0,0,0,3-2.21l1.47-9.27,3,.47L243,354.81A5.67,5.67,0,0,1,236.55,359.51Z"/><rect class="cls-9" x="259.43" y="339.4" width="39.09" height="4.88" transform="matrix(0.99, 0.16, -0.16, 0.99, 57.02, -39.49)"/><rect class="cls-9" x="256.99" y="356.02" width="70.42" height="4.88" transform="translate(59.78 -41.36) rotate(9.02)"/><rect class="cls-10" x="246.53" y="115.7" width="173.73" height="31.34" transform="translate(23.74 -48.97) rotate(8.71)"/><path class="cls-3" d="M96.84,411.91l12.42.54s156.48-27.49,212.9-44.8c-17.8-68.31-56.92-228.43-49.89-304.93-4,.73-15.39,2.69-15.39,2.69Z"/><path class="cls-4" d="M317.93,357.31c-62,28.48-221.09,54.6-221.09,54.6L41.11,104.18,275.72,61.69S314.9,340.59,317.93,357.31Z"/><text class="cls-5" transform="translate(96.3 141.32) rotate(-10.26)">FREE REGISTRATION</text><rect class="cls-10" x="74.03" y="106" width="173.73" height="31.34" transform="translate(-18.81 30.03) rotate(-10.08)"/><path class="cls-11" d="M111.88,185.76l-11.12-7.36,2.87-4.34,6.78,4.49L126.8,154l4.34,2.87Z"/><path class="cls-8" d="M123.33,193.53l-23.19,4.2a5.66,5.66,0,0,1-6.57-4.56l-4.24-23.43a5.66,5.66,0,0,1,4.55-6.57l23.19-4.2.54,2.95-23.19,4.2a2.66,2.66,0,0,0-2.14,3.09l4.24,23.42a2.66,2.66,0,0,0,3.09,2.15l23.19-4.2a2.66,2.66,0,0,0,2.14-3.09l-1.68-9.24,3-.53,1.67,9.23A5.68,5.68,0,0,1,123.33,193.53Z"/><rect class="cls-9" x="137.4" y="153.82" width="112.95" height="4.88" transform="translate(-24.74 37.05) rotate(-10.26)"/><rect class="cls-9" x="139.96" y="167.93" width="112.95" height="4.88" transform="translate(-27.22 37.73) rotate(-10.26)"/><path class="cls-11" d="M122.41,243.94l-11.12-7.35,2.88-4.34,6.78,4.48,16.39-24.55,4.34,2.88Z"/><path class="cls-8" d="M133.87,251.72l-23.19,4.19a5.66,5.66,0,0,1-6.58-4.55l-4.24-23.43a5.66,5.66,0,0,1,4.56-6.57l23.19-4.2.53,3L105,224.31a2.66,2.66,0,0,0-2.15,3.09l4.25,23.42a2.66,2.66,0,0,0,3.09,2.14l23.18-4.2a2.65,2.65,0,0,0,2.14-3.08l-1.67-9.24,2.95-.53,1.68,9.23A5.68,5.68,0,0,1,133.87,251.72Z"/><rect class="cls-9" x="148.36" y="216.67" width="60.53" height="4.88" transform="translate(-36.19 35.34) rotate(-10.26)"/><rect class="cls-9" x="150.5" y="226.12" width="112.95" height="4.88" transform="translate(-37.42 40.54) rotate(-10.26)"/><path class="cls-11" d="M133,302.13l-11.12-7.35,2.87-4.34,6.78,4.48,16.4-24.55,4.34,2.87Z"/><path class="cls-8" d="M144.41,309.9l-23.19,4.2a5.67,5.67,0,0,1-6.58-4.56l-4.24-23.42a5.67,5.67,0,0,1,4.56-6.58l23.19-4.2.53,3-23.19,4.2a2.65,2.65,0,0,0-2.14,3.08L117.59,309a2.67,2.67,0,0,0,3.09,2.14l23.19-4.2a2.66,2.66,0,0,0,2.14-3.09l-1.67-9.23,2.95-.54,1.67,9.24A5.65,5.65,0,0,1,144.41,309.9Z"/><rect class="cls-9" x="158.66" y="272.26" width="89.73" height="4.88" transform="translate(-45.69 40.66) rotate(-10.26)"/><rect class="cls-9" x="161.03" y="284.31" width="112.95" height="4.88" transform="translate(-47.62 43.35) rotate(-10.26)"/><path class="cls-11" d="M143.49,360.32,132.37,353l2.87-4.34,6.78,4.49,16.39-24.55,4.34,2.87Z"/><path class="cls-8" d="M154.94,368.09l-23.19,4.2a5.67,5.67,0,0,1-6.57-4.56l-4.24-23.43a5.66,5.66,0,0,1,4.56-6.57l23.18-4.2.54,3L126,340.68a2.66,2.66,0,0,0-2.14,3.09l4.24,23.42a2.66,2.66,0,0,0,3.09,2.15l23.19-4.2a2.66,2.66,0,0,0,2.14-3.09l-1.67-9.24,3-.53,1.67,9.23A5.67,5.67,0,0,1,154.94,368.09Z"/><rect class="cls-9" x="169.6" y="334.96" width="39.09" height="4.88" transform="translate(-57.1 39.11) rotate(-10.26)"/><rect class="cls-9" x="171.91" y="346.28" width="70.42" height="4.88" transform="translate(-58.83 42.49) rotate(-10.26)"/><path class="cls-3" d="M136.27,385.58s218.14,9.75,248.34,4.72c-5.35-70.4-18.25-233-4.86-315.76-5.1-.63-24.25-1.4-24.25-1.4Z"/><path class="cls-12" d="M363.55,371.24c-66,17-227.28,14.34-227.28,14.34V72.84H374.7S363.55,354.26,363.55,371.24Z"/><text class="cls-5" transform="translate(197.48 119.2)">FREE REGISTRATION</text><path class="cls-11" d="M191.37,165.72l-9.63-9.22,3.6-3.76,5.87,5.62,20.51-21.23,3.76,3.6Z"/><path class="cls-8" d="M201.26,175.41H177.69a5.66,5.66,0,0,1-5.65-5.66V146a5.66,5.66,0,0,1,5.65-5.66h23.57v3H177.69A2.66,2.66,0,0,0,175,146v23.8a2.66,2.66,0,0,0,2.65,2.66h23.57a2.66,2.66,0,0,0,2.65-2.66v-9.38h3v9.38A5.66,5.66,0,0,1,201.26,175.41Z"/><rect class="cls-9" x="220.84" y="148.86" width="112.95" height="4.88"/><rect class="cls-9" x="220.84" y="163.21" width="112.95" height="4.88"/><path class="cls-11" d="M191.37,224.85l-9.63-9.21,3.6-3.76,5.87,5.62,20.51-21.24,3.76,3.6Z"/><path class="cls-8" d="M201.26,234.54H177.69a5.66,5.66,0,0,1-5.65-5.65V205.08a5.66,5.66,0,0,1,5.65-5.66h23.57v3H177.69a2.66,2.66,0,0,0-2.65,2.66v23.81a2.65,2.65,0,0,0,2.65,2.65h23.57a2.65,2.65,0,0,0,2.65-2.65V219.5h3v9.39A5.66,5.66,0,0,1,201.26,234.54Z"/><rect class="cls-9" x="220.84" y="208" width="60.53" height="4.88"/><rect class="cls-9" x="220.84" y="222.35" width="112.95" height="4.88"/><path class="cls-11" d="M191.37,284l-9.63-9.22,3.6-3.76,5.87,5.62,20.51-21.23,3.76,3.59Z"/><path class="cls-8" d="M201.26,293.68H177.69A5.66,5.66,0,0,1,172,288V264.21a5.65,5.65,0,0,1,5.65-5.65h23.57v3H177.69a2.65,2.65,0,0,0-2.65,2.65V288a2.66,2.66,0,0,0,2.65,2.66h23.57a2.66,2.66,0,0,0,2.65-2.66v-9.39h3V288A5.66,5.66,0,0,1,201.26,293.68Z"/><rect class="cls-9" x="220.84" y="267.13" width="89.73" height="4.88"/><rect class="cls-9" x="220.84" y="281.48" width="112.95" height="4.88"/><path class="cls-11" d="M191.37,343.12l-9.63-9.22,3.6-3.76,5.87,5.62,20.51-21.23,3.76,3.6Z"/><path class="cls-8" d="M201.26,352.81H177.69a5.66,5.66,0,0,1-5.65-5.66v-23.8a5.66,5.66,0,0,1,5.65-5.66h23.57v3H177.69a2.66,2.66,0,0,0-2.65,2.66v23.8a2.66,2.66,0,0,0,2.65,2.66h23.57a2.66,2.66,0,0,0,2.65-2.66v-9.38h3v9.38A5.66,5.66,0,0,1,201.26,352.81Z"/><rect class="cls-9" x="220.84" y="326.26" width="39.09" height="4.88"/><rect class="cls-9" x="220.84" y="340.61" width="70.42" height="4.88"/><path class="cls-13" d="M341.93,425.53h0a.67.67,0,0,1-.66.67h-4.75a.67.67,0,0,1-.66-.67h0a.67.67,0,0,1,.66-.66h4.75A.67.67,0,0,1,341.93,425.53Z"/><path class="cls-11" d="M336.33,422.9s.37.15.37,2.47-.37,2.79-.37,2.79l-15.81,1.28v-7.81Z"/><path class="cls-13" d="M171.13,420h6.19a2.49,2.49,0,0,1,2.49,2.49V431a0,0,0,0,1,0,0H168.64a0,0,0,0,1,0,0v-8.53A2.49,2.49,0,0,1,171.13,420Z" transform="translate(-251.31 599.76) rotate(-90)"/><rect class="cls-13" x="214.72" y="386.79" width="17.75" height="77.48" transform="translate(-201.94 649.13) rotate(-90)"/><path class="cls-13" d="M320.77,420.15s1.28.3,1.28,5.05-1.28,5.72-1.28,5.72l-55.89,2.61v-16Z"/><path class="cls-11" d="M176.21,421.55h13a2.37,2.37,0,0,1,2.37,2.37v5.59a0,0,0,0,1,0,0H173.84a0,0,0,0,1,0,0v-5.59A2.37,2.37,0,0,1,176.21,421.55Z" transform="translate(-242.82 608.25) rotate(-90)"/><polygon class="cls-11" points="312.54 431.31 318.99 431 318.99 420.06 312.54 419.76 312.54 431.31"/><path class="cls-11" d="M244.67,425.53h0a3.17,3.17,0,0,0-3.17-3.17H193.28v6.34H241.5A3.17,3.17,0,0,0,244.67,425.53Z"/><rect class="cls-11" x="254.38" y="422.54" width="17.75" height="6" transform="translate(-162.28 688.78) rotate(-90)"/><path class="cls-14" d="M168.71,425.5v3.13a2.5,2.5,0,0,0,2.5,2.49h7.52V432a2.38,2.38,0,0,0,2.37,2.38h85.15v-.94l54.52-2.55a3.29,3.29,0,0,0,.8-1.57l14.76-1.19a4.27,4.27,0,0,0,.35-2h4.59a.67.67,0,0,0,.66-.67v0Z"/><rect class="cls-10" x="170.87" y="96.03" width="173.73" height="31.34"/></g></g></svg>