<svg xmlns="http://www.w3.org/2000/svg" viewBox="0 0 500 500"><defs><style>.cls-1{isolation:isolate;}.cls-2{fill:#1960b1;opacity:0.3;}.cls-3{fill:#3b60ae;}.cls-4{fill:#282828;}.cls-5,.cls-6,.cls-7{fill:none;stroke:#3b60ae;stroke-miterlimit:10;}.cls-5{stroke-width:8px;}.cls-6{stroke-width:4px;}.cls-7{stroke-width:2px;}.cls-8{fill:#fff;opacity:0.5;mix-blend-mode:overlay;}</style></defs><title>bonus3</title><g class="cls-1"><g id="Layer_1" data-name="Layer 1"><circle class="cls-2" cx="250" cy="231.39" r="71.39"/><circle class="cls-2" cx="250" cy="337.28" r="129.1"/><circle class="cls-2" cx="315.41" cy="439.46" r="26.59"/><rect class="cls-3" x="196.13" y="219.47" width="107.29" height="107.29" rx="7.07"/><rect class="cls-4" x="184.13" y="257.5" width="131.29" height="181.47" rx="5"/><line class="cls-5" x1="249.77" y1="238.03" x2="249.77" y2="92.44"/><path class="cls-6" d="M266.36,238h0A249.49,249.49,0,0,1,296,120.16l7.47-14"/><path class="cls-7" d="M280.89,238v-3.92A107.71,107.71,0,0,1,312.43,158h0"/><circle class="cls-5" cx="249.77" cy="75.85" r="14.82"/><circle class="cls-6" cx="308.82" cy="96.77" r="9.44"/><circle class="cls-7" cx="316.63" cy="153.99" r="5.93"/><path class="cls-6" d="M233.64,238h0a249.49,249.49,0,0,0-29.59-117.87l-7.47-14"/><path class="cls-7" d="M219.11,238v-3.92A107.71,107.71,0,0,0,187.57,158h0"/><circle class="cls-6" cx="191.18" cy="96.77" r="9.44"/><circle class="cls-7" cx="183.37" cy="153.99" r="5.93"/><rect class="cls-8" x="209.92" y="219.47" width="23.72" height="219.5"/></g></g></svg>