<svg xmlns="http://www.w3.org/2000/svg" xmlns:xlink="http://www.w3.org/1999/xlink" viewBox="0 0 500 500"><defs><style>.cls-1{fill:none;}.cls-2{isolation:isolate;}.cls-3,.cls-50{fill:#fceced;}.cls-39,.cls-4,.cls-50,.cls-51,.cls-52,.cls-53,.cls-54,.cls-55{mix-blend-mode:overlay;}.cls-4{fill:url(#linear-gradient);}.cls-5{fill:url(#linear-gradient-2);}.cls-6{fill:url(#linear-gradient-3);}.cls-7{clip-path:url(#clip-path);}.cls-8{fill:#fc9691;}.cls-28,.cls-8{opacity:0.26;}.cls-14,.cls-17,.cls-20,.cls-28,.cls-30,.cls-8{mix-blend-mode:multiply;}.cls-9{fill:url(#linear-gradient-4);}.cls-10{fill:#4b63c5;}.cls-11,.cls-14{fill:#efcbbf;}.cls-12{clip-path:url(#clip-path-2);}.cls-13{mask:url(#mask);}.cls-14{opacity:0.58;}.cls-15{fill:#f5caaa;}.cls-16{clip-path:url(#clip-path-3);}.cls-17,.cls-30{opacity:0.64;}.cls-18,.cls-20{fill:#2c344f;}.cls-19{clip-path:url(#clip-path-4);}.cls-20{opacity:0.35;}.cls-21{fill:#13a9d8;}.cls-22{fill:url(#linear-gradient-5);}.cls-23{fill:#fff;}.cls-24{fill:url(#linear-gradient-6);}.cls-25{fill:url(#linear-gradient-7);}.cls-26{fill:#192035;}.cls-27{clip-path:url(#clip-path-5);}.cls-28{fill:#768cd8;}.cls-29{clip-path:url(#clip-path-6);}.cls-30{fill:#f1c8aa;}.cls-31{fill:url(#linear-gradient-8);}.cls-32{fill:url(#linear-gradient-9);}.cls-33{fill:url(#linear-gradient-10);}.cls-34{fill:url(#linear-gradient-11);}.cls-35{fill:#7a8dd9;}.cls-36{fill:url(#linear-gradient-12);}.cls-37{fill:url(#linear-gradient-13);}.cls-38{fill:url(#linear-gradient-14);}.cls-40{fill:url(#linear-gradient-15);}.cls-41{fill:url(#linear-gradient-16);}.cls-42{fill:url(#linear-gradient-17);}.cls-43{fill:url(#linear-gradient-18);}.cls-44{fill:url(#linear-gradient-19);}.cls-45{fill:url(#linear-gradient-20);}.cls-46{fill:url(#linear-gradient-21);}.cls-47{fill:url(#linear-gradient-22);}.cls-48{fill:url(#linear-gradient-23);}.cls-49{fill:url(#linear-gradient-24);}.cls-51{fill:url(#linear-gradient-25);}.cls-52{fill:url(#linear-gradient-26);}.cls-53{fill:url(#linear-gradient-27);}.cls-54{fill:url(#linear-gradient-28);}.cls-55{fill:url(#linear-gradient-29);}.cls-56{filter:url(#luminosity-noclip);}</style><linearGradient id="linear-gradient" x1="145.3" y1="151.99" x2="376.26" y2="151.99" gradientTransform="translate(606.99 243.82) rotate(143.85)" gradientUnits="userSpaceOnUse"><stop offset="0" stop-color="#f4dde5"/><stop offset="1" stop-color="#cbcbe7"/></linearGradient><linearGradient id="linear-gradient-2" x1="248.74" y1="430.82" x2="248.74" y2="436.28" gradientTransform="matrix(1, 0, 0, -1, 2, 874.04)" gradientUnits="userSpaceOnUse"><stop offset="0" stop-color="#d1d3d4"/><stop offset="1" stop-color="#f1f2f2"/></linearGradient><linearGradient id="linear-gradient-3" x1="204.12" y1="408.73" x2="237.72" y2="334.25" gradientTransform="matrix(-1, 0, 0, 1, 499.49, 0)" gradientUnits="userSpaceOnUse"><stop offset="0" stop-color="#fdbfc0"/><stop offset="1" stop-color="#fc938d"/></linearGradient><clipPath id="clip-path"><polygon class="cls-1" points="238.63 309.59 265.82 387.66 259.44 411.57 238.63 406.99 208.43 315.3 238.63 309.59"/></clipPath><linearGradient id="linear-gradient-4" x1="311.38" y1="389.47" x2="311.38" y2="297.38" gradientTransform="matrix(-1, 0, 0, 1, 499.49, 0)" gradientUnits="userSpaceOnUse"><stop offset="0" stop-color="#7c90d9"/><stop offset="1" stop-color="#5d72cd"/></linearGradient><clipPath id="clip-path-2"><path class="cls-1" d="M214.05,246.24V261a7.39,7.39,0,0,0,0-14.77Z"/></clipPath><filter id="luminosity-noclip" x="215.45" y="-8442" width="8.08" height="32766" filterUnits="userSpaceOnUse" color-interpolation-filters="sRGB"><feFlood flood-color="#fff" result="bg"/><feBlend in="SourceGraphic" in2="bg"/></filter><mask id="mask" x="215.45" y="-8442" width="8.08" height="32766" maskUnits="userSpaceOnUse"><g class="cls-56"/></mask><clipPath id="clip-path-3"><polygon class="cls-1" points="176.89 275.95 176.89 294.48 206.43 294.48 206.43 276.41 176.89 275.95"/></clipPath><clipPath id="clip-path-4"><path class="cls-1" d="M179.4,227.78s16.07,13.85,34.38,8.31,16.62-21.7,16.62-21.7l-4.93,2.09s1.7-9.63.62-13.63-18.31.31-25.08,2.47,2.15-3.28,2.61-4.11-10.27-4.2-23.14,1-25.32,18.92-20.55,31.23,2.61,16.62,2.61,16.62l4.78,2.08h3.53l-.32-25.29,1.85.18Z"/></clipPath><linearGradient id="linear-gradient-5" x1="286.59" y1="223.93" x2="339.39" y2="223.93" xlink:href="#linear-gradient-4"/><linearGradient id="linear-gradient-6" x1="313.33" y1="265.61" x2="338.77" y2="265.61" xlink:href="#linear-gradient-4"/><linearGradient id="linear-gradient-7" x1="307.41" y1="274.59" x2="316.31" y2="274.59" xlink:href="#linear-gradient-4"/><clipPath id="clip-path-5"><polygon class="cls-1" points="211.6 298.94 238.63 309.59 230.94 425.56 156.52 425.56 137.59 307.61 167.31 300.2 211.6 298.94"/></clipPath><clipPath id="clip-path-6"><path class="cls-1" d="M192.13,418.61c-.38,1.32-.71,2.66-1,4l-20.67-.51,7.7-18.93c.5.2,8.67,2.17,17,4.14C194.27,411.11,193.19,414.85,192.13,418.61Z"/></clipPath><linearGradient id="linear-gradient-8" x1="365.34" y1="410.77" x2="360.21" y2="322.88" xlink:href="#linear-gradient-3"/><linearGradient id="linear-gradient-9" x1="329.3" y1="251.74" x2="345.41" y2="251.74" gradientTransform="matrix(1, 0, 0, -1, -175.22, 503.48)" xlink:href="#linear-gradient-4"/><linearGradient id="linear-gradient-10" x1="337.96" y1="258.45" x2="336.84" y2="246.07" gradientTransform="matrix(0, 1, 1, 0, -89.61, -85.61)" xlink:href="#linear-gradient-4"/><linearGradient id="linear-gradient-11" x1="248.74" y1="417.86" x2="248.74" y2="424.9" gradientTransform="matrix(1, 0, 0, -1, 2, 851.94)" xlink:href="#linear-gradient-2"/><linearGradient id="linear-gradient-12" x1="128.62" y1="416.88" x2="153.83" y2="401.48" gradientTransform="matrix(-1.34, -0.02, -0.09, 0.61, 576.83, 134.53)" xlink:href="#linear-gradient-4"/><linearGradient id="linear-gradient-13" x1="134.53" y1="413.37" x2="148.25" y2="404.99" gradientTransform="matrix(-1.34, -0.02, -0.09, 0.61, 576.83, 134.53)" gradientUnits="userSpaceOnUse"><stop offset="0" stop-color="#fbf0f4"/><stop offset="1" stop-color="#dce3f6"/></linearGradient><linearGradient id="linear-gradient-14" x1="169.39" y1="314.56" x2="118.48" y2="196.19" gradientTransform="matrix(-1, 0, 0, 1, 499.49, 0)" gradientUnits="userSpaceOnUse"><stop offset="0" stop-color="#b5c4ed"/><stop offset="1" stop-color="#7085d6"/></linearGradient><linearGradient id="linear-gradient-15" x1="111.58" y1="249.78" x2="117.73" y2="249.78" gradientTransform="matrix(-1, 0, 0, 1, 499.49, 0)" xlink:href="#linear-gradient-13"/><linearGradient id="linear-gradient-16" x1="124.94" y1="249.78" x2="131.09" y2="249.78" gradientTransform="matrix(-1, 0, 0, 1, 499.49, 0)" xlink:href="#linear-gradient-13"/><linearGradient id="linear-gradient-17" x1="138.31" y1="249.78" x2="144.46" y2="249.78" gradientTransform="matrix(-1, 0, 0, 1, 499.49, 0)" xlink:href="#linear-gradient-13"/><linearGradient id="linear-gradient-18" x1="109.9" y1="262.63" x2="189.99" y2="262.63" gradientTransform="matrix(-1, 0, 0, 1, 499.49, 0)" xlink:href="#linear-gradient-13"/><linearGradient id="linear-gradient-19" x1="109.9" y1="273.18" x2="189.99" y2="273.18" gradientTransform="matrix(-1, 0, 0, 1, 499.49, 0)" xlink:href="#linear-gradient-13"/><linearGradient id="linear-gradient-20" x1="109.9" y1="284.74" x2="189.99" y2="284.74" gradientTransform="matrix(-1, 0, 0, 1, 499.49, 0)" xlink:href="#linear-gradient-13"/><linearGradient id="linear-gradient-21" x1="58.99" y1="269" x2="134.13" y2="269" gradientTransform="matrix(1, 0, 0, 1, 0, 0)" xlink:href="#linear-gradient-14"/><linearGradient id="linear-gradient-22" x1="271.21" y1="188.62" x2="307.29" y2="104.73" gradientTransform="matrix(1, 0, 0, 1, 0, 0)" xlink:href="#linear-gradient-3"/><linearGradient id="linear-gradient-23" x1="97.02" y1="205.65" x2="122.03" y2="147.49" gradientTransform="matrix(-1, 0, 0, 1, 344.04, 0)" xlink:href="#linear-gradient-14"/><linearGradient id="linear-gradient-24" x1="364.19" y1="205.3" x2="326.75" y2="118.24" gradientTransform="matrix(-1, 0, 0, 1, 720.69, 0)" xlink:href="#linear-gradient-3"/><linearGradient id="linear-gradient-25" x1="95.05" y1="180.14" x2="126.94" y2="180.14" gradientTransform="translate(150.87 -27.66) rotate(42.5)" xlink:href="#linear-gradient"/><linearGradient id="linear-gradient-26" x1="171.56" y1="61.37" x2="96.4" y2="123.82" gradientTransform="translate(192.9 -82.28) rotate(76.77)" xlink:href="#linear-gradient"/><linearGradient id="linear-gradient-27" x1="234.46" y1="49.46" x2="184.96" y2="90.61" gradientTransform="matrix(1, 0, 0, 1, 0, 0)" xlink:href="#linear-gradient"/><linearGradient id="linear-gradient-28" x1="325.09" y1="59.61" x2="275.59" y2="100.75" gradientTransform="matrix(1, 0, 0, 1, 0, 0)" xlink:href="#linear-gradient"/><linearGradient id="linear-gradient-29" x1="216.6" y1="136.55" x2="183.65" y2="163.93" gradientTransform="matrix(1, 0, 0, 1, 0, 0)" xlink:href="#linear-gradient"/></defs><title>contact</title><g class="cls-2"><g id="Layer_1" data-name="Layer 1"><path class="cls-3" d="M222,313.21c15.33,73.4-85.27,63.82-123.12,18.91A106.34,106.34,0,0,1,111.6,182.28c44.91-37.85,118.62-37,149.84,12.78C302.72,260.82,210,255.72,222,313.21Z"/><path class="cls-4" d="M238,324.54C151.16,336.47,170.5,219.88,226,179.37a124.35,124.35,0,0,1,173.77,27c40.51,55.46,33.51,141.38-27.06,173.77C292.6,423,306.08,315.2,238,324.54Z"/><path class="cls-5" d="M113.18,430.56H388.31a10.53,10.53,0,0,1,10.53,10.53v2.4a0,0,0,0,1,0,0H102.65a0,0,0,0,1,0,0v-2.4A10.53,10.53,0,0,1,113.18,430.56Z" transform="translate(501.49 874.04) rotate(-180)"/><polygon class="cls-6" points="238.63 309.59 265.82 387.66 351.22 408.52 340.23 429.37 238.63 406.99 208.43 315.3 238.63 309.59"/><g class="cls-7"><path class="cls-8" d="M249,427.87c0-1.15-15.92-97.92-15.92-97.92l-5.35,87.9Z"/></g><polygon class="cls-9" points="205.39 296.49 238.63 309.59 230.94 425.56 156.52 425.56 137.59 307.61 173.49 296.59 205.39 296.49"/><rect class="cls-10" x="214.05" y="245.83" width="13.07" height="13.07" rx="6.03" transform="translate(441.16 504.72) rotate(-180)"/><path class="cls-11" d="M214.05,246.24V261a7.39,7.39,0,0,0,0-14.77Z"/><g class="cls-12"><g class="cls-13"><rect class="cls-14" x="215.45" y="243.17" width="8.08" height="22.93" transform="translate(438.98 509.26) rotate(-180)"/></g></g><path class="cls-15" d="M176.89,267.22V307.1l5.85,2.8a22.25,22.25,0,0,0,23.69-2.8h0V267.79Z"/><g class="cls-16"><g class="cls-17"><path class="cls-11" d="M192.53,292h0a27.59,27.59,0,0,1-26.3-19.27h52.59A27.57,27.57,0,0,1,192.53,292Z"/></g></g><path class="cls-10" d="M212.9,202.28a31.61,31.61,0,0,1,10.63,23.66v20.95h-4.08V225.94a27.61,27.61,0,0,0-11.67-22.52C209.43,203,211.17,202.62,212.9,202.28Z"/><path class="cls-15" d="M192.53,287.87h0a25.21,25.21,0,0,0,25.21-25.21V216.48H167.32v46.18A25.21,25.21,0,0,0,192.53,287.87Z"/><path class="cls-18" d="M179.4,227.78s16.07,13.85,34.38,8.31,16.62-21.7,16.62-21.7l-4.93,2.09s1.7-9.63.62-13.63-18.08,1.39-24.85,3.54,1.92-4.35,2.38-5.18-10.27-4.2-23.14,1-25.32,18.92-20.55,31.23,2.61,16.62,2.61,16.62l4.78,2.08h3.53l-.32-25.29,1.85.18Z"/><g class="cls-19"><path class="cls-20" d="M167.54,225.94v22.78a1.92,1.92,0,0,0-.44-.36,19.1,19.1,0,0,0-3.63-1.6V225.94a31.68,31.68,0,0,1,16.64-27.86c1.42.83,2.85,1.66,4.3,2.43a27.82,27.82,0,0,0-9.79,7A27.51,27.51,0,0,0,167.54,225.94Z"/></g><path class="cls-1" d="M201,205.32c-6.77,2.15,2.15-3.28,2.61-4.11,0-.09-.05-.21-.25-.34a28,28,0,0,1,4.41,2.55C205.14,204.08,202.73,204.77,201,205.32Z"/><path class="cls-1" d="M191.81,198.3a27.48,27.48,0,0,1,10.79,2.2c-2.93-1.12-11.83-2.44-22.12,1.74a40.78,40.78,0,0,0-9.23,5.3A27.58,27.58,0,0,1,191.81,198.3Z"/><path class="cls-21" d="M202.6,200.5a3.71,3.71,0,0,1,.77.37C203.11,200.75,202.87,200.61,202.6,200.5Z"/><path class="cls-22" d="M160.61,220.3a31.69,31.69,0,0,1,52.29-18c-1.73.34-3.47.73-5.12,1.14a28,28,0,0,0-4.41-2.55,3.71,3.71,0,0,0-.77-.37,27.7,27.7,0,0,0-38.43,25.44v27.69H160.1V225.94A31.8,31.8,0,0,1,160.61,220.3Z"/><path class="cls-18" d="M204.29,246.87a1.3,1.3,0,0,0,.78,0,5.87,5.87,0,0,1,6.52,1.72,1.36,1.36,0,1,0,2.19-1.61,8.59,8.59,0,0,0-9.55-2.69,1.36,1.36,0,0,0-.87,1.71A1.34,1.34,0,0,0,204.29,246.87Z"/><path class="cls-18" d="M178.88,249a1.29,1.29,0,0,0,.68-.38,5.87,5.87,0,0,1,6.57-1.54,1.37,1.37,0,0,0,1.81-.64,1.35,1.35,0,0,0-.64-1.81,8.58,8.58,0,0,0-9.69,2.1,1.36,1.36,0,0,0,0,1.92A1.34,1.34,0,0,0,178.88,249Z"/><path class="cls-23" d="M195.33,277.81a13.77,13.77,0,0,1-12.44-7.22c-1.11-2.22.27-5,2.54-5h19.81c2.17,0,3.66,2.59,2.65,4.74A13.75,13.75,0,0,1,195.33,277.81Z"/><path class="cls-11" d="M168.45,246.24v17.05a8.53,8.53,0,0,1,0-17.05Z"/><path class="cls-24" d="M186.16,276.18v-2.72c-8.73,0-15.08-2.17-18.88-6.47a16.16,16.16,0,0,1-3.8-11.62l-2.69-.33a18.74,18.74,0,0,0,4.45,13.75C169.58,273.69,176.62,276.18,186.16,276.18Z"/><path class="cls-25" d="M183.17,274.59c0,2,2,3.69,4.45,3.69s4.46-1.65,4.46-3.69-2-3.7-4.46-3.7S183.17,272.55,183.17,274.59Z"/><circle class="cls-26" cx="206.78" cy="254.95" r="3.49"/><circle class="cls-26" cx="184.14" cy="254.95" r="3.49"/><g class="cls-27"><polygon class="cls-28" points="143.12 320.54 159.57 388.72 207.31 408.96 207.31 437.35 132.62 426.6 143.12 320.54"/></g><path class="cls-15" d="M178.14,403.18c.73.3,17.77,4.34,27.78,6.7a9.32,9.32,0,0,1,7.17,9.07v4.2l-42.65-1Z"/><g class="cls-29"><polygon class="cls-30" points="186.16 396.46 175.04 430.56 163.2 422.62 176.89 392.6 186.16 396.46"/></g><path class="cls-31" d="M137.59,307.6,87.84,399.84l79.38,26.76,14.4-24.86-50.25-18.21,8.09-14.88a58.27,58.27,0,0,0,2.38-51.21Z"/><rect class="cls-21" x="155.44" y="245.05" width="13.38" height="13.38" rx="6.17" transform="translate(324.27 503.48) rotate(-180)"/><rect class="cls-32" x="154.08" y="243.69" width="16.11" height="16.11" rx="7.43" transform="translate(324.27 503.48) rotate(-180)"/><rect class="cls-33" x="157.35" y="246.96" width="9.57" height="9.57" rx="4.16" transform="translate(413.88 89.61) rotate(90)"/><rect class="cls-34" x="86.11" y="420.43" width="329.26" height="11.07" rx="4.51" transform="translate(501.49 851.94) rotate(-180)"/><polygon class="cls-35" points="283.98 420.43 391.76 420.43 403.85 333.36 296.07 333.36 283.98 420.43"/><polygon class="cls-10" points="279.05 412.75 290.49 333.36 298.15 333.36 286.06 420.43 280.81 420.43 275.9 420.43 223.7 420.43 223.7 412.75 279.05 412.75"/><path class="cls-36" d="M350.83,395.76c12.92-8.49,12.38-18.27,4.88-29.78-.91-1.4-5.28-1.44-6.6-.06-10.3,10.8-17,18.43-4.27,29.72C346,396.68,349.32,396.75,350.83,395.76Z"/><path class="cls-37" d="M350.3,388.89c7-4.62,6.74-9.95,2.66-16.21-.5-.77-2.88-.79-3.59,0-5.61,5.88-9.27,10-2.33,16.18A3.39,3.39,0,0,0,350.3,388.89Z"/><path class="cls-38" d="M306.29,236.79H392.8a8.29,8.29,0,0,1,8.29,8.29v48.51a8.29,8.29,0,0,1-8.29,8.29h-5.28l-17.93,22.25L371,301.88H306.29a8.29,8.29,0,0,1-8.29-8.29V245.08A8.29,8.29,0,0,1,306.29,236.79Z"/><g class="cls-39"><circle class="cls-40" cx="384.83" cy="249.78" r="3.08"/><path class="cls-41" d="M368.39,249.78a3.08,3.08,0,1,0,3.08-3.07A3.08,3.08,0,0,0,368.39,249.78Z"/><path class="cls-42" d="M355,249.78a3.08,3.08,0,1,0,3.08-3.07A3.08,3.08,0,0,0,355,249.78Z"/><path class="cls-43" d="M311.09,264.22H388a1.59,1.59,0,0,0,1.59-1.59h0A1.6,1.6,0,0,0,388,261H311.09a1.6,1.6,0,0,0-1.59,1.6h0A1.59,1.59,0,0,0,311.09,264.22Z"/><path class="cls-44" d="M311.09,274.78H388a1.6,1.6,0,0,0,1.59-1.6h0a1.59,1.59,0,0,0-1.59-1.59H311.09a1.59,1.59,0,0,0-1.59,1.59h0A1.6,1.6,0,0,0,311.09,274.78Z"/><path class="cls-45" d="M311.09,286.33H388a1.59,1.59,0,0,0,1.59-1.59h0a1.59,1.59,0,0,0-1.59-1.59H311.09a1.59,1.59,0,0,0-1.59,1.59h0A1.59,1.59,0,0,0,311.09,286.33Z"/></g><circle class="cls-46" cx="96.56" cy="269" r="37.57"/><path class="cls-23" d="M96.09,244.61l1.31.15a28.43,28.43,0,0,1,24.93,23.74l.15.79V270l-.07.14a1.49,1.49,0,0,1-1.6,1,1.53,1.53,0,0,1-1.28-1.33c-.19-1.06-.35-2.12-.63-3.15a25,25,0,0,0-13-16.26,25.56,25.56,0,0,0-10.09-2.78,1.47,1.47,0,0,1-1.45-1.32,1.45,1.45,0,0,1,1.16-1.6l.1,0Z"/><path class="cls-23" d="M95.78,251.85a21.51,21.51,0,0,1,3.79.72,20.8,20.8,0,0,1,14.75,16,4.28,4.28,0,0,1,.13,1.12,1.42,1.42,0,0,1-1.4,1.31,1.46,1.46,0,0,1-1.51-1.22A18,18,0,0,0,96.84,255c-.41-.08-.82-.12-1.23-.18a1.48,1.48,0,0,1-.21-2.9C95.53,251.87,95.67,251.87,95.78,251.85Z"/><path class="cls-23" d="M95.69,259.32a11.12,11.12,0,0,1,2.79.66,12.84,12.84,0,0,1,8.32,9.36,1.47,1.47,0,0,1-2.69,1.17,1.55,1.55,0,0,1-.18-.51,10.05,10.05,0,0,0-8.36-7.72,1.48,1.48,0,0,1-1.37-1.43,1.46,1.46,0,0,1,1.16-1.49Z"/><path class="cls-23" d="M106.23,295H106c.51-.09,1-.15,1.46-.26a10.58,10.58,0,0,0,7.76-6.48,4.59,4.59,0,0,0,.3-2.56,4.06,4.06,0,0,0-3.27-3.66c-2.69-.6-5.41-1.12-8.12-1.63a12.86,12.86,0,0,0-3.45-.23,2.09,2.09,0,0,0-1.82,1c-.33.59-.69,1.17-1,1.76L97,284.26a31.8,31.8,0,0,1-14.91-13.89c.3-.18.56-.35.84-.5a15.69,15.69,0,0,0,2.36-1.5,1.82,1.82,0,0,0,.68-1.18,8.34,8.34,0,0,0-.08-2.73,95.59,95.59,0,0,0-2.21-9.58,3.68,3.68,0,0,0-.75-1.52A5.19,5.19,0,0,0,77.71,252a9.71,9.71,0,0,0-3.29,2,11.51,11.51,0,0,0-3.57,6.81c-.09.53-.14,1.06-.21,1.59v1.87c0,.41.09.82.14,1.23a23.38,23.38,0,0,0,2.38,7.6,35.6,35.6,0,0,0,8.78,11.1,53.75,53.75,0,0,0,12.82,8.4,27.29,27.29,0,0,0,7.12,2.23c.39.06.78.1,1.17.18"/><path class="cls-47" d="M314.92,150.71A27.4,27.4,0,1,0,276.84,176l-8.2,10.36,25.63-9A27.41,27.41,0,0,0,314.92,150.71Z"/><path class="cls-23" d="M275.07,143.67c.1-8.8,4.6-11,12.17-11,7.38,0,12.37,2.1,12.37,10.26,0,5.72-2.45,7.14-6.16,9.24-2.64,1.51-3,2.35-3,6.16h-6.31c0-6.89,1.18-7.77,4.94-10.17,2.25-1.42,3.57-2.25,3.57-5.42,0-3.38-1.47-4.5-5.18-4.5-4.3,0-5.13,1.52-5.57,5.43Zm12.37,17.44c3.17,0,3.91,1.13,3.91,3.67s-.74,3.62-3.91,3.62-3.86-1.08-3.86-3.62S284.26,161.11,287.44,161.11Z"/><path class="cls-48" d="M216.72,179.37a19,19,0,1,1,26.39,17.5L248.8,204,231,197.78A19,19,0,0,1,216.72,179.37Z"/><path class="cls-23" d="M235.68,185.82c2.29,0,2.82.81,2.82,2.64s-.53,2.6-2.82,2.6-2.78-.77-2.78-2.6S233.39,185.82,235.68,185.82Zm2.67-13.52L237,184h-2.64L233,172.3v-6.69h5.35Z"/><path class="cls-49" d="M341.94,146.83h57.73a6,6,0,0,1,6,6v38.34a6,6,0,0,1-6,6h-3.84l-13.06,16.2,1-16.2H341.94a6,6,0,0,1-6-6V152.87A6,6,0,0,1,341.94,146.83Z"/><path class="cls-23" d="M358.28,165.25a5.71,5.71,0,0,1,1.59.34,6.89,6.89,0,0,1,4.38,4.45.41.41,0,0,1-.06.4,12,12,0,0,1-20.21.13.68.68,0,0,1-.07-.71,6.89,6.89,0,0,1,5.72-4.59l.18,0A2.18,2.18,0,0,0,351.3,167a6.82,6.82,0,0,0,5.51,0,3.25,3.25,0,0,0,.45-.25A2,2,0,0,0,358.28,165.25Z"/><path class="cls-23" d="M354,152.49a5.38,5.38,0,0,1,4.89,3.4,6.27,6.27,0,0,1,.39,3.06,12,12,0,0,1-.6,2.8,7.13,7.13,0,0,1-2.09,3.11,3.88,3.88,0,0,1-2.8,1,4.09,4.09,0,0,1-2.55-1.13,6.82,6.82,0,0,1-1.68-2.4,10.36,10.36,0,0,1-.86-4.49,5.48,5.48,0,0,1,4.24-5.18A9.62,9.62,0,0,1,354,152.49Z"/><rect class="cls-23" x="344.66" y="181.03" width="54.95" height="2.02" rx="0.83"/><rect class="cls-23" x="344.66" y="187.04" width="54.95" height="2.02" rx="0.83"/><rect class="cls-23" x="368.68" y="167.97" width="30.93" height="2.02" rx="0.83"/><rect class="cls-23" x="368.68" y="161.65" width="30.93" height="2.02" rx="0.83"/><rect class="cls-23" x="368.68" y="154.93" width="30.93" height="2.02" rx="0.83"/><rect class="cls-23" x="368.68" y="173.99" width="30.93" height="2.02" rx="0.83"/><circle class="cls-3" cx="306.13" cy="137.55" r="11.1" transform="translate(119.24 416.3) rotate(-80.35)"/><circle class="cls-50" cx="410.77" cy="343.94" r="10.59" transform="translate(1.84 690.07) rotate(-80.18)"/><circle class="cls-3" cx="81.04" cy="331.38" r="7.25"/><circle class="cls-51" cx="111" cy="180.14" r="15.94" transform="translate(-92.54 122.33) rotate(-42.5)"/><circle class="cls-52" cx="148.39" cy="80.62" r="8.33" transform="translate(35.93 206.61) rotate(-76.77)"/><circle class="cls-53" cx="219.2" cy="62.15" r="5.49"/><circle class="cls-54" cx="309.83" cy="72.3" r="5.49"/><path class="cls-55" d="M210.09,145a3.65,3.65,0,1,1-3.65-3.65A3.65,3.65,0,0,1,210.09,145Z"/></g></g></svg>