<svg xmlns="http://www.w3.org/2000/svg" xmlns:xlink="http://www.w3.org/1999/xlink" viewBox="0 0 500 500"><defs><linearGradient id="linear-gradient" x1="242.89" y1="114.37" x2="255.29" y2="433.42" gradientUnits="userSpaceOnUse"><stop offset="0" stop-color="#ebf5ff"/><stop offset="1" stop-color="#f7fbff"/></linearGradient><linearGradient id="linear-gradient-2" x1="243.3" y1="253.6" x2="247.32" y2="332.48" gradientUnits="userSpaceOnUse"><stop offset="0" stop-color="#a9d4ff"/><stop offset="1" stop-color="#dcefff"/></linearGradient><linearGradient id="linear-gradient-3" x1="244.92" y1="265.97" x2="246.75" y2="416.79" gradientUnits="userSpaceOnUse"><stop offset="0"/><stop offset="1" stop-opacity="0"/></linearGradient><linearGradient id="linear-gradient-4" x1="157.2" y1="376.06" x2="157.2" y2="406.74" gradientUnits="userSpaceOnUse"><stop offset="0" stop-color="#0c0c28"/><stop offset="1" stop-color="#1c1c51"/></linearGradient><linearGradient id="linear-gradient-5" x1="330.92" y1="376.06" x2="330.92" y2="406.74" xlink:href="#linear-gradient-4"/><linearGradient id="linear-gradient-6" x1="242.71" y1="320.74" x2="243.44" y2="385.75" xlink:href="#linear-gradient-2"/><linearGradient id="linear-gradient-7" x1="258.41" y1="287.51" x2="260.06" y2="408.57" xlink:href="#linear-gradient-3"/><linearGradient id="linear-gradient-8" x1="138.11" y1="375.52" x2="248.88" y2="331.94" xlink:href="#linear-gradient-3"/><linearGradient id="linear-gradient-9" x1="105.39" y1="277.9" x2="147.39" y2="403.16" xlink:href="#linear-gradient-2"/><linearGradient id="linear-gradient-10" x1="370.15" y1="313.06" x2="346.78" y2="382.45" xlink:href="#linear-gradient-2"/><linearGradient id="linear-gradient-11" x1="298.36" y1="282.45" x2="297.08" y2="328.09" gradientUnits="userSpaceOnUse"><stop offset="0" stop-color="#6ebaff"/><stop offset="1" stop-color="#4271d1"/></linearGradient><clipPath id="clip-path"><path d="M338,323.48c-2.8,5.73-6.33,10.53-8.77,11.07a105.91,105.91,0,0,1-11.24.72c-21.58.75-65.67.86-65.81-.72a39.61,39.61,0,0,1,1.63-10.28c3.2-10.58,10.1-15.55,11.88-16.2,1.5-.54,8.56.54,16.83,1.27a23.44,23.44,0,0,0-4.84,9.87c-1,5,1.95,4.32,2.74,5.3s1.46,3.22,2.67,2.37,4.27-10.22,5.06-10.43-.58,3.61.74,4.35c1.07.59,2.08-3,2.29-5.64a8.7,8.7,0,0,0,0-1.61c-.24-2.31,2.86-3.63,2.86-3.63l1.68,0a26.87,26.87,0,0,0,4.58-.5c.71-.15,1.42-.31,2.1-.5,9.05-2.47,15.85-8.68,24.45-8.68a45.82,45.82,0,0,1,5.7.34c6.05.79,8,2.68,8,2.68C344.33,305.74,341.84,315.5,338,323.48Z" style="fill:none"/></clipPath><linearGradient id="linear-gradient-12" x1="295.63" y1="396.29" x2="285.16" y2="299.88" xlink:href="#linear-gradient-3"/><linearGradient id="linear-gradient-13" x1="356.27" y1="290.62" x2="337.65" y2="287.33" gradientUnits="userSpaceOnUse"><stop offset="0" stop-color="#ff7e64"/><stop offset="1" stop-color="#ffc8b3"/></linearGradient><linearGradient id="linear-gradient-14" x1="360.89" y1="284.49" x2="335.97" y2="286.87" xlink:href="#linear-gradient-3"/><linearGradient id="linear-gradient-15" x1="361.28" y1="295.46" x2="332.31" y2="302.89" xlink:href="#linear-gradient-13"/><linearGradient id="linear-gradient-16" x1="349.07" y1="299.08" x2="332.27" y2="302.55" xlink:href="#linear-gradient-3"/><linearGradient id="linear-gradient-17" x1="356.97" y1="306.65" x2="352.77" y2="258.45" xlink:href="#linear-gradient-3"/><linearGradient id="linear-gradient-18" x1="325.96" y1="283.22" x2="324.68" y2="328.87" xlink:href="#linear-gradient-11"/><linearGradient id="linear-gradient-19" x1="355.68" y1="313.93" x2="322.26" y2="311.65" xlink:href="#linear-gradient-3"/><linearGradient id="linear-gradient-20" x1="296.31" y1="298.92" x2="283.89" y2="323.51" xlink:href="#linear-gradient-13"/><linearGradient id="linear-gradient-21" x1="202.39" y1="331.75" x2="209.24" y2="274.6" xlink:href="#linear-gradient-4"/><linearGradient id="linear-gradient-22" x1="172.25" y1="278.81" x2="137.92" y2="266.89" xlink:href="#linear-gradient-13"/><linearGradient id="linear-gradient-23" x1="168.36" y1="300.58" x2="129.17" y2="318.1" xlink:href="#linear-gradient-13"/><linearGradient id="linear-gradient-24" x1="349.92" y1="321.89" x2="352.11" y2="271.13" gradientUnits="userSpaceOnUse"><stop offset="0" stop-color="#ff8431"/><stop offset="1" stop-color="#ffa669"/></linearGradient><linearGradient id="linear-gradient-25" x1="353.75" y1="281.51" x2="346.45" y2="325.82" xlink:href="#linear-gradient-3"/><linearGradient id="linear-gradient-26" x1="284.68" y1="343.76" x2="354.43" y2="314.91" xlink:href="#linear-gradient-13"/><linearGradient id="linear-gradient-27" x1="190.15" y1="322.18" x2="208.04" y2="259.49" xlink:href="#linear-gradient-3"/><linearGradient id="linear-gradient-28" x1="201.35" y1="340.72" x2="211.21" y2="285.21" xlink:href="#linear-gradient-3"/><linearGradient id="linear-gradient-29" x1="299.19" y1="299.8" x2="293.53" y2="325.67" xlink:href="#linear-gradient-3"/><linearGradient id="linear-gradient-30" x1="364.88" y1="348.54" x2="325.26" y2="303.53" xlink:href="#linear-gradient-3"/><linearGradient id="linear-gradient-31" x1="333.5" y1="284.93" x2="345.09" y2="289.31" gradientUnits="userSpaceOnUse"><stop offset="0" stop-color="#fff"/><stop offset="1" stop-color="#fff" stop-opacity="0"/></linearGradient><linearGradient id="linear-gradient-32" x1="276.06" y1="329.41" x2="282.81" y2="308.96" xlink:href="#linear-gradient-3"/><linearGradient id="linear-gradient-33" x1="277.94" y1="330.04" x2="284.69" y2="309.58" xlink:href="#linear-gradient-3"/><linearGradient id="linear-gradient-34" x1="279.9" y1="330.68" x2="286.66" y2="310.23" xlink:href="#linear-gradient-3"/><linearGradient id="linear-gradient-35" x1="287.44" y1="322.34" x2="288.94" y2="311.41" xlink:href="#linear-gradient-3"/><linearGradient id="linear-gradient-36" x1="285.99" y1="292.81" x2="291.83" y2="323.24" xlink:href="#linear-gradient-31"/><linearGradient id="linear-gradient-37" x1="192.24" y1="274.44" x2="194.8" y2="308.28" xlink:href="#linear-gradient-31"/><linearGradient id="linear-gradient-38" x1="166.47" y1="292.45" x2="143.82" y2="272.45" xlink:href="#linear-gradient-3"/><linearGradient id="linear-gradient-39" x1="165.98" y1="318.43" x2="122.34" y2="321.81" xlink:href="#linear-gradient-3"/><linearGradient id="linear-gradient-40" x1="135.43" y1="294.41" x2="115.46" y2="320.34" xlink:href="#linear-gradient-3"/><linearGradient id="linear-gradient-41" x1="145.06" y1="301.83" x2="125.1" y2="327.76" xlink:href="#linear-gradient-3"/><linearGradient id="linear-gradient-42" x1="142.86" y1="249.55" x2="144.87" y2="266.58" xlink:href="#linear-gradient-3"/><linearGradient id="linear-gradient-43" x1="394.02" y1="318.39" x2="310.75" y2="408.96" xlink:href="#linear-gradient-3"/><linearGradient id="linear-gradient-44" x1="270.19" y1="164.71" x2="339.76" y2="317.54" xlink:href="#linear-gradient"/><linearGradient id="linear-gradient-45" x1="209.54" y1="163.06" x2="246.39" y2="244.02" xlink:href="#linear-gradient"/><linearGradient id="linear-gradient-46" x1="382.14" y1="206.07" x2="400.92" y2="263.54" xlink:href="#linear-gradient-4"/><linearGradient id="linear-gradient-47" x1="429.88" y1="217.77" x2="421.48" y2="266.34" xlink:href="#linear-gradient-24"/><linearGradient id="linear-gradient-48" x1="413.8" y1="274.15" x2="410.15" y2="218.28" xlink:href="#linear-gradient-11"/><linearGradient id="linear-gradient-49" x1="413.39" y1="276.67" x2="412.75" y2="328.92" xlink:href="#linear-gradient-2"/></defs><title>easy</title><g style="isolation:isolate"><g id="BACKGROUND"><rect width="500" height="500" style="fill:#fff"/></g><g id="OBJECTS"><path d="M428.49,344.3A78.38,78.38,0,0,1,399,361.5a88.62,88.62,0,0,1-31.75,3.83c-84.45-4.46-115,24.16-166.06,34.39s-73.52-8-73.52-8C110,383.83,24.47,311.35,36.89,238.31S105.54,87.85,208.76,88.58s210.84,65.73,240.78,122.7C470.4,251,463.27,312.25,428.49,344.3Z" style="fill:url(#linear-gradient)"/><path d="M350.85,331.63c-2.86,8-9.92,13.73-18.37,17.9-19.44,9.61-46.25,10.75-46.25,10.75L233.32,351l-75.15-13.2-11.23-2s-21.26-58.5-3.41-79.36,37.94-18.3,64.23-8.44,38.71,28.16,64.27,30.33,32.28-13.24,56-7.18S360.28,305.33,350.85,331.63Z" style="fill:url(#linear-gradient-2)"/><path d="M335.55,343.94a20.74,20.74,0,0,1-3.07,5.59c-19.44,9.61-46.25,10.75-46.25,10.75L233.32,351l-75.15-13.2c-4.41-15.46-10.87-45.2.17-58.11,15.25-17.83,32.42-15.65,54.9-7.22s33.09,24.07,54.94,25.92,27.6-11.31,47.86-6.13S343.62,321.46,335.55,343.94Z" style="opacity:0.45;mix-blend-mode:overlay;fill:url(#linear-gradient-3)"/><rect x="154.3" y="391.15" width="5.8" height="10.04" style="fill:url(#linear-gradient-4)"/><rect x="328.02" y="391.15" width="5.8" height="10.04" style="fill:url(#linear-gradient-5)"/><rect x="140.2" y="334.88" width="205.92" height="50.79" style="fill:url(#linear-gradient-6)"/><path d="M346.12,334.88v11.75c-1.57,2.17-3.31,4.41-5.13,6.67-9.37,11.62-19.48,1.7-30.25-3.23s-14.43-.91-28.69,2.37-30.47-3.65-50.92-8.76-29.95,1.82-43.28-.73c-8.95-1.72-13.7-5.66-15.86-8.07Z" style="opacity:0.45;mix-blend-mode:overlay;fill:url(#linear-gradient-7)"/><path d="M213.51,385.68H140.2v-50.8h17.28c5.09,3.7,11.6,9.8,14.12,18.05,4.38,14.37,21.48,10.71,28.27,20.69C202.67,377.73,208.07,382,213.51,385.68Z" style="opacity:0.45;mix-blend-mode:overlay;fill:url(#linear-gradient-8)"/><path d="M164.76,386.38a14.78,14.78,0,0,1-25.9,3.48L97.93,332.44A14.77,14.77,0,0,1,102.65,311L115.07,304a14.79,14.79,0,0,1,20.83,6.87l28.51,64.49A14.76,14.76,0,0,1,164.76,386.38Z" style="fill:url(#linear-gradient-9)"/><path d="M389.88,331.63q-.25.4-.54.81l-40.93,57.42a14.78,14.78,0,0,1-25.55-14.55l1.33-3,27.18-61.5A14.78,14.78,0,0,1,372.2,304L384.62,311A14.78,14.78,0,0,1,389.88,331.63Z" style="fill:url(#linear-gradient-10)"/><path d="M338,323.48c-2.8,5.73-6.33,10.53-8.77,11.07a105.91,105.91,0,0,1-11.24.72c-21.58.75-65.67.86-65.81-.72a39.61,39.61,0,0,1,1.63-10.28c3.2-10.58,10.1-15.55,11.88-16.2,1.5-.54,8.56.54,16.83,1.27a23.44,23.44,0,0,0-4.84,9.87c-1,5,1.95,4.32,2.74,5.3s1.46,3.22,2.67,2.37,4.27-10.22,5.06-10.43-.58,3.61.74,4.35c1.07.59,2.08-3,2.29-5.64a8.7,8.7,0,0,0,0-1.61c-.24-2.31,2.86-3.63,2.86-3.63l1.68,0a26.87,26.87,0,0,0,4.58-.5c.71-.15,1.42-.31,2.1-.5,9.05-2.47,15.85-8.68,24.45-8.68a45.82,45.82,0,0,1,5.7.34c6.05.79,8,2.68,8,2.68C344.33,305.74,341.84,315.5,338,323.48Z" style="fill:url(#linear-gradient-11)"/><g style="clip-path:url(#clip-path)"><g style="opacity:0.25;mix-blend-mode:overlay"><path d="M266.84,299.16a.73.73,0,1,1-.73-.73A.73.73,0,0,1,266.84,299.16Z" style="fill:#fff"/><path d="M273.28,299.16a.73.73,0,1,1-.73-.73A.73.73,0,0,1,273.28,299.16Z" style="fill:#fff"/><path d="M279.72,299.16a.73.73,0,1,1-.73-.73A.73.73,0,0,1,279.72,299.16Z" style="fill:#fff"/><path d="M286.16,299.16a.73.73,0,1,1-.73-.73A.73.73,0,0,1,286.16,299.16Z" style="fill:#fff"/><path d="M292.6,299.16a.73.73,0,1,1-.73-.73A.73.73,0,0,1,292.6,299.16Z" style="fill:#fff"/><path d="M266.84,303.89a.73.73,0,0,1-1.46,0,.73.73,0,0,1,1.46,0Z" style="fill:#fff"/><path d="M273.28,303.89a.73.73,0,1,1-.73-.73A.73.73,0,0,1,273.28,303.89Z" style="fill:#fff"/><path d="M279.72,303.89a.73.73,0,1,1-.73-.73A.73.73,0,0,1,279.72,303.89Z" style="fill:#fff"/><path d="M286.16,303.89a.73.73,0,1,1-.73-.73A.73.73,0,0,1,286.16,303.89Z" style="fill:#fff"/><path d="M292.6,303.89a.73.73,0,1,1-.73-.73A.73.73,0,0,1,292.6,303.89Z" style="fill:#fff"/><path d="M266.84,308.63a.73.73,0,1,1-.73-.73A.73.73,0,0,1,266.84,308.63Z" style="fill:#fff"/><circle cx="272.55" cy="308.63" r="0.73" style="fill:#fff"/><path d="M279.72,308.63a.73.73,0,1,1-.73-.73A.73.73,0,0,1,279.72,308.63Z" style="fill:#fff"/><circle cx="285.43" cy="308.63" r="0.73" style="fill:#fff"/><circle cx="291.87" cy="308.63" r="0.73" style="fill:#fff"/><path d="M266.84,313.36a.73.73,0,0,1-1.46,0,.73.73,0,0,1,1.46,0Z" style="fill:#fff"/><circle cx="272.55" cy="313.36" r="0.73" style="fill:#fff"/><path d="M279.72,313.36a.73.73,0,1,1-.73-.73A.73.73,0,0,1,279.72,313.36Z" style="fill:#fff"/><circle cx="285.43" cy="313.36" r="0.73" style="fill:#fff"/><circle cx="291.87" cy="313.36" r="0.73" style="fill:#fff"/><path d="M266.84,318.1a.73.73,0,1,1-.73-.73A.73.73,0,0,1,266.84,318.1Z" style="fill:#fff"/><circle cx="272.55" cy="318.1" r="0.73" style="fill:#fff"/><path d="M279.72,318.1a.73.73,0,1,1-.73-.73A.73.73,0,0,1,279.72,318.1Z" style="fill:#fff"/><circle cx="285.43" cy="318.1" r="0.73" style="fill:#fff"/><circle cx="291.87" cy="318.1" r="0.73" style="fill:#fff"/><path d="M266.84,322.83a.73.73,0,1,1-.73-.73A.73.73,0,0,1,266.84,322.83Z" style="fill:#fff"/><circle cx="272.55" cy="322.83" r="0.73" style="fill:#fff"/><path d="M279.72,322.83a.73.73,0,1,1-.73-.73A.74.74,0,0,1,279.72,322.83Z" style="fill:#fff"/><circle cx="285.43" cy="322.83" r="0.73" style="fill:#fff"/><circle cx="291.87" cy="322.83" r="0.73" style="fill:#fff"/></g><g style="opacity:0.25;mix-blend-mode:overlay"><circle cx="300.24" cy="317.29" r="0.73" style="fill:#fff"/><circle cx="306.68" cy="317.29" r="0.73" style="fill:#fff"/><circle cx="313.11" cy="317.29" r="0.73" style="fill:#fff"/><path d="M320.28,317.29a.73.73,0,1,1-.73-.73A.73.73,0,0,1,320.28,317.29Z" style="fill:#fff"/><circle cx="325.99" cy="317.29" r="0.73" style="fill:#fff"/><circle cx="300.24" cy="322.03" r="0.73" style="fill:#fff"/><circle cx="306.68" cy="322.03" r="0.73" style="fill:#fff"/><circle cx="313.11" cy="322.03" r="0.73" style="fill:#fff"/><path d="M320.28,322a.73.73,0,1,1-.73-.73A.73.73,0,0,1,320.28,322Z" style="fill:#fff"/><circle cx="325.99" cy="322.03" r="0.73" style="fill:#fff"/><path d="M301,326.76a.73.73,0,1,1-.73-.73A.73.73,0,0,1,301,326.76Z" style="fill:#fff"/><path d="M307.41,326.76a.73.73,0,1,1-.73-.73A.73.73,0,0,1,307.41,326.76Z" style="fill:#fff"/><path d="M313.84,326.76a.73.73,0,0,1-1.46,0,.73.73,0,0,1,1.46,0Z" style="fill:#fff"/><path d="M320.28,326.76a.73.73,0,1,1-.73-.73A.73.73,0,0,1,320.28,326.76Z" style="fill:#fff"/><path d="M326.72,326.76A.73.73,0,1,1,326,326,.73.73,0,0,1,326.72,326.76Z" style="fill:#fff"/><path d="M301,331.5a.73.73,0,1,1-.73-.73A.73.73,0,0,1,301,331.5Z" style="fill:#fff"/><path d="M307.41,331.5a.73.73,0,1,1-.73-.73A.73.73,0,0,1,307.41,331.5Z" style="fill:#fff"/><path d="M313.84,331.5a.73.73,0,1,1-.73-.73A.73.73,0,0,1,313.84,331.5Z" style="fill:#fff"/><path d="M320.28,331.5a.73.73,0,1,1-.73-.73A.73.73,0,0,1,320.28,331.5Z" style="fill:#fff"/><path d="M326.72,331.5a.73.73,0,1,1-.73-.73A.73.73,0,0,1,326.72,331.5Z" style="fill:#fff"/><circle cx="300.24" cy="336.23" r="0.73" style="fill:#fff"/><circle cx="306.68" cy="336.23" r="0.73" style="fill:#fff"/><circle cx="313.11" cy="336.23" r="0.73" style="fill:#fff"/><path d="M320.28,336.23a.73.73,0,1,1-.73-.73A.73.73,0,0,1,320.28,336.23Z" style="fill:#fff"/><circle cx="325.99" cy="336.23" r="0.73" style="fill:#fff"/><circle cx="300.24" cy="340.97" r="0.73" style="fill:#fff"/><circle cx="306.68" cy="340.97" r="0.73" style="fill:#fff"/><circle cx="313.11" cy="340.97" r="0.73" style="fill:#fff"/><path d="M320.28,341a.73.73,0,1,1-.73-.73A.73.73,0,0,1,320.28,341Z" style="fill:#fff"/><circle cx="325.99" cy="340.97" r="0.73" style="fill:#fff"/></g><g style="opacity:0.25;mix-blend-mode:overlay"><circle cx="317" cy="286.59" r="0.73" style="fill:#fff"/><path d="M324.17,286.59a.73.73,0,1,1-.73-.73A.73.73,0,0,1,324.17,286.59Z" style="fill:#fff"/><circle cx="329.88" cy="286.59" r="0.73" style="fill:#fff"/><path d="M337.05,286.59a.73.73,0,1,1-.73-.73A.73.73,0,0,1,337.05,286.59Z" style="fill:#fff"/><circle cx="342.75" cy="286.59" r="0.73" style="fill:#fff"/><path d="M317.73,291.33a.73.73,0,0,1-1.46,0,.73.73,0,1,1,1.46,0Z" style="fill:#fff"/><path d="M324.17,291.33a.73.73,0,1,1-.73-.74A.73.73,0,0,1,324.17,291.33Z" style="fill:#fff"/><path d="M330.61,291.33a.73.73,0,1,1-.73-.74A.73.73,0,0,1,330.61,291.33Z" style="fill:#fff"/><path d="M337.05,291.33a.73.73,0,1,1-.73-.74A.73.73,0,0,1,337.05,291.33Z" style="fill:#fff"/><path d="M343.48,291.33a.73.73,0,0,1-1.46,0,.73.73,0,1,1,1.46,0Z" style="fill:#fff"/><circle cx="317" cy="296.06" r="0.73" style="fill:#fff"/><path d="M324.17,296.06a.73.73,0,1,1-.73-.73A.73.73,0,0,1,324.17,296.06Z" style="fill:#fff"/><circle cx="329.88" cy="296.06" r="0.73" style="fill:#fff"/><path d="M337.05,296.06a.73.73,0,1,1-.73-.73A.73.73,0,0,1,337.05,296.06Z" style="fill:#fff"/><circle cx="342.75" cy="296.06" r="0.73" style="fill:#fff"/><circle cx="317" cy="300.8" r="0.73" style="fill:#fff"/><path d="M324.17,300.8a.73.73,0,1,1-.73-.73A.73.73,0,0,1,324.17,300.8Z" style="fill:#fff"/><circle cx="329.88" cy="300.8" r="0.73" style="fill:#fff"/><path d="M337.05,300.8a.73.73,0,0,1-1.46,0,.73.73,0,0,1,1.46,0Z" style="fill:#fff"/><circle cx="342.75" cy="300.8" r="0.73" style="fill:#fff"/><circle cx="317" cy="305.53" r="0.73" style="fill:#fff"/><path d="M324.17,305.53a.73.73,0,1,1-.73-.73A.73.73,0,0,1,324.17,305.53Z" style="fill:#fff"/><circle cx="329.88" cy="305.53" r="0.73" style="fill:#fff"/><path d="M337.05,305.53a.73.73,0,1,1-.73-.73A.73.73,0,0,1,337.05,305.53Z" style="fill:#fff"/><circle cx="342.75" cy="305.53" r="0.73" style="fill:#fff"/><circle cx="317" cy="310.27" r="0.73" style="fill:#fff"/><path d="M324.17,310.27a.73.73,0,1,1-.73-.73A.73.73,0,0,1,324.17,310.27Z" style="fill:#fff"/><circle cx="329.88" cy="310.27" r="0.73" style="fill:#fff"/><path d="M337.05,310.27a.73.73,0,0,1-1.46,0,.73.73,0,1,1,1.46,0Z" style="fill:#fff"/><circle cx="342.75" cy="310.27" r="0.73" style="fill:#fff"/></g></g><path d="M323.16,311s-3.26,14-5.22,24.27c-21.58.75-65.67.86-65.81-.72a39.61,39.61,0,0,1,1.63-10.28c2.72,1.48,12.67,6.57,22,7.27,11,.82,20.09-5.3,27.3-3S312.38,313.92,323.16,311Z" style="opacity:0.45;mix-blend-mode:overlay;fill:url(#linear-gradient-12)"/><path d="M349.33,293a4,4,0,0,1-.29,2.19,5.6,5.6,0,0,1-3.69,3.26,7.57,7.57,0,0,1-2.06.3,7.93,7.93,0,0,1-5.8-2.11,9.24,9.24,0,0,1-1.95-2.49h0a9.92,9.92,0,0,1-.84-7.22c.92-3.7,4.47-5.92,7.51-7.18a26.42,26.42,0,0,1,2.55-.89,20.09,20.09,0,0,1,2.21-.54c.37,2.79,4.85,4.23,4.62,6.19s-3.06,6.62-2.37,8.13A1.17,1.17,0,0,1,349.33,293Z" style="fill:url(#linear-gradient-13)"/><path d="M349.22,292.65a1.17,1.17,0,0,1,.11.36l-1.13.18a28.5,28.5,0,0,0,1.37-4.64c.31-1.89-1.06-5.07-3.11-7a5.55,5.55,0,0,1-1.7-2.67,20.09,20.09,0,0,1,2.21-.54c.37,2.79,4.85,4.23,4.62,6.19S348.53,291.14,349.22,292.65Z" style="opacity:0.45;mix-blend-mode:overlay;fill:url(#linear-gradient-14)"/><path d="M345.35,298.46l-.42,2.33-2.6,3.5a3,3,0,0,1-.43.73h0c-.39.49-1,.88-1.81-.1a4.44,4.44,0,0,0-1.74-1.21c-1.62-.74-3.71-1.21-4.78-2.54a4.29,4.29,0,0,0,.72-.33,6.66,6.66,0,0,0,2.34-2.39,9,9,0,0,0,.86-1.81,7.93,7.93,0,0,0,5.8,2.11A7.57,7.57,0,0,0,345.35,298.46Z" style="fill:url(#linear-gradient-15)"/><path d="M345.35,298.46l-.42,2.33-2.6,3.5a3,3,0,0,1-.43.73h0c-.39.49-1,.88-1.81-.1a4.44,4.44,0,0,0-1.74-1.21,5.36,5.36,0,0,0,0-2.86,5.91,5.91,0,0,0-1.77-2.4,9,9,0,0,0,.86-1.81,7.93,7.93,0,0,0,5.8,2.11A7.57,7.57,0,0,0,345.35,298.46Z" style="opacity:0.45;mix-blend-mode:overlay;fill:url(#linear-gradient-16)"/><path d="M361.73,279.54c-.37,3,1.6,5.26.93,7.95-.59,2.35-9.63,7-13.62,7.71a3.47,3.47,0,0,0,.18-2.55c-.69-1.51,2.15-6.12,2.37-8.13s-4.25-3.4-4.62-6.19a9.62,9.62,0,0,1-2.25-4.35c-.69-2.86-.21-6.08,2.25-7.86,3.9-2.83,8.37-1.41,10,.37s1.09,2.51,1.59,3.1,3.52-1.87,5.57.92c1.11,1.49.44,3.14-.46,4.8C362.86,276.74,361.9,278.18,361.73,279.54Z" style="fill:#3d1616"/><path d="M362.66,287.49c-.59,2.35-9.63,7-13.62,7.71a3.47,3.47,0,0,0,.18-2.55c-.69-1.51,2.15-6.12,2.37-8.13s-4.25-3.4-4.62-6.19a9.62,9.62,0,0,1-2.25-4.35,23.73,23.73,0,0,0,4.09,2c4.75,1.91,5.93,2.28,7.58,5,1.47,2.45,1.92-5.72,7.25-5.74-.78,1.43-1.74,2.87-1.91,4.23C361.36,282.51,363.33,284.8,362.66,287.49Z" style="opacity:0.45;mix-blend-mode:overlay;fill:url(#linear-gradient-17)"/><path d="M335.18,313.1c-9.72,6-18.87,11.86-18.87,11.86a5.5,5.5,0,0,0-2.37,4.14l-.06,0c.72-18.32,13.75-24.7,20.29-23.59C337,306,336,310.36,335.18,313.1Z" style="fill:url(#linear-gradient-18)"/><path d="M338,323.48c-3.73.31-17.31,1.29-11.14-1.78,7.12-3.53,7.3-14.72,5.57-17.37a2.79,2.79,0,0,1,.13-3.77c.64.08,1.23.18,1.78.29a4.29,4.29,0,0,1-.72.33c1.55,1.92,5.2,2.06,6.52,3.75.78,1,1.42.59,1.81.1C343.47,308.91,341.2,316.82,338,323.48Z" style="opacity:0.45;mix-blend-mode:overlay;fill:url(#linear-gradient-19)"/><path d="M300.26,309.4a26.87,26.87,0,0,1-4.58.5l-1.68,0s-3.1,1.32-2.86,3.63c.22,2.13-.79,7.12-2,7.31a.59.59,0,0,1-.31-.06c-1.32-.74.05-4.57-.74-4.35-.33.09-1.05,1.77-1.87,3.77h0c-1.14,2.78-2.47,6.16-3.18,6.65a.83.83,0,0,1-1.2-.16,4.25,4.25,0,0,1-.61-.83,13.41,13.41,0,0,0-.86-1.38.34.34,0,0,0-.08-.09,2.47,2.47,0,0,0-.72-.41,6.66,6.66,0,0,1-.91-.42,2.15,2.15,0,0,1-.92-1,5.54,5.54,0,0,1-.11-3.38,23.45,23.45,0,0,1,3.34-7.86,17.8,17.8,0,0,1,1.5-2c1.76-2,3.88-3.49,6.17-3.52a22.63,22.63,0,0,1,8.84,2.17A27.23,27.23,0,0,1,300.26,309.4Z" style="fill:url(#linear-gradient-20)"/><path d="M265.64,308.07c-1.76.64-8.49,5.49-11.74,15.76a39.34,39.34,0,0,0-1.77,10.72c-37.43,3.41-43.89-20.33-55.7-20-10.9.34-36.11,10.94-42.13,11.32a2.17,2.17,0,0,1-1.08-.12,9.63,9.63,0,0,1-2.49-2.83,65.09,65.09,0,0,1-5.43-10.51,9.25,9.25,0,0,1-.72-2.37c0-1.4,3.15-4.3,23.89-12.6h0c4.39-1.76,9.56-3.75,15.65-6-.82-.17-4.53-.51-9.06-1-8.31-.91-19.37-2.34-20.4-4.23a4.42,4.42,0,0,1-.38-1.25,11.2,11.2,0,0,1-.14-1.27,45.17,45.17,0,0,1,1.58-12.62c.31-1,.62-1.65.89-1.78,1.34-.61,18.81.25,50.76,6.46S265.64,308.07,265.64,308.07Z" style="fill:url(#linear-gradient-21)"/><path d="M155.72,271.15a45.34,45.34,0,0,0-1.56,12.55,27.15,27.15,0,0,0-11-.06c-2.43.41-4.18.83-4.88.42-1.6-.94-1.31-3.44-.46-6.88s0-12.44.34-16.81.09-9.21,2.54-9.38a2,2,0,0,1,1.89.79h0c.47.63.64,1.42,1.29,1.54l.12,0c1.27.08,2.55,1.08,2.62,3.57s2.89,12,4.49,13a13.65,13.65,0,0,0,4.68,1.2A.19.19,0,0,1,155.72,271.15Z" style="fill:url(#linear-gradient-22)"/><path d="M150.73,323a18.86,18.86,0,0,0-6,4.7,20.3,20.3,0,0,1-2.75,2.61c-.74.52-1.39.64-2,.14-2.5-2.13-15.29-16.49-15.77-20.21a14.88,14.88,0,0,1,.5-6.31,3.4,3.4,0,0,1,1.69-2.27,3.91,3.91,0,0,0,.89-.42,2,2,0,0,0,.29-.18,2.74,2.74,0,0,1,2.47-.62c2.26.25,5.18,8.1,6.58,9.44,1.09,1,3.65,3.11,6.76,3a6.84,6.84,0,0,0,1.93-.37A65.09,65.09,0,0,0,150.73,323Z" style="fill:url(#linear-gradient-23)"/><path d="M363.82,291.09c-1.41,4.3-13.06,22.29-21.49,23.48a5.13,5.13,0,0,1-4.93-1.93c-2.35-2.79,15-28.95,20.64-28.85,4.26.07,6.12.9,6.48,2.85A9.89,9.89,0,0,1,363.82,291.09Z" style="fill:url(#linear-gradient-24)"/><path d="M364.52,286.64c-.42,0-.86,0-1.34-.05-5.29-.1-20.72,22.66-20.85,28a5.13,5.13,0,0,1-4.93-1.93c-2.35-2.79,15-28.95,20.64-28.85C362.3,283.86,364.16,284.69,364.52,286.64Z" style="opacity:0.45;mix-blend-mode:overlay;fill:url(#linear-gradient-25)"/><path d="M325.8,338.93c-8.94.26-12.38-5.45-11.86-9.83a6.85,6.85,0,0,1,.13-.81,5.31,5.31,0,0,1,2.24-3.33s9.15-5.85,18.87-11.86,21.89-12.24,24.13-12.88h0C363.68,299.1,338.28,338.57,325.8,338.93Z" style="fill:url(#linear-gradient-26)"/><path d="M240.87,307.28c-4.5-.65-13.73-5.81-21.45-10.43-5.22-3.13-9.75-6-11.66-7.1-4.75-2.68-11-2.43-23.62,1.71l-.09,0-.1,0-.25,0c-.41-.06-1-.13-1.78-.21l-.79-.09-1.07-.11-1-.11-.47-.05-1.38-.15h0l-1.09-.11-1-.11c-8.31-.91-19.37-2.34-20.4-4.23a4.42,4.42,0,0,1-.38-1.25c3.07,0,7.56.24,11.22-.74,6.08-1.64,7.42,2.36,15.34-.44l.7-.24c7.36-2.34,10,1.16,16.34-.49,6.57-1.7,10.59,3.9,16.31,4a5.28,5.28,0,0,1,.9.09c4.95.74,6.22,6.68,11.51,7.95C232.22,296.45,233.32,302.29,240.87,307.28Z" style="opacity:0.45;mix-blend-mode:overlay;fill:url(#linear-gradient-27)"/><path d="M253.9,323.83a39.34,39.34,0,0,0-1.77,10.72c-37.43,3.41-43.89-20.33-55.7-20-10.9.34-36.11,10.94-42.13,11.32,4.25-4.73,14.38-6.21,18.4-9.46s6-1,13.76-2.47,2.92-4.5,8.76-5.36,4,4.14,9.89,4.38,6.3,8.4,13.6,9.17,9.86,7.27,16.56,7,12.17,4,16.35-2.06C252.44,325.9,253.19,324.82,253.9,323.83Z" style="opacity:0.45;mix-blend-mode:overlay;fill:url(#linear-gradient-28)"/><path d="M302.36,308.9c-1.24,1.57-2.63,3-5.09,3a7.35,7.35,0,0,0-6.14,3.25,8.7,8.7,0,0,0,0-1.61c-.24-2.31,2.86-3.63,2.86-3.63l1.68,0a26.87,26.87,0,0,0,4.58-.5C301,309.25,301.68,309.09,302.36,308.9Z" style="opacity:0.45;mix-blend-mode:overlay;fill:url(#linear-gradient-29)"/><path d="M325.8,338.93c-8.94.26-12.38-5.45-11.86-9.83a6.85,6.85,0,0,1,.13-.81c.44,2.69,2.18,6.57,9.36,6.59,9.72,0,30.52-23.93,35.9-34.66C363.68,299.1,338.28,338.57,325.8,338.93Z" style="opacity:0.45;mix-blend-mode:overlay;fill:url(#linear-gradient-30)"/><path d="M341.5,290.87c-.79.85-1.86,1.12-2.39.62s-.34-1.59.45-2.43,1.87-1.12,2.4-.62S342.29,290,341.5,290.87Z" style="fill:#fff"/><path d="M344.22,281.69a2.42,2.42,0,0,1,1.87,2.9" style="fill:none;stroke:#3d1616;stroke-miterlimit:10;stroke-width:0.512276px"/><path d="M342.21,279.76a33,33,0,0,0-2.44,2.48c-1.46,1.61-1.95.82-2.59,2.86s-1.58,1.73-1.85,3.22.41,2.56,0,3.59a4.71,4.71,0,0,0,.18,2.25,9.92,9.92,0,0,1-.84-7.22C335.62,283.24,339.17,281,342.21,279.76Z" style="opacity:0.45;mix-blend-mode:overlay;fill:url(#linear-gradient-31)"/><path d="M278.76,320.74a6.62,6.62,0,0,0-.1,2.85,2.15,2.15,0,0,1-.92-1c.5-2.75,2.34-5.91,2.48-5.71S279.45,318.28,278.76,320.74Z" style="opacity:0.45;mix-blend-mode:overlay;fill:url(#linear-gradient-32)"/><path d="M280.29,324.42a2.47,2.47,0,0,0-.72-.41,18.52,18.52,0,0,1,1.5-4.48c.39-.61,1-1.57,1-.89A8.19,8.19,0,0,0,280.29,324.42Z" style="opacity:0.45;mix-blend-mode:overlay;fill:url(#linear-gradient-33)"/><path d="M282.21,323.5a8.4,8.4,0,0,0-.37,3.22,4.25,4.25,0,0,1-.61-.83c.29-.72.59-2.57.84-3.62.32-1.33,1.37-3.22,1.6-3.08S282.9,320.88,282.21,323.5Z" style="opacity:0.45;mix-blend-mode:overlay;fill:url(#linear-gradient-34)"/><path d="M289.15,320.86a.59.59,0,0,1-.31-.06c-1.32-.74.05-4.57-.74-4.35-.33.09-1.05,1.77-1.87,3.77,0-.26.88-4.48,2-4.64S288.39,319.43,289.15,320.86Z" style="opacity:0.45;mix-blend-mode:overlay;fill:url(#linear-gradient-35)"/><path d="M297.48,308c-2.12,1-6.49-1.2-8.33-1.32-2-.12-4.55,1.35-5.83,2.62a29.8,29.8,0,0,1-2.35,2.06,17.8,17.8,0,0,1,1.5-2c1.76-2,3.88-3.49,6.17-3.52A22.63,22.63,0,0,1,297.48,308Z" style="opacity:0.45;mix-blend-mode:overlay;fill:url(#linear-gradient-36)"/><path d="M148.6,317.28S189,300,200.27,299.21s30.13,20.57,44.74,22.2" style="fill:none;stroke:#fff;stroke-miterlimit:10;stroke-width:0.512276px;opacity:0.54;mix-blend-mode:overlay"/><path d="M156.51,278.92s42.73,1.6,52.59,5.3,28.47,20.26,34.14,21.6" style="fill:none;stroke:#fff;stroke-miterlimit:10;stroke-width:0.512276px;opacity:0.54;mix-blend-mode:overlay"/><path d="M219.42,296.85c-6.92.17-10.57-5.37-13.12-5.12-2.83.28-3.84-.91-10.32-.82s-9.59,2.37-16.07,4.09c-6.25,1.65-11.09,2.43-11.42,2.48,4.39-1.76,9.56-3.75,15.65-6,12.66-4.14,18.87-4.39,23.62-1.71C209.67,290.83,214.2,293.72,219.42,296.85Z" style="opacity:0.45;mix-blend-mode:overlay;fill:url(#linear-gradient-37)"/><path d="M154.16,283.7a27.15,27.15,0,0,0-11-.06c1.62-1.78,3.65-1.76,4.94-4.37,1.55-3.15,2.78-1,4.61-4.38a10.59,10.59,0,0,1,3.06-3.74A45.34,45.34,0,0,0,154.16,283.7Z" style="opacity:0.45;mix-blend-mode:overlay;fill:url(#linear-gradient-38)"/><path d="M150.73,323a18.86,18.86,0,0,0-6,4.7c.59-4.84-3.14-6.08-2-9.82a16.89,16.89,0,0,0,.71-5,6.84,6.84,0,0,0,1.93-.37A65.09,65.09,0,0,0,150.73,323Z" style="opacity:0.45;mix-blend-mode:overlay;fill:url(#linear-gradient-39)"/><path d="M127.27,301.2a2,2,0,0,0,.29-.18s2.14.48,2.87,3.68C130.05,305.07,128.69,302,127.27,301.2Z" style="opacity:0.45;mix-blend-mode:overlay;fill:url(#linear-gradient-40)"/><path d="M141.94,330.27c-.74.52-1.39.64-2,.14-2.5-2.13-15.29-16.49-15.77-20.21a14.88,14.88,0,0,1,.5-6.31,3.71,3.71,0,0,0,.26,1.23c.73,1.8,1.92,3.81,2.22,6.6s14.61,14.13,14.67,17.72A4.49,4.49,0,0,0,141.94,330.27Z" style="opacity:0.45;mix-blend-mode:overlay;fill:url(#linear-gradient-41)"/><path d="M143.53,256.44a14.41,14.41,0,0,0-1-4.66c.47.63.64,1.42,1.29,1.54C144.53,256.22,143.49,258.29,143.53,256.44Z" style="opacity:0.45;mix-blend-mode:overlay;fill:url(#linear-gradient-42)"/><path d="M389.88,331.63q-.25.4-.54.81l-40.93,57.42a14.78,14.78,0,0,1-25.55-14.55l1.33-3c5.57-1.25,11.68-1.4,16.34-8.37,8.43-12.6,17.87-4.57,26.63-17.53C373.35,337.26,384.1,333.21,389.88,331.63Z" style="opacity:0.45;mix-blend-mode:overlay;fill:url(#linear-gradient-43)"/><rect x="256.25" y="160.41" width="65.19" height="90.58" style="fill:#fff"/><rect x="265.08" y="172.68" width="47.53" height="66.04" style="fill:url(#linear-gradient-44)"/><path d="M276,160.41l11.81-29.53a1.12,1.12,0,0,1,2.06,0l12.43,29.55" style="fill:none;stroke:#fff;stroke-miterlimit:10;stroke-width:1.5368300000000001px"/><rect x="202.16" y="160.79" width="34.53" height="47.98" style="fill:#fff"/><rect x="206.83" y="167.29" width="25.17" height="34.98" style="fill:url(#linear-gradient-45)"/><path d="M212.63,160.79l6.26-15.64a.59.59,0,0,1,1.09,0l6.58,15.65" style="fill:none;stroke:#fff;stroke-miterlimit:10;stroke-width:0.8140529999999999px"/><path d="M422.81,303S397.19,279.33,395,272.16s3.8-2.33,1.71-7.39-7.52.53-11.4-9.55,2-6.18,2.52-10.21-3.18.1-7.18-8.54,2.49-24.09,2.49-24.09,13.84,15.11,12.59,20-3.43,6.48-1.44,8.2,4.45-5.38,7.73-.58,6.4,20.87,4.83,23.13,1.9,3.38,4,2.09S428.07,297.23,422.81,303Z" style="fill:url(#linear-gradient-46)"/><path d="M409.43,305.62a57,57,0,0,1,6.26-29.52c7.82-15,1.34-25.26,6.93-33.31s1.79-22.58,8.72-30.41c8.94,23.92-4.47,29-3.8,44.12s-2.59,19.83-7.22,31,4.09,20.8-1.28,25.27Z" style="fill:url(#linear-gradient-47)"/><path d="M410.35,292.58s-9.43-33.19.39-66.88C417.54,250.53,428.74,284.45,410.35,292.58Z" style="fill:url(#linear-gradient-48)"/><path d="M431.68,281.22l-3.19,63.08A78.38,78.38,0,0,1,399,361.5L395,281.22Z" style="fill:url(#linear-gradient-49)"/><rect x="98.6" y="176.23" width="21.91" height="8.55" style="fill:#fff"/><rect x="122.04" y="187.18" width="21.91" height="8.55" style="fill:#fff"/><rect x="122.04" y="165.76" width="21.91" height="8.55" style="fill:#fff"/><rect x="374.29" y="186.94" width="21.91" height="8.55" transform="translate(770.5 382.43) rotate(180)" style="fill:#fff"/><rect x="350.85" y="197.89" width="21.91" height="8.55" transform="translate(723.61 404.34) rotate(180)" style="fill:#fff"/><rect x="350.85" y="176.47" width="21.91" height="8.55" transform="translate(723.61 361.49) rotate(180)" style="fill:#fff"/><rect x="78.69" y="273.63" width="15.94" height="6.22" style="fill:#fff"/><rect x="95.74" y="281.6" width="15.94" height="6.22" style="fill:#fff"/><rect x="95.74" y="266.02" width="15.94" height="6.22" style="fill:#fff"/></g></g></svg>