<svg xmlns="http://www.w3.org/2000/svg" xmlns:xlink="http://www.w3.org/1999/xlink" viewBox="0 0 107.42 64.02"><defs><style>.cls-1{isolation:isolate;}.cls-2{fill:url(#linear-gradient);}.cls-3{fill:url(#linear-gradient-2);}.cls-4{fill:#ebecee;}.cls-5{fill:#cccfd2;}.cls-6{fill:url(#linear-gradient-3);}.cls-7{fill:url(#linear-gradient-4);}.cls-8{fill:url(#linear-gradient-5);}.cls-9{fill:url(#linear-gradient-6);}.cls-10{fill:url(#linear-gradient-7);}.cls-11{fill:url(#linear-gradient-8);}.cls-12{fill:url(#linear-gradient-9);}.cls-13,.cls-22,.cls-35{fill:#999fa3;}.cls-13,.cls-35{opacity:0.3;}.cls-13,.cls-20,.cls-43{mix-blend-mode:multiply;}.cls-14{fill:url(#linear-gradient-10);}.cls-15{fill:url(#linear-gradient-11);}.cls-16{fill:url(#linear-gradient-12);}.cls-17{fill:#d5d8db;}.cls-18{fill:#5f6263;}.cls-19{fill:#bbc0c2;}.cls-20{fill:#3f4146;}.cls-21{fill:url(#linear-gradient-13);}.cls-23{fill:#9ca2a2;}.cls-24{fill:#8a9293;opacity:0.9;}.cls-25{fill:#e1e6e6;}.cls-25,.cls-43{opacity:0.5;}.cls-26{fill:#2b2927;}.cls-27{fill:url(#linear-gradient-14);}.cls-28{fill:#e0e5e5;}.cls-29{fill:#c5cbcb;}.cls-30{fill:#929696;}.cls-31{fill:#aaafaf;}.cls-32{fill:#6a6d6d;}.cls-33{fill:url(#linear-gradient-15);}.cls-34{fill:url(#linear-gradient-16);}.cls-36{fill:url(#linear-gradient-17);}.cls-37{fill:#898d8e;}.cls-38{fill:#a9afb4;}.cls-39{fill:url(#linear-gradient-18);}.cls-40{fill:url(#linear-gradient-19);}.cls-41{fill:url(#linear-gradient-20);}.cls-42{opacity:0.6;fill:url(#linear-gradient-21);}.cls-43{fill:#cacdcf;}.cls-44{fill:url(#linear-gradient-22);}.cls-45{fill:#c5c9cb;opacity:0.4;}</style><linearGradient id="linear-gradient" x1="217.43" y1="400.83" x2="216.68" y2="402.13" gradientUnits="userSpaceOnUse"><stop offset="0" stop-color="#ecedef"/><stop offset="0.17" stop-color="#e8e9eb"/><stop offset="0.33" stop-color="#dcdee0"/><stop offset="0.5" stop-color="#c8cbce"/><stop offset="0.67" stop-color="#abb0b4"/><stop offset="0.76" stop-color="#999fa3"/><stop offset="0.88" stop-color="#9ca2a6"/><stop offset="0.98" stop-color="#a7adb0"/><stop offset="1" stop-color="#abb1b3"/></linearGradient><linearGradient id="linear-gradient-2" x1="32.68" y1="49.51" x2="35.24" y2="49.51" gradientUnits="userSpaceOnUse"><stop offset="0" stop-color="#999fa3"/><stop offset="0.55" stop-color="#9da3a7"/><stop offset="1" stop-color="#a6acaf"/></linearGradient><linearGradient id="linear-gradient-3" x1="213.59" y1="403.04" x2="212.84" y2="404.34" xlink:href="#linear-gradient"/><linearGradient id="linear-gradient-4" x1="28.84" y1="51.72" x2="31.4" y2="51.72" xlink:href="#linear-gradient-2"/><linearGradient id="linear-gradient-5" x1="265.82" y1="372.89" x2="265.07" y2="374.19" xlink:href="#linear-gradient"/><linearGradient id="linear-gradient-6" x1="81.07" y1="21.57" x2="83.63" y2="21.57" xlink:href="#linear-gradient-2"/><linearGradient id="linear-gradient-7" x1="261.98" y1="375.11" x2="261.23" y2="376.41" xlink:href="#linear-gradient"/><linearGradient id="linear-gradient-8" x1="77.23" y1="23.79" x2="79.79" y2="23.79" xlink:href="#linear-gradient-2"/><linearGradient id="linear-gradient-9" x1="224.89" y1="396.92" x2="222.9" y2="400.38" gradientUnits="userSpaceOnUse"><stop offset="0" stop-color="#ecedef"/><stop offset="0.36" stop-color="#d8dadc"/><stop offset="1" stop-color="#abb1b3"/></linearGradient><linearGradient id="linear-gradient-10" x1="38.45" y1="44.29" x2="42.33" y2="44.29" xlink:href="#linear-gradient-2"/><linearGradient id="linear-gradient-11" x1="258.18" y1="377.71" x2="256.18" y2="381.16" xlink:href="#linear-gradient-9"/><linearGradient id="linear-gradient-12" x1="71.74" y1="25.07" x2="75.61" y2="25.07" xlink:href="#linear-gradient-2"/><linearGradient id="linear-gradient-13" x1="240.47" y1="373.62" x2="236.18" y2="381.04" gradientUnits="userSpaceOnUse"><stop offset="0" stop-color="#ecedef"/><stop offset="0.14" stop-color="#e1e3e5"/><stop offset="0.71" stop-color="#babfc1"/><stop offset="1" stop-color="#abb1b3"/></linearGradient><linearGradient id="linear-gradient-14" x1="247.77" y1="400.94" x2="249.29" y2="403.56" gradientUnits="userSpaceOnUse"><stop offset="0" stop-color="#494644"/><stop offset="0.08" stop-color="#4f4c4a"/><stop offset="0.31" stop-color="#5d5957"/><stop offset="0.5" stop-color="#625e5c"/><stop offset="0.92" stop-color="#4e4a48"/><stop offset="1" stop-color="#494644"/></linearGradient><linearGradient id="linear-gradient-15" x1="246.39" y1="401.73" x2="247.91" y2="404.36" xlink:href="#linear-gradient-14"/><linearGradient id="linear-gradient-16" x1="248.21" y1="382.65" x2="240.55" y2="395.92" xlink:href="#linear-gradient-13"/><linearGradient id="linear-gradient-17" x1="225.25" y1="382.4" x2="220.96" y2="389.82" xlink:href="#linear-gradient-13"/><linearGradient id="linear-gradient-18" x1="223.95" y1="378.37" x2="200.03" y2="419.81" gradientUnits="userSpaceOnUse"><stop offset="0" stop-color="#e4e5e7"/><stop offset="0.53" stop-color="#ebecee"/></linearGradient><linearGradient id="linear-gradient-19" x1="275.1" y1="345.13" x2="248.36" y2="391.44" gradientUnits="userSpaceOnUse"><stop offset="0.56" stop-color="#ebecee"/><stop offset="0.63" stop-color="#e9eaec"/><stop offset="1" stop-color="#e4e5e7"/></linearGradient><linearGradient id="linear-gradient-20" x1="245.01" y1="382.26" x2="241.39" y2="388.52" gradientUnits="userSpaceOnUse"><stop offset="0" stop-color="#e6e8ea"/><stop offset="0.3" stop-color="#ebecee"/><stop offset="0.53" stop-color="#e1e3e5"/><stop offset="0.93" stop-color="#c7cbcd"/><stop offset="1" stop-color="#c2c6c8"/></linearGradient><linearGradient id="linear-gradient-21" x1="247.3" y1="392.49" x2="264.25" y2="392.49" gradientUnits="userSpaceOnUse"><stop offset="0" stop-color="#8ea3b9"/><stop offset="0.28" stop-color="#7d91a7"/><stop offset="0.85" stop-color="#4f6278"/><stop offset="1" stop-color="#42546a"/></linearGradient><linearGradient id="linear-gradient-22" x1="46.9" y1="19.96" x2="54.93" y2="2.34" gradientUnits="userSpaceOnUse"><stop offset="0" stop-color="#999fa3"/><stop offset="0.07" stop-color="#9ca2a6"/><stop offset="0.65" stop-color="#b5b9bd"/><stop offset="1" stop-color="#bec2c5"/></linearGradient></defs><title>Plane</title><g class="cls-1"><g id="_0" data-name="0"><g id="_12" data-name="12"><path class="cls-2" d="M221,402.89l-8.72-5a.41.41,0,0,0-.38,0,1.15,1.15,0,0,0-.52.93.36.36,0,0,0,.15.33l8.71,5c1.07.59,2.39.88,2.38.37S221.88,403.41,221,402.89Z" transform="translate(-181.67 -349.18)"/><g class="cls-1"><polygon class="cls-3" points="35.24 51.87 32.69 50.38 32.68 47.14 35.24 48.63 35.24 51.87"/><polygon class="cls-4" points="35.24 48.63 32.68 47.14 33.1 46.9 35.66 48.39 35.24 48.63"/><polygon class="cls-5" points="35.66 48.39 35.66 51.63 35.24 51.87 35.24 48.63 35.66 48.39"/></g><path class="cls-6" d="M217.16,405.1l-8.72-5a.36.36,0,0,0-.38,0,1.13,1.13,0,0,0-.52.92.37.37,0,0,0,.15.34l8.71,5c1.06.59,2.39.87,2.37.36S218,405.63,217.16,405.1Z" transform="translate(-181.67 -349.18)"/><g class="cls-1"><polygon class="cls-7" points="31.4 54.09 28.84 52.6 28.84 49.36 31.4 50.85 31.4 54.09"/><polygon class="cls-4" points="31.4 50.85 28.84 49.36 29.26 49.12 31.81 50.61 31.4 50.85"/><polygon class="cls-5" points="31.81 50.61 31.82 53.85 31.4 54.09 31.4 50.85 31.81 50.61"/></g><path class="cls-8" d="M269.38,375l-8.71-5a.38.38,0,0,0-.39,0,1.19,1.19,0,0,0-.52.92.36.36,0,0,0,.16.34l8.71,5c1.06.58,2.39.87,2.37.36S270.26,375.48,269.38,375Z" transform="translate(-181.67 -349.18)"/><g class="cls-1"><polygon class="cls-9" points="83.63 23.94 81.07 22.45 81.07 19.21 83.62 20.7 83.63 23.94"/><polygon class="cls-4" points="83.62 20.7 81.07 19.21 81.48 18.97 84.04 20.46 83.62 20.7"/><polygon class="cls-5" points="84.04 20.46 84.04 23.7 83.63 23.94 83.62 20.7 84.04 20.46"/></g><path class="cls-10" d="M265.54,377.17l-8.72-5a.39.39,0,0,0-.38.05,1.17,1.17,0,0,0-.52.92.36.36,0,0,0,.16.34l8.71,5c1.06.58,2.39.87,2.37.36S266.42,377.69,265.54,377.17Z" transform="translate(-181.67 -349.18)"/><g class="cls-1"><polygon class="cls-11" points="79.78 26.15 77.23 24.66 77.23 21.43 79.78 22.91 79.78 26.15"/><polygon class="cls-4" points="79.78 22.91 77.23 21.43 77.64 21.18 80.2 22.67 79.78 22.91"/><polygon class="cls-5" points="80.2 22.67 80.2 25.91 79.78 26.15 79.78 22.91 80.2 22.67"/></g><g class="cls-1"><g class="cls-1"><g class="cls-1"><path class="cls-12" d="M230.53,401.89c-.1-1.09-1.08-2.23-2.83-3.29l-8.32-4.86a1,1,0,0,0-1,.11,3.05,3.05,0,0,0-1.36,2.42,1,1,0,0,0,.4.87c9.7,5.6,9,5.51,10.77,5.81.85.15,2.29.21,2.36-1.06Z" transform="translate(-181.67 -349.18)"/><path class="cls-4" d="M229.59,401.14c-.88-.41-.43,1,.39,1.05C230.33,402.2,230.32,401.48,229.59,401.14Z" transform="translate(-181.67 -349.18)"/></g></g></g><path class="cls-13" d="M219.19,398.23a1,1,0,0,1-.41-.87,3.08,3.08,0,0,1,1.37-2.42,1,1,0,0,1,1-.13l-.31-.24a1,1,0,0,0-1,.11,3.09,3.09,0,0,0-1.37,2.42,1,1,0,0,0,.41.87Z" transform="translate(-181.67 -349.18)"/><path class="cls-13" d="M223.67,400.81a1,1,0,0,1-.41-.86,3,3,0,0,1,1.37-2.42,1,1,0,0,1,1-.14s-.29-.22-.32-.23a1,1,0,0,0-1,.11,3.08,3.08,0,0,0-1.37,2.42,1,1,0,0,0,.41.86Z" transform="translate(-181.67 -349.18)"/><g class="cls-1"><polygon class="cls-14" points="42.33 48.2 38.46 45.94 38.45 40.38 42.33 42.63 42.33 48.2"/><polygon class="cls-4" points="42.33 42.63 38.45 40.38 39.08 40.01 42.95 42.27 42.33 42.63"/><polygon class="cls-5" points="42.95 42.27 42.96 47.83 42.33 48.2 42.33 42.63 42.95 42.27"/></g><g class="cls-1"><g class="cls-1"><g class="cls-1"><path class="cls-15" d="M263.81,382.67c-.1-1.09-1.08-2.22-2.83-3.29l-8.32-4.86a1,1,0,0,0-1,.11,3.09,3.09,0,0,0-1.37,2.43,1,1,0,0,0,.41.86c9.69,5.6,9,5.51,10.76,5.82.86.15,2.3.2,2.36-1.06C263.82,382.86,263.82,382.86,263.81,382.67Z" transform="translate(-181.67 -349.18)"/><path class="cls-4" d="M262.87,381.92c-.88-.41-.43,1,.4,1.05C263.61,383,263.61,382.27,262.87,381.92Z" transform="translate(-181.67 -349.18)"/></g></g></g><path class="cls-13" d="M252.47,379a1,1,0,0,1-.4-.87,3.05,3.05,0,0,1,1.36-2.42,1.06,1.06,0,0,1,1-.13l-.31-.24a1,1,0,0,0-1,.11,3.05,3.05,0,0,0-1.36,2.42,1,1,0,0,0,.4.87Z" transform="translate(-181.67 -349.18)"/><path class="cls-13" d="M257,381.6a1,1,0,0,1-.4-.87,3,3,0,0,1,1.36-2.42,1,1,0,0,1,1-.13l-.31-.24a1,1,0,0,0-1,.11,3,3,0,0,0-1.36,2.42,1,1,0,0,0,.4.87Z" transform="translate(-181.67 -349.18)"/><g class="cls-1"><polygon class="cls-16" points="75.61 28.98 71.74 26.72 71.74 21.16 75.61 23.42 75.61 28.98"/><polygon class="cls-4" points="75.61 23.42 71.74 21.16 72.37 20.8 76.24 23.05 75.61 23.42"/><polygon class="cls-5" points="76.24 23.05 76.24 28.62 75.61 28.98 75.61 23.42 76.24 23.05"/></g><g class="cls-1"><polygon class="cls-17" points="63.03 11.76 63.03 12.24 53.61 24.15 53.61 23.67 63.03 11.76"/><polygon class="cls-18" points="53.61 23.67 53.61 24.15 45.54 19.5 45.54 19.02 53.61 23.67"/><polygon class="cls-4" points="63.03 11.76 53.61 23.67 45.54 19.02 61.18 10.69 63.03 11.76"/></g><path class="cls-19" d="M254.1,382.43l-3,1.75a4.33,4.33,0,0,0-2,3.39c0,1.24.88,1.74,2,1.12l3-1.76a4.3,4.3,0,0,0,1.95-3.38C256.06,382.3,255.18,381.8,254.1,382.43Z" transform="translate(-181.67 -349.18)"/><path class="cls-20" d="M250.19,388.51c-.58,0-.65-.66-.65-.94a3.85,3.85,0,0,1,1.73-3l3-1.76a1.33,1.33,0,0,1,.66-.21c.58,0,.64.66.64.95a3.8,3.8,0,0,1-1.73,3l-3,1.76A1.3,1.3,0,0,1,250.19,388.51Z" transform="translate(-181.67 -349.18)"/><path class="cls-21" d="M226.51,366.72a1.55,1.55,0,0,0-1.57.16,4.83,4.83,0,0,0-2.2,3.8,1.54,1.54,0,0,0,.64,1.41h0c5.45,4.15,15.7,10.58,21.63,14l4.66,2.71a1.36,1.36,0,0,1-.57-1.25,4.33,4.33,0,0,1,2-3.39l3-1.75a1.36,1.36,0,0,1,1.39-.14l-3-1.7Z" transform="translate(-181.67 -349.18)"/><path class="cls-22" d="M252.53,380.59l-4-2.11c-1.72,2.22-3.36,4.5-4.88,6.86l1.32.77,4.66,2.71a1.36,1.36,0,0,1-.57-1.25,4.33,4.33,0,0,1,2-3.39l3-1.75a1.36,1.36,0,0,1,1.39-.14Z" transform="translate(-181.67 -349.18)"/><path class="cls-23" d="M247.87,401.77c-.41-.24-.75,0-.75.43a1.64,1.64,0,0,0,.75,1.29c.41.24.75,0,.75-.43A1.67,1.67,0,0,0,247.87,401.77Z" transform="translate(-181.67 -349.18)"/><path class="cls-24" d="M247.87,402a.46.46,0,0,0-.35-.06.45.45,0,0,0-.11.33,1.25,1.25,0,0,0,.57,1,.46.46,0,0,0,.35.06.45.45,0,0,0,.12-.33A1.3,1.3,0,0,0,247.87,402Z" transform="translate(-181.67 -349.18)"/><path class="cls-25" d="M248,403.23a1.25,1.25,0,0,1-.57-1,.45.45,0,0,1,.11-.33.36.36,0,0,0-.23.39,1.27,1.27,0,0,0,.58,1,.37.37,0,0,0,.46,0A.46.46,0,0,1,248,403.23Z" transform="translate(-181.67 -349.18)"/><path class="cls-26" d="M247.88,401.4a2.36,2.36,0,0,1,1.07,1.85c0,.68-.49,1-1.08.62A2.4,2.4,0,0,1,246.8,402C246.8,401.33,247.28,401.05,247.88,401.4Zm0,2.06c.4.23.72.05.72-.41a1.56,1.56,0,0,0-.72-1.25.44.44,0,0,0-.72.41,1.59,1.59,0,0,0,.72,1.25Z" transform="translate(-181.67 -349.18)"/><path class="cls-27" d="M249.33,402.12a2.59,2.59,0,0,0-.42-.65,1.76,1.76,0,0,0-.47-.4.77.77,0,0,0-.76-.08l-.57.33a.76.76,0,0,1,.77.08,2.07,2.07,0,0,1,.47.39,2.62,2.62,0,0,1,.41.66,2,2,0,0,1,.19.8.74.74,0,0,1-.32.69l.57-.33a.75.75,0,0,0,.31-.68A2.2,2.2,0,0,0,249.33,402.12Z" transform="translate(-181.67 -349.18)"/><g class="cls-1"><path class="cls-28" d="M248.14,402.52a.54.54,0,0,0-.1-.16.52.52,0,0,0-.11-.1.19.19,0,0,0-.19,0l-.08,0a.22.22,0,0,1,.19,0,.52.52,0,0,1,.11.1.44.44,0,0,1,.1.16.45.45,0,0,1,.05.19.18.18,0,0,1-.08.17l.08-.05a.16.16,0,0,0,.08-.16A.46.46,0,0,0,248.14,402.52Z" transform="translate(-181.67 -349.18)"/><path class="cls-29" d="M247.85,402.31c-.15-.08-.27,0-.27.15a.57.57,0,0,0,.26.45c.15.09.27,0,.27-.15A.61.61,0,0,0,247.85,402.31Z" transform="translate(-181.67 -349.18)"/></g><g class="cls-1"><path class="cls-30" d="M248,391.6l-.16,11.48a.36.36,0,0,1-.16.31l.59-.34a.38.38,0,0,0,.16-.32l.16-11.48Z" transform="translate(-181.67 -349.18)"/><polygon class="cls-31" points="65.5 41.24 64.9 41.58 66.34 42.41 66.93 42.06 65.5 41.24"/><path class="cls-32" d="M246.57,390.77l.18,12.27.54.31c.3.17.54,0,.56-.27L248,391.6Z" transform="translate(-181.67 -349.18)"/></g><path class="cls-23" d="M246.49,402.57c-.41-.24-.75-.05-.75.42a1.61,1.61,0,0,0,.75,1.29c.41.24.75.05.75-.42A1.61,1.61,0,0,0,246.49,402.57Z" transform="translate(-181.67 -349.18)"/><path class="cls-24" d="M246.49,402.76a.42.42,0,0,0-.35-.06.45.45,0,0,0-.11.33,1.23,1.23,0,0,0,.57,1,.43.43,0,0,0,.35.07.45.45,0,0,0,.12-.33A1.27,1.27,0,0,0,246.49,402.76Z" transform="translate(-181.67 -349.18)"/><path class="cls-25" d="M246.6,404a1.23,1.23,0,0,1-.57-1,.45.45,0,0,1,.11-.33.36.36,0,0,0-.23.39,1.27,1.27,0,0,0,.58,1,.37.37,0,0,0,.46,0A.43.43,0,0,1,246.6,404Z" transform="translate(-181.67 -349.18)"/><path class="cls-26" d="M246.5,402.19a2.4,2.4,0,0,1,1.07,1.86c0,.68-.49,1-1.08.61a2.36,2.36,0,0,1-1.07-1.85C245.42,402.13,245.9,401.85,246.5,402.19Zm0,2.07c.4.23.72,0,.72-.42a1.56,1.56,0,0,0-.72-1.24c-.39-.23-.72-.05-.72.41a1.59,1.59,0,0,0,.72,1.25Z" transform="translate(-181.67 -349.18)"/><path class="cls-33" d="M248,402.92a2.65,2.65,0,0,0-.42-.66,1.72,1.72,0,0,0-.47-.39.74.74,0,0,0-.76-.08l-.57.33a.76.76,0,0,1,.77.07,2.44,2.44,0,0,1,.47.4,2.74,2.74,0,0,1,.41.65,2,2,0,0,1,.19.81.74.74,0,0,1-.32.69l.57-.33a.75.75,0,0,0,.31-.69A2.11,2.11,0,0,0,248,402.92Z" transform="translate(-181.67 -349.18)"/><g class="cls-1"><path class="cls-28" d="M246.76,403.32a.44.44,0,0,0-.1-.16.52.52,0,0,0-.11-.1.22.22,0,0,0-.19,0l-.08,0a.19.19,0,0,1,.19,0,.48.48,0,0,1,.11.09.7.7,0,0,1,.1.16.53.53,0,0,1,0,.2.19.19,0,0,1-.08.17l.08-.05a.19.19,0,0,0,.08-.17A.45.45,0,0,0,246.76,403.32Z" transform="translate(-181.67 -349.18)"/><path class="cls-29" d="M246.47,403.11c-.15-.08-.27,0-.27.15a.59.59,0,0,0,.26.45c.15.08.27,0,.27-.15A.57.57,0,0,0,246.47,403.11Z" transform="translate(-181.67 -349.18)"/></g><path class="cls-34" d="M265.86,397.92c-3.37-3.52-7.82-7.07-18.13-13-.4-.23-.78-.47-1.13-.72-2.33-3-4.5-5.74-8.09-7.78-4.23-2.41-11.66-5-14.46-5.08-4.24.31-7.75,3.2-9.71,6.06-.21,1.34.43.48.43,1.93a1.58,1.58,0,0,0,.67,1.46s35.15,19.16,42.69,22.38a33.75,33.75,0,0,0,13.33,3,.16.16,0,0,0,.15-.21C271.33,405,269.58,401.8,265.86,397.92Z" transform="translate(-181.67 -349.18)"/><path class="cls-35" d="M236.38,388.84a20.63,20.63,0,0,0-4.83.63c10.32,5.52,22.49,11.94,26.58,13.68a33.75,33.75,0,0,0,13.33,3,.14.14,0,0,0,.13-.11C256.72,401.89,253.72,398.85,236.38,388.84Z" transform="translate(-181.67 -349.18)"/><path class="cls-19" d="M238.88,391.21l-3,1.76a4.33,4.33,0,0,0-2,3.39c0,1.24.88,1.74,2,1.11l3-1.75a4.3,4.3,0,0,0,2-3.38C240.84,391.09,240,390.59,238.88,391.21Z" transform="translate(-181.67 -349.18)"/><path class="cls-20" d="M235,397.3c-.57,0-.64-.66-.64-.95a3.84,3.84,0,0,1,1.73-3l3-1.75a1.33,1.33,0,0,1,.66-.21c.57,0,.64.66.64.95a3.8,3.8,0,0,1-1.73,3l-3,1.76A1.3,1.3,0,0,1,235,397.3Z" transform="translate(-181.67 -349.18)"/><path class="cls-36" d="M211.28,375.51a1.57,1.57,0,0,0-1.57.15,4.87,4.87,0,0,0-2.19,3.81,1.55,1.55,0,0,0,.64,1.41h0c5.45,4.15,15.7,10.58,21.62,14l4.67,2.71a1.36,1.36,0,0,1-.57-1.25,4.33,4.33,0,0,1,2-3.39l3-1.76a1.37,1.37,0,0,1,1.39-.13Z" transform="translate(-181.67 -349.18)"/><path class="cls-22" d="M232.72,387a37,37,0,0,0-6.83,5.56c1.41.86,2.74,1.65,3.89,2.32l4.67,2.71a1.36,1.36,0,0,1-.57-1.25,4.33,4.33,0,0,1,2-3.39l3-1.76a1.37,1.37,0,0,1,1.39-.13Z" transform="translate(-181.67 -349.18)"/><g class="cls-1"><polygon class="cls-5" points="107.42 4.03 107.42 4.93 73.03 29.78 73.03 28.88 107.42 4.03"/><polygon class="cls-17" points="73.03 28.88 73.03 29.78 68.43 37.59 68.43 36.69 73.03 28.88"/></g><path class="cls-37" d="M247.2,391.6c1,.9,12.85,7.75,15.89,6.48,1.76-.74-.81-3.51-5.92-6.87-1.45-.94-3.08-2-4.48-2.92Z" transform="translate(-181.67 -349.18)"/><g class="cls-1"><polygon class="cls-38" points="61.86 40.31 60.89 41.53 48.17 44.02 48.17 43.12 61.86 40.31"/><polygon class="cls-5" points="48.17 43.12 48.17 44.02 5.37 64.02 5.37 63.12 48.17 43.12"/><polygon class="cls-22" points="5.37 63.12 5.37 64.02 0 60.93 0 60.02 5.37 63.12"/><path class="cls-39" d="M238.79,386.93a43.39,43.39,0,0,1-12.66-3.47l-44.46,25.75,5.37,3.1,42.8-20,12-2.46Z" transform="translate(-181.67 -349.18)"/><path class="cls-40" d="M283.72,350.11l-45.31,26.24a31.85,31.85,0,0,1,7.33,7.26s-2.84,2.75-5,3.32a23.06,23.06,0,0,0,2.57,1.58l1,.58,5.81-3.22,4.6-7.81,34.39-24.85Z" transform="translate(-181.67 -349.18)"/></g><g class="cls-1"><path class="cls-41" d="M252.58,386.94c.06-.05-.11-.34-.5-.6-10.24-5.89-18.65-7.43-16.43-3.86,2.37,3.8,11.15,9.16,11.14,9.15a.5.5,0,0,0,.52.09S251.79,387.67,252.58,386.94Z" transform="translate(-181.67 -349.18)"/><path class="cls-38" d="M247.31,391.19v.53l5.53-3.22s0-.11,0-.85a1.35,1.35,0,0,0-1.52-1.36,4.14,4.14,0,0,0-1.57.48A5.11,5.11,0,0,0,247.31,391.19Z" transform="translate(-181.67 -349.18)"/></g><path class="cls-42" d="M252.31,386.64c3.33,1.41,8.34,5.83,9.49,7,1,1,5.18,5.38-.35,4.83-2.51-.24-10.9-4-14.13-6.75a5.23,5.23,0,0,1,1.53-4A3.28,3.28,0,0,1,252.31,386.64Z" transform="translate(-181.67 -349.18)"/><g class="cls-1"><polygon class="cls-5" points="34 34.95 34 35.43 13.45 40.92 13.46 40.44 34 34.95"/><polygon class="cls-22" points="13.46 40.44 13.45 40.92 11.61 39.85 11.61 39.37 13.46 40.44"/><polygon class="cls-4" points="25.93 30.29 34 34.95 13.46 40.44 11.61 39.37 25.93 30.29"/></g><path class="cls-43" d="M209.71,375.66a4.87,4.87,0,0,0-2.19,3.81v0l-4.88,3.1,10.82.23a13.23,13.23,0,0,1,5.27-1.08l-2.6-2.3-2.89-2.91-2-1.05A1.57,1.57,0,0,0,209.71,375.66Z" transform="translate(-181.67 -349.18)"/><path class="cls-43" d="M230.61,373a13.17,13.17,0,0,1,4-.62L232,370l-.76-.77-4.77-2.55a1.55,1.55,0,0,0-1.57.16,4.83,4.83,0,0,0-2.2,3.8,2.11,2.11,0,0,0,.15.8,11.87,11.87,0,0,0-4.14,1.67C222.93,372.28,229,372.86,230.61,373Z" transform="translate(-181.67 -349.18)"/><g class="cls-1"><polygon class="cls-4" points="48.41 0.05 48.79 0 50.48 0.98 50.1 1.03 48.41 0.05"/><polygon class="cls-5" points="50.1 1.03 50.48 0.98 53.35 22.92 52.99 23.18 50.1 1.03"/><polygon class="cls-44" points="50.1 1.03 48.41 0.05 43.38 17.63 52.99 23.18 50.1 1.03"/></g><g class="cls-1"><polygon class="cls-5" points="24.1 16.8 24.48 16.39 37.6 32.27 37.06 32.58 24.1 16.8"/><polygon class="cls-4" points="22.37 15.81 22.75 15.39 24.48 16.39 24.1 16.8 22.37 15.81"/><polygon class="cls-22" points="24.1 16.8 37.06 32.58 27.48 27.06 22.37 15.81 24.1 16.8"/></g><polygon class="cls-45" points="32.85 41 7.55 55.65 9.33 56.68 34.67 42.05 32.85 41"/><polygon class="cls-45" points="72.43 20.25 97.73 5.64 95.81 4.54 81.15 13.03 70.56 19.16 72.43 20.25"/></g></g></g></svg>