<svg id="Layer_1" data-name="Layer 1" xmlns="http://www.w3.org/2000/svg" viewBox="0 0 83.32 84.55"><title>teknisi2</title><path d="M65.64,15.49a5.66,5.66,0,0,1-.13,2.34c-.94,2.23,2.12,4.43,2.12,4.43s3.26-1.48,2.33-4.35c-.06-1.06,0-2.52,0-2.52Z" transform="translate(-15.41 -2.01)" style="fill:#ed8a40"/><path d="M63.91,10.44a.67.67,0,0,0-.9.4,1.35,1.35,0,0,0,.91,1.77C64.53,12.64,63.91,10.44,63.91,10.44Z" transform="translate(-15.41 -2.01)" style="fill:#ffb680"/><path d="M72.51,10.44a.66.66,0,0,1,.83.51,1.39,1.39,0,0,1-1.18,1.63C71.55,12.53,72.51,10.44,72.51,10.44Z" transform="translate(-15.41 -2.01)" style="fill:#ffb680"/><path d="M72.54,11.28c0,2.89-2.14,5.23-4.46,5.23s-4.37-2.34-4.37-5.23S65.76,6,68.08,6a4.71,4.71,0,0,1,4.2,2.73A6.81,6.81,0,0,1,72.54,11.28Z" transform="translate(-15.41 -2.01)" style="fill:#ffb680"/><path d="M60.26,85.55a7,7,0,0,0,2.5-2.62,3.25,3.25,0,0,0,.49-2.23A5.85,5.85,0,0,1,63.39,79l-4,.21s-.51,1.28-1.11,2.66a7.47,7.47,0,0,0-.66,3.07,2.21,2.21,0,0,1,.87-.28C59.07,84.65,59.64,85.77,60.26,85.55Z" transform="translate(-15.41 -2.01)" style="fill:#5b5b5b"/><path d="M61.71,85a8.46,8.46,0,0,0,2.1-3.44,6.32,6.32,0,0,0,0-2.63l-.42,0a5.85,5.85,0,0,0-.14,1.71,3.25,3.25,0,0,1-.49,2.23,7,7,0,0,1-2.5,2.62c-.62.22-1.19-.9-1.72-.9a2.21,2.21,0,0,0-.87.28,1.11,1.11,0,0,0,.19.62C58.61,86.48,60.49,86.41,61.71,85Z" transform="translate(-15.41 -2.01)" style="fill:#3c3c3c"/><path d="M60,80.14s-.45,1.2-.78,1.85-.37,1.07,0,1.24,1-.13,1.31-1a6.81,6.81,0,0,0,.31-2.14Z" transform="translate(-15.41 -2.01)" style="fill:#fff"/><path d="M78.39,85.55a7,7,0,0,1-2.5-2.62,3.32,3.32,0,0,1-.5-2.23A5.52,5.52,0,0,0,75.26,79l3.95.21s.51,1.28,1.11,2.66A7.47,7.47,0,0,1,81,84.93a2.21,2.21,0,0,0-.87-.28C79.58,84.65,79,85.77,78.39,85.55Z" transform="translate(-15.41 -2.01)" style="fill:#5b5b5b"/><path d="M76.93,85a8.53,8.53,0,0,1-2.09-3.44,6.32,6.32,0,0,1,0-2.63l.42,0a5.52,5.52,0,0,1,.13,1.71,3.32,3.32,0,0,0,.5,2.23,7,7,0,0,0,2.5,2.62c.61.22,1.19-.9,1.72-.9a2.21,2.21,0,0,1,.87.28,1.11,1.11,0,0,1-.19.62C80,86.48,78.16,86.41,76.93,85Z" transform="translate(-15.41 -2.01)" style="fill:#3c3c3c"/><path d="M78.68,80.14s.45,1.2.78,1.85.37,1.07,0,1.24-1-.13-1.32-1a7.14,7.14,0,0,1-.31-2.14Z" transform="translate(-15.41 -2.01)" style="fill:#fff"/><path d="M56.69,41.55a4.38,4.38,0,0,0,.77,2.36,7.51,7.51,0,0,1,1.11,1.34s-.57.22-1.11.39-.47,1,.58.78a6.13,6.13,0,0,0,2-.78s1-5,.62-5.08a13.27,13.27,0,0,1-2-1.5Z" transform="translate(-15.41 -2.01)" style="fill:#ffb680"/><path d="M78.78,59.11c-.61-3.36-4-23.26-4-23.26L72.09,23.71h-9L60.42,35.62S59.4,48,58.74,54c-.61,5.45-1.28,26.34-1.28,26.34l7.43-.16s.32-18.55.69-20.75,2.21-12.95,2.21-12.95,2.64,10.09,3,13.12,3.63,20.58,3.63,20.58h5.92S79.39,62.46,78.78,59.11Z" transform="translate(-15.41 -2.01)" style="fill:#1599ea"/><path d="M74,28.77c0-1.39-1.93-4.05-1.43-4.32s3.39,1.78,4.62,2.7,5.38,2.18,6.44,2.39,3.44-2.72,4.5-3.91c.73-.82,2.35-2.46,3.28-3.41l-2.22-2.09s-2.47,2.08-3.29,2.67c-1.19.84-2.83,2.13-2.83,2.13s-6-4.42-6.7-4.73c-1.5-.62-6.29-2.37-6.29-2.37a1.94,1.94,0,0,1-2.15,1.89,2.17,2.17,0,0,1-2.39-1.89s-5.58,1.78-6.76,2.66-4.12,5-5.23,6.82C52.64,28.74,50.65,32,50,33c-.82,1.28,1.42,3.84,2.65,5.25a29.3,29.3,0,0,0,4,3.34l1.53-1.91c-.9-1.38-2.57-4-3.2-5-.89-1.4-1.5-1.53-.62-2.51s5.78-6.39,6.28-7.71.81-.71.66.62,1.79,5.3,1.17,6.71-1,5-.18,5.74a.57.57,0,0,1,.14.13h9.88c.41-1,.85-2.17,1-2.61A31.15,31.15,0,0,0,74,28.77Z" transform="translate(-15.41 -2.01)" style="fill:#1599ea"/><path d="M76,35c-.17-1.66-.94-7.73-.94-7.73s4.65,1.83,5.94,2.51a3.92,3.92,0,0,0,4.77-.28,71.9,71.9,0,0,0,6.32-6.67l-.69-.65c-.93,1-2.55,2.59-3.28,3.41-1.06,1.19-3.44,4.12-4.5,3.91s-5.2-1.47-6.44-2.39-4.11-3-4.62-2.7S74,27.38,74,28.77A31.15,31.15,0,0,1,73.38,35c-.18.44-.62,1.56-1,2.61h2.71A3.15,3.15,0,0,0,76,35Z" transform="translate(-15.41 -2.01)" style="fill:#057fd3"/><path d="M62.51,31.78c.62-1.41-1.32-5.38-1.17-6.71s-.15-1.94-.66-.62-5.4,6.72-6.28,7.71-.27,1.11.62,2.51c.63,1,2.3,3.59,3.2,5l.46-.58-3-6.1,4.43-4.41a32.51,32.51,0,0,1-.19,5.56,6.89,6.89,0,0,0,.38,3.54h2.22a.57.57,0,0,0-.14-.13C61.54,36.82,61.9,33.18,62.51,31.78Z" transform="translate(-15.41 -2.01)" style="fill:#057fd3"/><rect x="51.91" y="21.69" width="1.19" height="14.28" style="fill:#056cd3"/><polygon points="60.03 37.84 44.65 37.84 44.84 35.64 59.65 35.64 60.03 37.84" style="fill:#3c3c3c"/><rect x="51.57" y="37.77" width="7.31" height="8.74" style="fill:#3c3c3c"/><path d="M68.92,41.22a12.14,12.14,0,0,1,.33-3c.41-1.67.91-2.85,1.38-2.65s-.25,1.65-.51,2.92c-.21,1.11-.43,3-.43,3Z" transform="translate(-15.41 -2.01)" style="fill:#ff364a"/><path d="M71.24,42a13.23,13.23,0,0,0,1.62-2.59c.71-1.58,1-2.8.55-2.91s-.83,1.47-1.43,2.64c-.52,1-1.51,2.61-1.51,2.61Z" transform="translate(-15.41 -2.01)" style="fill:#ff364a"/><rect x="52.81" y="37.77" width="4.99" height="7.76" style="fill:#5b5b5b"/><ellipse cx="58.88" cy="36.74" rx="0.33" ry="0.31" style="fill:#fff"/><ellipse cx="45.6" cy="36.74" rx="0.33" ry="0.31" style="fill:#fff"/><path d="M89.16,20.13A12,12,0,0,0,90.57,18a12.12,12.12,0,0,0,.77-3.29c0-.66,1-.6,1,1.09s.21,6.42.21,6.42l-.48.61Z" transform="translate(-15.41 -2.01)" style="fill:#ffb680"/><path d="M73,10c-.08-3.42-.91-6.16-4.82-6.16-3.74,0-4.73,2.74-4.81,6.16Z" transform="translate(-15.41 -2.01)" style="fill:#1599ea"/><rect x="47.49" y="7.35" width="10.48" height="0.92" style="fill:#056cd3"/><path d="M67.08,7.66l-2-2.84a2.21,2.21,0,0,1,.92-1c1-.38,1.44,0,1.44,0Z" transform="translate(-15.41 -2.01)" style="fill:#056cd3"/><path d="M69.28,7.66l2-2.84a2.14,2.14,0,0,0-.92-1c-1-.38-1.44,0-1.44,0Z" transform="translate(-15.41 -2.01)" style="fill:#056cd3"/><path d="M62.91,10.28a17.65,17.65,0,0,0,5.31.84,16.07,16.07,0,0,0,5.16-.84Z" transform="translate(-15.41 -2.01)" style="fill:#1599ea"/><path d="M65.34,18.83a3.45,3.45,0,0,0,2.31.57,6.57,6.57,0,0,0,2.82-.57L67.9,24.15Z" transform="translate(-15.41 -2.01)" style="fill:#fff"/><path d="M65.71,16.51a3.33,3.33,0,0,0-1.52.61,5.26,5.26,0,0,0-.86,1.44l.38,1.12,1.41.4-.75,1.35,3.53,2.72A40.66,40.66,0,0,1,65.71,16.51Z" transform="translate(-15.41 -2.01)" style="fill:#056cd3"/><path d="M69.91,16.51a3.39,3.39,0,0,1,1.53.61,5.47,5.47,0,0,1,.85,1.53l-.38,1-1.41.4.76,1.35L67.9,24.15A45.28,45.28,0,0,0,69.91,16.51Z" transform="translate(-15.41 -2.01)" style="fill:#056cd3"/><ellipse cx="52.52" cy="23" rx="0.28" ry="0.27" style="fill:#fff"/><path d="M68.21,27.82a.27.27,0,0,1-.28.27.28.28,0,0,1-.28-.27.27.27,0,0,1,.28-.26A.26.26,0,0,1,68.21,27.82Z" transform="translate(-15.41 -2.01)" style="fill:#fff"/><ellipse cx="52.52" cy="28.61" rx="0.28" ry="0.27" style="fill:#fff"/><path d="M68.21,33.43a.27.27,0,0,1-.28.27.27.27,0,1,1,0-.53A.27.27,0,0,1,68.21,33.43Z" transform="translate(-15.41 -2.01)" style="fill:#fff"/><ellipse cx="52.52" cy="34.23" rx="0.28" ry="0.27" style="fill:#fff"/><path d="M87.05,86.57h0a1.16,1.16,0,0,1-1.18-1.12V84.12A1.16,1.16,0,0,1,87.05,83h0a1.15,1.15,0,0,1,1.17,1.12v1.33A1.15,1.15,0,0,1,87.05,86.57Z" transform="translate(-15.41 -2.01)" style="fill:#ff364a"/><rect x="76.61" y="80.99" width="2.35" height="3.56" rx="1.18" style="fill:#ff364a"/><polygon points="78.22 39.48 72.11 44.43 70.96 43.15 77.06 38.2 78.22 39.48" style="fill:#ff364a"/><polygon points="78.22 48.16 72.11 53.11 70.96 51.83 77.06 46.88 78.22 48.16" style="fill:#ff364a"/><polygon points="78.22 56.5 72.11 61.45 70.96 60.16 77.06 55.22 78.22 56.5" style="fill:#ff364a"/><polygon points="78.22 65.1 72.11 70.05 70.96 68.77 77.06 63.82 78.22 65.1" style="fill:#ff364a"/><polygon points="83.32 25.97 72.24 37.38 70.95 36.24 82.02 24.84 83.32 25.97" style="fill:#7c7c7c"/><rect x="76.61" y="5.23" width="2.35" height="77.2" style="fill:#adadad"/><rect x="70.46" y="29.52" width="2.35" height="52.91" style="fill:#adadad"/><polygon points="78.72 24.36 72.33 31.11 70.46 29.51 77.28 22.3 78.72 24.36" style="fill:#adadad"/><path d="M87.61,32a.47.47,0,0,1-.49.46.46.46,0,1,1,0-.92A.47.47,0,0,1,87.61,32Z" transform="translate(-15.41 -2.01)" style="fill:#fff"/><path d="M93.85,26a.65.65,0,1,1-.65-.62A.64.64,0,0,1,93.85,26Z" transform="translate(-15.41 -2.01)" style="fill:#fff"/><path d="M94.53,14c-.37.28-1.41,1.05-1.19,1.47S94,15.55,95,15,95.16,13.48,94.53,14Z" transform="translate(-15.41 -2.01)" style="fill:#ffb680"/><path d="M94.76,15c-.37.28-1.41,1.06-1.19,1.47s.67.13,1.63-.47S95.39,14.53,94.76,15Z" transform="translate(-15.41 -2.01)" style="fill:#ffb680"/><path d="M94.93,16.15c-.38.28-1.41,1.05-1.2,1.47s.67.12,1.64-.47S95.55,15.67,94.93,16.15Z" transform="translate(-15.41 -2.01)" style="fill:#ffb680"/><path d="M94.93,17.29c-.38.28-1.41,1.05-1.2,1.47s.67.13,1.64-.47S95.55,16.82,94.93,17.29Z" transform="translate(-15.41 -2.01)" style="fill:#ffb680"/><path d="M27.79,13.5a9.56,9.56,0,0,1-.13,2.37c-.14.52,2.47,2.81,2.47,2.81s1.76-1.54,1.91-2.81c-.06-1.07-.12-2.37-.12-2.37Z" transform="translate(-15.41 -2.01)" style="fill:#ed8a40"/><path d="M26.27,8.45s-.53-.28-.87.41a1.4,1.4,0,0,0,.88,1.8C26.87,10.69,26.27,8.45,26.27,8.45Z" transform="translate(-15.41 -2.01)" style="fill:#ffb680"/><path d="M34.27,8.63s.56-.2.8.53-.54,1.71-1.13,1.65S34.27,8.63,34.27,8.63Z" transform="translate(-15.41 -2.01)" style="fill:#ffb680"/><path d="M34.19,9.22c0,2.94-1.82,5.32-4,5.32s-4.05-2.38-4.05-5.32S27.9,3.9,30.14,3.9,34.19,6.28,34.19,9.22Z" transform="translate(-15.41 -2.01)" style="fill:#ffb680"/><path d="M25.88,8.45a2.93,2.93,0,0,0,.43.18,2.79,2.79,0,0,0,2.2-1A7.87,7.87,0,0,0,29.46,6a9.82,9.82,0,0,0,1.81,1.88,9.57,9.57,0,0,0,2.91,1l.2-.23a2.57,2.57,0,0,0-1.74-2.07,8.33,8.33,0,0,0-3.76-.82C28.49,5.86,26.22,7.18,25.88,8.45Z" transform="translate(-15.41 -2.01)" style="fill:#3c3c3c"/><path d="M25.78,7.57l4.46-1.13,4.47,1.31S35,2,30.24,2,25.78,7.57,25.78,7.57Z" transform="translate(-15.41 -2.01)" style="fill:#1599ea"/><path d="M25.78,7.57A6,6,0,0,1,30.24,5a5.32,5.32,0,0,1,4.47,2.71,8.1,8.1,0,0,1-2-.53c-.87-.39-3.26-1-4.76-.15S25.78,7.57,25.78,7.57Z" transform="translate(-15.41 -2.01)" style="fill:#48c2ff"/><path d="M25.88,8.45A9.61,9.61,0,0,1,30.24,7a5.75,5.75,0,0,1,4.14,1.64l.33-.88a7,7,0,0,0-4.47-1.62,6.61,6.61,0,0,0-4.46,1.44Z" transform="translate(-15.41 -2.01)" style="fill:#056cd3"/><path d="M46.52,54.54s-.69-8.11-3.19-8.11a2.51,2.51,0,0,0,0,.9s1.63.39,2.26,6.17C46,57.48,46.52,54.54,46.52,54.54Z" transform="translate(-15.41 -2.01)" style="fill:#30302e"/><path d="M38.09,27.87a23.18,23.18,0,0,1,1.67,5.91c.2,2.11,1.09,8,.73,10-.25,1.38-.94,3.09-.67,3.89.08.24.07-.47.45-.29.15.08.23.73.5.86,1,.5,2.22.8,2.93-.86.79-1.83-.83-2.73-.47-4.13a93.88,93.88,0,0,0,1-10.21,34.65,34.65,0,0,0-1.33-6.61Z" transform="translate(-15.41 -2.01)" style="fill:#ffb680"/><path d="M34.5,35c-.22-.39-.78-.48-2-.52s-.13-1,.86-1.78a5.3,5.3,0,0,0,2-4c.1-1,1.06-3.94,1.09-4.75,0-1.2,1.17,1.13,1.42,1.74s.77,2,1.11,2.83l4.24-1s-1.29-4.06-1.83-5.39c-.81-2-1.68-2.73-3.72-3.84C36.33,17.58,32,15.87,32,15.87A2.13,2.13,0,0,1,29.86,17a2.6,2.6,0,0,1-2.2-1.14S22.6,18,21,18.68a7.18,7.18,0,0,0-2.63,3.74c-.71,2-1.63,5.39-1.63,5.39l4.55-.28.91-2L23,37.36H34.44A9.89,9.89,0,0,0,34.5,35Z" transform="translate(-15.41 -2.01)" style="fill:#1599ea"/><path d="M37,25.06l1.42,3.65,1-.25c-.33-.86-.88-2-1.17-2.72s-.81-1.59-1.24-2.57S36,22,35.91,23c-.2,1.62-.38,4.29-.54,5.77a5.3,5.3,0,0,1-2,4c-1,.74-2,1.74-.86,1.78s1.73.13,2,.52a9.89,9.89,0,0,1-.06,2.32h2Z" transform="translate(-15.41 -2.01)" style="fill:#057fd3"/><path d="M23.5,84.63A7,7,0,0,0,25.91,82a3.5,3.5,0,0,0,.48-2.26A6,6,0,0,1,26.52,78l-3.81.21s-.49,1.3-1.07,2.7A8.21,8.21,0,0,0,21,84a2,2,0,0,1,.84-.29C22.35,83.72,22.91,84.85,23.5,84.63Z" transform="translate(-15.41 -2.01)" style="fill:#1599ea"/><path d="M24.9,84.11a8.56,8.56,0,0,0,2-3.49,6.71,6.71,0,0,0,0-2.67l-.4,0a6,6,0,0,0-.13,1.74A3.5,3.5,0,0,1,25.91,82a7,7,0,0,1-2.41,2.66c-.59.22-1.15-.91-1.66-.91A2,2,0,0,0,21,84a1.2,1.2,0,0,0,.18.62C21.91,85.58,23.72,85.5,24.9,84.11Z" transform="translate(-15.41 -2.01)" style="fill:#056cd3"/><path d="M23.22,79.14s-.43,1.22-.75,1.88-.36,1.08,0,1.26,1-.14,1.27-1A7.49,7.49,0,0,0,24,79.14Z" transform="translate(-15.41 -2.01)" style="fill:#fff"/><path d="M40.07,84.63A7,7,0,0,1,37.66,82a3.49,3.49,0,0,1-.47-2.26A6.42,6.42,0,0,0,37.06,78l3.81.21s.49,1.3,1.06,2.7A7.84,7.84,0,0,1,42.57,84a2,2,0,0,0-.83-.29C41.22,83.72,40.67,84.85,40.07,84.63Z" transform="translate(-15.41 -2.01)" style="fill:#1599ea"/><path d="M38.67,84.11a8.67,8.67,0,0,1-2-3.49,6.71,6.71,0,0,1,0-2.67l.41,0a6.42,6.42,0,0,1,.13,1.74A3.49,3.49,0,0,0,37.66,82a7,7,0,0,0,2.41,2.66c.6.22,1.15-.91,1.67-.91a2,2,0,0,1,.83.29,1.2,1.2,0,0,1-.18.62C41.66,85.58,39.85,85.5,38.67,84.11Z" transform="translate(-15.41 -2.01)" style="fill:#056cd3"/><path d="M40.35,79.14s.44,1.22.75,1.88.36,1.08,0,1.26-.94-.14-1.26-1a7.27,7.27,0,0,1-.3-2.18Z" transform="translate(-15.41 -2.01)" style="fill:#fff"/><path d="M23.3,37.36S22.72,44.82,22,51.6c-.59,5.55-1,27.55-1,27.55h6.06s.3-18.84.67-21.07l2.12-13.15s2.55,10.25,2.94,13.32,3.5,20.9,3.5,20.9H42S40.13,61.1,39.54,57.69s-3.11-20.33-3.11-20.33Z" transform="translate(-15.41 -2.01)" style="fill:#3c3c3c"/><rect x="12.44" y="35.34" width="9.82" height="11.18" style="fill:#fcb33d"/><rect x="6.99" y="35.34" width="15.28" height="3.28" style="fill:#fcb33d"/><rect x="6.99" y="35.34" width="15.26" height="0.51" style="fill:#ffce88"/><path d="M16.76,27.58a7.3,7.3,0,0,0-1,6.66,1.61,1.61,0,0,0,2.11.76A8.5,8.5,0,0,0,21,32.76c1.32-1.86,1.13-3.33.58-3.25C20.51,29.66,18.12,26.1,16.76,27.58Z" transform="translate(-15.41 -2.01)" style="fill:#ffb680"/><path d="M18.91,29.35a3.38,3.38,0,0,1-.64.11,4.54,4.54,0,0,1,.32,1.17c.07.56.12,1.53.12,1.53s3.23-2,3.29-2.7-1.69-1.16-1.69-1.16Z" transform="translate(-15.41 -2.01)" style="fill:#ed8a40"/><path d="M24.44,16.16a.3.3,0,0,0-.59,0c-.15,2.59-.45,5.11-.84,7.59A24.32,24.32,0,0,0,22.22,18c-.21-.79-.8-.52-.7.08a39.42,39.42,0,0,1,.5,7.25,60.83,60.83,0,0,0-1.33-8.12.25.25,0,0,0-.48.07c.19,6.1,1.22,12,.63,18-.12,1.24-.37,3.45-.51,4.23s.55,1.24,1,.17C21.87,38.24,25,22.35,24.44,16.16Z" transform="translate(-15.41 -2.01)" style="fill:#3c3c3c"/><path d="M19.22,18c-.12-.58-.75-.35-.61.29a56.83,56.83,0,0,1,.6,15,61.18,61.18,0,0,1-1.06,6.61c-.21.84.63,1,.85.2A51.53,51.53,0,0,0,19.22,18Z" transform="translate(-15.41 -2.01)" style="fill:#3c3c3c"/><polygon points="15.09 23.33 13.78 23.33 13.78 15.68 14.45 15 15.09 15.68 15.09 23.33" style="fill:#48c2ff"/><polygon points="11.91 13.1 10.67 14.54 13.06 16.67 14.45 15 11.91 13.1" style="fill:#056cd3"/><polygon points="16.98 13.1 18.21 14.54 15.82 16.67 14.43 15 16.98 13.1" style="fill:#056cd3"/><path d="M16.76,27.58S19.4,25,20.35,24.74a3.16,3.16,0,0,1,2.64.55,4.6,4.6,0,0,1,1,1.77,1.22,1.22,0,0,1-.51,1.65,9.16,9.16,0,0,1-3.39.64,14.6,14.6,0,0,0-2.33.46Z" transform="translate(-15.41 -2.01)" style="fill:#ffb680"/><path d="M30.21,18.89a.37.37,0,1,1-.36-.37A.37.37,0,0,1,30.21,18.89Z" transform="translate(-15.41 -2.01)" style="fill:#056cd3"/><path d="M30.21,20.91a.37.37,0,1,1-.73,0,.37.37,0,1,1,.73,0Z" transform="translate(-15.41 -2.01)" style="fill:#056cd3"/><path d="M30.21,23.17a.37.37,0,1,1-.73,0,.37.37,0,1,1,.73,0Z" transform="translate(-15.41 -2.01)" style="fill:#056cd3"/><rect x="6.99" y="37.71" width="5.46" height="0.91" style="fill:#e2901a"/><path d="M33.46,41.93a13.38,13.38,0,0,1,.32-3c.4-1.7.88-2.89,1.33-2.7s-.24,1.68-.48,3c-.21,1.12-.42,3-.42,3Z" transform="translate(-15.41 -2.01)" style="fill:#3c3c3c"/><path d="M35.71,42.67a13.25,13.25,0,0,0,1.55-2.62c.69-1.6,1-2.85.53-3s-.8,1.49-1.38,2.68c-.5,1-1.45,2.66-1.45,2.66Z" transform="translate(-15.41 -2.01)" style="fill:#3c3c3c"/><path d="M32.78,41.93a13.38,13.38,0,0,0-.32-3c-.4-1.7-.88-2.89-1.33-2.7s.24,1.68.49,3c.21,1.12.41,3,.41,3Z" transform="translate(-15.41 -2.01)" style="fill:#ff364a"/><path d="M30.54,42.67A13,13,0,0,1,29,40.05c-.69-1.6-1-2.85-.53-3s.8,1.49,1.38,2.68c.5,1,1.45,2.66,1.45,2.66Z" transform="translate(-15.41 -2.01)" style="fill:#ff364a"/><rect x="13.78" y="39.85" width="7.32" height="5.48" style="fill:#e2901a"/><path d="M37.68,54.19s.55-7.76,3-7.76a2.78,2.78,0,0,1,0,.9s-1.64.39-2.27,6.17C38,57.48,37.68,54.19,37.68,54.19Z" transform="translate(-15.41 -2.01)" style="fill:#30302e"/><path d="M45.48,53h-7s-2.42,3.09-2.42,5.71v6.69H47.9V58.68C47.9,56.06,45.48,53,45.48,53Z" transform="translate(-15.41 -2.01)" style="fill:#ff364a"/><path d="M28.86,47.89a.32.32,0,1,1-.32-.31A.32.32,0,0,1,28.86,47.89Z" transform="translate(-15.41 -2.01)" style="fill:#ffce88"/><path d="M23.52,38.86a.32.32,0,0,1-.32.32.32.32,0,0,1-.32-.32.32.32,0,0,1,.32-.32A.33.33,0,0,1,23.52,38.86Z" transform="translate(-15.41 -2.01)" style="fill:#ffce88"/><circle cx="11.81" cy="36.85" r="0.32" style="fill:#ffce88"/><circle cx="21.62" cy="45.88" r="0.32" style="fill:#ffce88"/><path d="M43.73,53H40.26a6.59,6.59,0,0,0,.28,3.8A22,22,0,0,0,41.92,60a19.84,19.84,0,0,0,1.53-3.2A6.59,6.59,0,0,0,43.73,53Z" transform="translate(-15.41 -2.01)" style="fill:#ff6e83"/><path d="M38.51,53a20.34,20.34,0,0,0,1,4.72c.74,1.74,1.6,3.44,1.6,3.44a6.53,6.53,0,0,1-2.25-2.88A17.36,17.36,0,0,1,37.82,54Z" transform="translate(-15.41 -2.01)" style="fill:#fff"/><path d="M45.52,53a20.11,20.11,0,0,1-1,4.72c-.74,1.74-1.6,3.44-1.6,3.44a6.53,6.53,0,0,0,2.25-2.88A17.07,17.07,0,0,0,46.21,54Z" transform="translate(-15.41 -2.01)" style="fill:#fff"/><rect x="20.68" y="63.35" width="11.8" height="1.02" style="fill:#30302e"/><path d="M39.47,60.26A3,3,0,0,0,39,61.8c0,.84,1,.78,1,0A3.21,3.21,0,0,0,39.47,60.26Z" transform="translate(-15.41 -2.01)" style="fill:#fff"/><path d="M44.73,60.26a3,3,0,0,0-.47,1.54c0,.84,1,.78,1,0A3.21,3.21,0,0,0,44.73,60.26Z" transform="translate(-15.41 -2.01)" style="fill:#fff"/></svg>