<svg id="Layer_1" data-name="Layer 1" xmlns="http://www.w3.org/2000/svg" viewBox="0 0 68.64 62.21"><title>tv2</title><path d="M69.26,28.1l13.53,7.72,4.72,2.71c.71.4.72,1,0,1.39l-11.39,6.7a.89.89,0,0,1-.69.15.72.72,0,0,0-.79.24c.65.37,1.26.75,1.89,1.08a.88.88,0,0,1,.46.77,1.94,1.94,0,0,1-1.38,2.34,17.74,17.74,0,0,0-2.12,1.2,7.12,7.12,0,0,1-2.17.58c-2.57.54-5.14,1-7.71,1.58-.43.09-.41-.26-.42-.49,0-1.53-.08-3.06,0-4.58.11-.39.47-.49.76-.66,2.28-1.32,4.55-2.66,6.82-4-.59.14-1.2,0-1.8.15a1.17,1.17,0,0,1-.81-.23c-2.65-1.53-5.31-3-7.94-4.6a.87.87,0,0,0-1.06,0c-.71.43-1.43.87-2.17,1.26-.29.15-.62.38-.9,0,.69-.48,1.48-.82,2.18-1.29.21-.14.51-.19.56-.5a18.81,18.81,0,0,0-2.21-1.3,4.79,4.79,0,0,1-.71-.46c-.19-.17-.34-.36-.2-.64.32-.2.54,0,.77.18,3.51,2,7,4,10.51,6.07l.3.16a2.74,2.74,0,0,0,.9.46.42.42,0,0,0,.27,0c.56-.25.57-.74.57-1.24V29.14A1.63,1.63,0,0,1,69.26,28.1Z" transform="translate(-19.41 -0.91)" style="fill:#aa8990"/><path d="M19.41,47c1.23-.86,2.58-1.53,3.87-2.29,1.66-1,3.36-1.9,5-2.88a1.23,1.23,0,0,1,1.44,0q5.13,3.06,10.3,6c3.14,1.81,6.28,3.59,9.41,5.4.33.19.73.29.93.65-.06.23-.27.3-.44.4-2.89,1.68-5.79,3.32-8.68,5a1,1,0,0,1-.29.1,1.2,1.2,0,0,1-.8-.23C37.78,57.71,35.37,56.38,33,55c-3.76-2.22-7.56-4.37-11.32-6.57A13.75,13.75,0,0,1,19.41,47Z" transform="translate(-19.41 -0.91)" style="fill:#f8f5ee"/><path d="M56.14,41.33c.28.23.55.09.79,0,.8-.45,1.61-.89,2.37-1.39a.59.59,0,0,1,.75,0c2.62,1.53,5.28,3,7.87,4.58.88.55,1.72.24,2.58.26a2.55,2.55,0,0,1,.78,0L69.21,46l-5.82,3.32c-.29.14-.51,0-.74-.17-3.48-2-7-4-10.43-6s-6.88-4-10.28-5.95c-3.2-1.84-6.4-3.67-9.59-5.53-.88-.52-1.77-1-2.64-1.54a1.18,1.18,0,0,1-.51-.43c1.2-.72,2.39-1.45,3.6-2.16.93-.55,1.87-1.07,2.81-1.6a.42.42,0,0,0,.23-.33c.45-.07.73.27,1.09.44l.87.49c.16.1.35.18.52.28,1,.68,2.17,1.24,3.23,1.91l.29.15c.29.16.55.36.84.49a2.67,2.67,0,0,1,.43.25c.33.19.65.41,1,.58.6.33,1.19.7,1.81,1a16.51,16.51,0,0,1,2.14,1.27c.27.19.47.4.28.75s-.53,0-.77-.16c-1.42-.75-.92-.8-2.32,0a6.42,6.42,0,0,0-1.38.87c0,.27.28.34.46.45,3.79,2.15,7.56,4.33,11.35,6.47C55.87,41,56.09,41.08,56.14,41.33Z" transform="translate(-19.41 -0.91)" style="fill:#f8f5ee"/><path d="M29.2,29.7l6.4,3.66q4.32,2.46,8.62,5l7,4c2.75,1.6,5.51,3.21,8.27,4.8,1.31.74,2.58,1.54,4,2.17v4.85c0,.2,0,.37.25.4-.14.16-.27.09-.43,0-3-1.72-6-3.4-9-5.16-3.65-2.14-7.3-4.24-11-6.34-3.37-1.92-6.71-3.9-10.06-5.85-1.18-.69-2.36-1.36-3.55-2a.71.71,0,0,1-.43-.72C29.21,32.89,29.2,31.3,29.2,29.7Z" transform="translate(-19.41 -0.91)" style="fill:#dbd0cc"/><path d="M41,59.21l8.73-5,.66-.39h0c.2.47,0,1,.14,1.45,1.19.75,2.48,1.31,3.7,2l.58.3L52,59.18c-1.2.69-2.43,1.33-3.6,2.06a7.31,7.31,0,0,1-2.79,1c-1.52.24-3,.54-4.55.82-.33.08-.4-.16-.42-.38a25,25,0,0,1,0-3A.56.56,0,0,1,41,59.21Z" transform="translate(-19.41 -0.91)" style="fill:#ae9194"/><path d="M41,59.21a4.09,4.09,0,0,0-.11,1.67v1.69c0,.2,0,.41.25.46-.15.15-.28.07-.43,0l-6.89-4-8-4.6c-1.88-1.08-3.76-2.18-5.65-3.25a1.24,1.24,0,0,1-.73-1.36c.07-1,0-1.92,0-2.88a19.4,19.4,0,0,1,2.82,1.56c2.34,1.32,4.66,2.67,7,4Q33.1,54.72,36.89,57l3.48,2A1.06,1.06,0,0,0,41,59.21Z" transform="translate(-19.41 -0.91)" style="fill:#dbd0cc"/><path d="M35.71,15.25V1.92a.88.88,0,0,1,.72-1,.84.84,0,0,1,.68.18l15.7,9.07,15.82,9.12c.17.1.33.23.5.34,0,.48-.43.46-.72.6a2.33,2.33,0,0,1-1-.42c-3.14-1.88-6.35-3.65-9.51-5.49-2.06-1.2-4.13-2.37-6.17-3.6-.35-.21-.73-.36-1.08-.57C47.84,8.5,45,6.89,42.18,5.26l-5.4-3.13c-.22-.12-.46-.42-.69-.28s-.09.49-.09.74V14.41C36,14.7,36.12,15.07,35.71,15.25Z" transform="translate(-19.41 -0.91)" style="fill:#4e4e50"/><path d="M35.71,15.25c.17-.21.1-.47.1-.71V1.42c.91.5,1.75,1,2.57,1.42l7.8,4.51,4.35,2.54a1,1,0,0,1,.21.21c.25.29.15.45-.19.52a1.77,1.77,0,0,1-.46,0,4.41,4.41,0,0,1-1.53-.73C45,7.82,41.43,5.82,37.89,3.71A2.25,2.25,0,0,0,37,3.34c-.16,0-.16.16-.16.29a73.79,73.79,0,0,0,0,7.87c0,.71-.1,1.41-.1,2.13V24.75c0,.17-.16.38.12.52.47.25.33.57.07.89l-1.08-.56c-.15-.1-.15-.26-.15-.43Z" transform="translate(-19.41 -0.91)" style="fill:#393536"/><path d="M68.34,20.15c.2-.24.62-.18.75-.52.23.17.12.42.12.62V43c0,.91,0,1-1,1.24a1.33,1.33,0,0,1-.11-.71,40.05,40.05,0,0,0,0-4.1c-.15-2.14.12-4.28.07-6.42-.07-2.32,0-4.65,0-7a11.22,11.22,0,0,1,0-1.16V20.79C68.22,20.58,68.18,20.34,68.34,20.15Z" transform="translate(-19.41 -0.91)" style="fill:#312a2c"/><path d="M50.51,55.28c-.25-.46,0-1-.14-1.45C50.66,54.29,50.44,54.82,50.51,55.28Z" transform="translate(-19.41 -0.91)" style="fill:#f8f5ee"/><path d="M68.34,24.93V26c-.23.29-.59.48-.2,1A.73.73,0,0,1,68,28l-.11.07c-.2.09-.23.27-.24.46a1.29,1.29,0,0,0,0,.48c.41,1,.13,2.1.34,3.13a.91.91,0,0,1,0,.61,7.88,7.88,0,0,0-.36,2.64c-.15,1.26.41,2.46.28,3.73a2,2,0,0,1,0,.6,4.42,4.42,0,0,0,0,3,.26.26,0,0,1-.12.36h-.07a4.16,4.16,0,0,0-.73.44l-6.54-3.8-4.28-2.47a.56.56,0,0,0-.39-.13.21.21,0,0,1,0-.11h0a3.74,3.74,0,0,1,.57-.17c-1.67-.6-2.87-1.8-4.37-2.46-1.08-.48-2.08-1.1-3.15-1.58a.17.17,0,0,0-.17,0c-.08.1-.08.23-.14.35a.2.2,0,0,1-.12.08h-.07c.09-.79-.66-.81-1.07-1.1s-1-.51-1.39-.83a2.12,2.12,0,0,0-1.83-1,5.54,5.54,0,0,1-1-.58c0-.11.33-.09.14-.29s-.35,0-.52.07a3.13,3.13,0,0,1-.87-.5v-.3c-.13,0-.13.18-.26.17-1.15-.59-2.26-1.24-3.35-1.94,0-.12.22-.17.1-.29s-.37-.06-.55,0a3.14,3.14,0,0,1-.85-.49c0-.33.31-.75-.34-.84-.21,0-.09-.26,0-.41a.29.29,0,0,1,.33-.06A.26.26,0,0,1,37,25a5.29,5.29,0,0,0,1.33.8c2.86,1.58,5.64,3.27,8.47,4.89s5.94,3.41,8.89,5.14l5.2,3c1.93,1.13,3.87,2.26,5.82,3.37.13.07.34.37.42-.06V26.37c0-1,0-2,.1-3A14.49,14.49,0,0,0,67.1,21a.88.88,0,0,0-.57-.75c-1.92-1.11-3.85-2.21-5.77-3.33s-4-2.27-5.92-3.44c-1.4-.84-2.87-1.55-4.23-2.46-.23-.14-.56-.21-.57-.57.23-.15.81.38.74-.37a34.83,34.83,0,0,1,3.92,2.17c2.35,1.33,4.68,2.69,7,4l5.64,3.39c.33.2.68.35,1,.53v.66c-.19.19-.42,0-.62,0-.12.39.28.58.28.92A6.53,6.53,0,0,1,68,23,2.25,2.25,0,0,0,68.34,24.93Z" transform="translate(-19.41 -0.91)" style="fill:#3a3637"/><path d="M43.68,33.87c.79-.59,1.7-1,2.53-1.52.23-.15.38,0,.55.09a11.3,11.3,0,0,0,1.54.81h0c-.06,1,.61,1.34,1.34,1.74,1.68.92,3.33,1.89,5,2.84a1.06,1.06,0,0,0,.57.2,10.13,10.13,0,0,1,1.46.07A19.7,19.7,0,0,1,59,39.5a14.38,14.38,0,0,1-1.6,1.07,1.84,1.84,0,0,1-2.41,0c-2.2-1.35-4.47-2.59-6.71-3.87l-3.81-2.18A1.73,1.73,0,0,1,43.68,33.87Z" transform="translate(-19.41 -0.91)" style="fill:#4e4e50"/><path d="M67,43.57c.08-.48.5-.55,1-.7-.7-.21-.4-.63-.46-1a8.7,8.7,0,0,1,.14-2.1,4.68,4.68,0,0,0-.21-3,.8.8,0,0,1,0-.53c.08-.74.13-1.49.14-2.24a1.87,1.87,0,0,1,.19-.87,2,2,0,0,0,.09-1.41,2.68,2.68,0,0,1,0-1.26.63.63,0,0,0-.08-.52,3.17,3.17,0,0,1-.25-1.55c0-.26,0-.55.4-.5.22,0,.31-.78.11-1-.5-.5-.5-.5.12-.8l.22-.11c0,3.44.11,6.88,0,10.31-.09,2.09.17,4.16,0,6.24a13.59,13.59,0,0,1-.13,1.69l-.14-.07c-.16-.39-.4-.65-.87-.52Z" transform="translate(-19.41 -0.91)" style="fill:#393536"/><path d="M56.74,38.16c-.51.25-1.06.06-1.58.11a.42.42,0,0,1-.26-.39c0-.51-.29-.73-.68-1-1.81-1.06-3.66-2-5.44-3.16-.18-.11-.5-.15-.36-.51v-.39c.48,0,.8.36,1.18.57,2,1.1,3.9,2.24,5.84,3.37.13.09.28.16.33.34v.14C55.77,37.82,56.41,37.82,56.74,38.16Z" transform="translate(-19.41 -0.91)" style="fill:#322c2e"/><path d="M43.68,33.87l9.66,5.59c.84.48,1.69,1,2.52,1.45a.65.65,0,0,0,.73,0c.8-.48,1.62-.93,2.43-1.39a.49.49,0,0,1-.07.33,27.84,27.84,0,0,1-2.61,1.48.61.61,0,0,1-.19,0L44.06,34.42C43.87,34.31,43.48,34.28,43.68,33.87Z" transform="translate(-19.41 -0.91)" style="fill:#3d3a3a"/><path d="M67.25,43.68c.56-.39.8-.25.87.52A3.35,3.35,0,0,1,67.25,43.68Z" transform="translate(-19.41 -0.91)" style="fill:#3a3637"/><path d="M35,52.48c-.37-.2-.74-.39-1.11-.6s-.53-.2-.49-.59.36-.43.63-.53a1,1,0,0,0,.68.51c-.16-.29-.51-.29-.69-.5.08-.16.25-.2.38-.29s.52.37.34-.2a10.4,10.4,0,0,1,1.65-.87.65.65,0,0,0,.36.22c-.11-.09-.27-.1-.37-.21A1.21,1.21,0,0,1,37,49a.7.7,0,0,0,.19.15l-.19-.1a1.48,1.48,0,0,1,.61-.37c.09.07.15.17.27.21-.08-.09-.2-.12-.27-.21a.45.45,0,0,1,.62-.14h0l.06.06c.39.3.91.42,1.25.81a1.33,1.33,0,0,1-.65.61l-2.36,1.36A5.53,5.53,0,0,0,35,52.48Z" transform="translate(-19.41 -0.91)" style="fill:#6e6c70"/><path d="M35,52.48a1.19,1.19,0,0,1,.69-.79c1.29-.73,2.55-1.5,3.82-2.26.06.12,0,.28.13.37.06.3-.19.39-.37.5-1.18.71-2.37,1.42-3.58,2.07a.78.78,0,0,1-.69.13Z" transform="translate(-19.41 -0.91)" style="fill:#4e4147"/><path d="M34.94,52.49a5.83,5.83,0,0,0,1.77-.91,17.34,17.34,0,0,0,2.88-1.76.4.4,0,0,1,.46.21c.06.2-.18.24-.32.32l-3.65,2.1A1.13,1.13,0,0,1,34.94,52.49Z" transform="translate(-19.41 -0.91)" style="fill:#b69e9f"/><path d="M34.7,50.28c.08.16.35.14.36.36a.21.21,0,0,1-.19.2c-.26,0-.38-.18-.51-.36Z" transform="translate(-19.41 -0.91)" style="fill:#ddce8a"/><path d="M44,30.28c.14-.74.56.09.8-.14.19.39.59.53.94.73s.17.28.08.45Z" transform="translate(-19.41 -0.91)" style="fill:#393536"/><path d="M42.66,29.48c.26-.48.26-.48.93.1-.15.21-.37.09-.55.12A.7.7,0,0,1,42.66,29.48Z" transform="translate(-19.41 -0.91)" style="fill:#393536"/><path d="M37.77,26.66c0-.19.06-.39.31-.34s.39.13.44.3-.2.2-.31.29A.85.85,0,0,1,37.77,26.66Z" transform="translate(-19.41 -0.91)" style="fill:#393536"/><path d="M41.56,28.82c.13-.11,0-.38.27-.4a.18.18,0,0,1,.15.08c.08.21,0,.33-.19.44Z" transform="translate(-19.41 -0.91)" style="fill:#393536"/><path d="M51.34,44.26a17.85,17.85,0,0,0,.11,2.19c0,.45-.1.58-.57.3-2.48-1.47-5-2.93-7.54-4.36-.46-.26-.89-.56-1.35-.82s0-.23.09-.34a.45.45,0,0,1,.43-.17,17.88,17.88,0,0,0,1.94-.13,3.72,3.72,0,0,1,2.55.6c1.25.8,2.56,1.52,3.85,2.25C51.05,43.9,51.28,44,51.34,44.26Z" transform="translate(-19.41 -0.91)" style="fill:#f8f5ee"/><path d="M51.34,44.26c-1.52-.87-3.06-1.71-4.55-2.63a3.26,3.26,0,0,0-2.19-.53c-.85.08-1.71.09-2.56.13h-.37c-.15-.2,0-.31.14-.39.9-.5,1.77-1,2.68-1.53a.49.49,0,0,1,.24,0c1.26.6,2.44,1.37,3.65,2,.78.43,1.55.89,2.33,1.33a1.22,1.22,0,0,1,.64,1.6Z" transform="translate(-19.41 -0.91)" style="fill:#a58789"/><path d="M44.75,39.24a28.25,28.25,0,0,1-2.58,1.58c-.18.11-.45.12-.48.41-.23,0-.25-.15-.25-.32V37.66c0-.25.07-.36.31-.22C42.74,38.06,43.8,38.56,44.75,39.24Z" transform="translate(-19.41 -0.91)" style="fill:#af9294"/><path d="M62,49.3a10.39,10.39,0,0,1-2.36-1.23c-2.22-1.23-4.4-2.53-6.59-3.8a9.6,9.6,0,0,1-1-.66,2.61,2.61,0,0,1,1.27.56c2.79,1.59,5.56,3.21,8.33,4.82.14.08.3.14.36.31Z" transform="translate(-19.41 -0.91)" style="fill:#f4ece7"/><path d="M40.34,37.07l-5.67-3.25a16.52,16.52,0,0,1-1.47-1c.56,0,.92.41,1.35.65,1.89,1.06,3.77,2.16,5.65,3.24.12.07.26.13.26.31a.06.06,0,0,1-.08,0Z" transform="translate(-19.41 -0.91)" style="fill:#f3ece7"/><path d="M40.34,37.07h.1c.33,0,.27.3.27.51V40.7c0,.14.14.42-.15.43s-.22-.31-.22-.46Z" transform="translate(-19.41 -0.91)" style="fill:#aa9091"/><path d="M62,49.3c.21.07.25.24.25.44v3.35c0,.11,0,.27-.11.3a.21.21,0,0,1-.23-.16h0a24,24,0,0,1,.1-3.88Z" transform="translate(-19.41 -0.91)" style="fill:#a7898b"/><path d="M40,60.45c0,1.26,0,1.28-1.09.66-2.86-1.65-5.71-3.34-8.57-5s-5.67-3.29-8.5-4.88c-.52-.3-1-.63-1.55-.95.61-.35,1.27-.11,1.91-.17a2.29,2.29,0,0,1,1,.46c5.37,3.1,10.73,6.22,16.12,9.31A1.4,1.4,0,0,1,40,60.45Z" transform="translate(-19.41 -0.91)" style="fill:#f7f4ed"/><path d="M40,60.45,27.42,53.21c-1.7-1-3.39-2-5.08-2.94a8.78,8.78,0,0,0-1.62-.06c-.11,0-.27,0-.33-.08a.29.29,0,0,1,.18-.35c.45-.21.81-.71,1.41-.5l6.78,3.9c3.54,2,7.07,4.12,10.63,6.15A.93.93,0,0,1,40,60.45Z" transform="translate(-19.41 -0.91)" style="fill:#a58789"/><path d="M22,49.28c-.61,0-1,.53-1.68.76.79.23,1.45-.07,2,.22h-2a4.34,4.34,0,0,1-.12-1.68c0-.32.19-.26.37-.16Z" transform="translate(-19.41 -0.91)" style="fill:#bca8a0"/><path d="M50,10.48c1.26.86,2.61,1.57,3.93,2.33,1.9,1.09,3.79,2.2,5.69,3.3l5.9,3.41c.38.22.79.41,1.17.65a1.29,1.29,0,0,1,.6,1,20.23,20.23,0,0,1,0,3.65c-.21,5.84,0,11.7-.09,17.54-.23.19-.41,0-.6-.09-3.44-2-6.85-4-10.27-5.92L44.57,29.47c-2.55-1.48-5.09-3-7.66-4.42v-.12a10.44,10.44,0,0,1,0-2.62c0-.55.08-1.09.08-1.64V4.3c0-.35-.08-.74.2-1a5.21,5.21,0,0,1,1.87,1q4.53,2.55,9,5.18A17.77,17.77,0,0,0,50,10.48Z" transform="translate(-19.41 -0.91)" style="fill:#323643"/><path d="M37.16,3.25V20.39c0,1.4-.21,2.8-.13,4.21a.35.35,0,0,1-.12.33h-.37V5.37c0-.68.32-1.36,0-2a.21.21,0,0,1,.1-.28h0a.36.36,0,0,1,.5.11h0A.12.12,0,0,1,37.16,3.25Z" transform="translate(-19.41 -0.91)" style="fill:#29252c"/><path d="M68.34,24.93c-.8-.41-.63-1.15-.58-1.82s.33-1.32-.23-1.92a.62.62,0,0,1,0-.69c.16-.17.28.14.43.19l.35.07Z" transform="translate(-19.41 -0.91)" style="fill:#393536"/><path d="M36.91,25.05a9.76,9.76,0,0,1,2.32,1.18c2.33,1.31,4.65,2.67,7,4l5.22,3,6.91,4c2,1.14,3.91,2.26,5.86,3.38a15.42,15.42,0,0,0,3.1,1.66c0,.35-.13.38-.4.22l-6.88-4c-1.85-1.07-3.71-2.11-5.55-3.18-2.33-1.34-4.64-2.69-7-4-1.67-1-3.35-1.92-5-2.88L37,25.26C36.91,25.22,36.8,25.17,36.91,25.05Z" transform="translate(-19.41 -0.91)" style="fill:#49494e"/><path d="M48.42,33.25a5.83,5.83,0,0,0,1.51,1c1.61.93,3.24,1.84,4.86,2.75a.5.5,0,0,1,.25.51,1.25,1.25,0,0,0,.12.71l-3.67-2c-.76-.43-1.51-.88-2.27-1.3-.94-.51-1-.59-.87-1.68Z" transform="translate(-19.41 -0.91)" style="fill:#393536"/><path d="M55.77,37.05l-6-3.44a8,8,0,0,1-1.4-.84c.19-.21.34-.31.59,0a2.14,2.14,0,0,0,.68.37c1.19.6,2.43,1.12,3.57,1.8.81.48,1.54,1.09,2.39,1.52.31.15.75.08.88.55C56.28,37.11,56,37,55.77,37.05Z" transform="translate(-19.41 -0.91)" style="fill:#393536"/><path d="M54.77,12.75c.48.37,1.09.44,1.57.77.12.08.31.14.22.3s-.26,0-.38,0A3.54,3.54,0,0,1,54.77,12.75Z" transform="translate(-19.41 -0.91)" style="fill:#393536"/><path d="M58.75,15.24a2.87,2.87,0,0,1,1.14.36.25.25,0,0,1,0,.17c-.06.09-.15.05-.21,0Z" transform="translate(-19.41 -0.91)" style="fill:#393536"/><path d="M63.58,17.87l-.15.06c-.22-.07-.48-.06-.62-.29,0-.07,0-.15.11-.17C63.25,17.41,63.34,17.67,63.58,17.87Z" transform="translate(-19.41 -0.91)" style="fill:#393536"/><path d="M63.92,18.11c.4-.1.55.13.77.44C64.34,18.44,64.06,18.47,63.92,18.11Z" transform="translate(-19.41 -0.91)" style="fill:#393536"/><path d="M65.11,18.88c.22-.08.4-.14.53,0a.13.13,0,0,1,0,.18h0C65.39,19.19,65.24,19.11,65.11,18.88Z" transform="translate(-19.41 -0.91)" style="fill:#393536"/><path d="M36.12,50.66c-.27,0-.63-.06-.64-.42s.33-.36.59-.36.64,0,.65.37S36.39,50.61,36.12,50.66Z" transform="translate(-19.41 -0.91)" style="fill:#dde4ed"/><path d="M34,50.82c.41,0,.67.26,1,.42.15.09.07.21,0,.27-.3.15-.93-.33-.93-.7Z" transform="translate(-19.41 -0.91)" style="fill:#d8dee7"/><path d="M37.34,49.82c.15.07.35.09.36.28s-.15.19-.27.18-.33-.06-.35-.25S37.22,49.87,37.34,49.82Z" transform="translate(-19.41 -0.91)" style="fill:#c5c7cf"/><path d="M35.24,51.06a.18.18,0,0,1,.16-.18h0c.16,0,.34,0,.38.22s-.12.22-.24.23S35.34,51.2,35.24,51.06Z" transform="translate(-19.41 -0.91)" style="fill:#d2676c"/><path d="M36.34,49.42h0a.49.49,0,0,1,.58.18.25.25,0,0,1-.17.21c-.29,0-.45-.1-.46-.4Z" transform="translate(-19.41 -0.91)" style="fill:#d3d6dd"/><path d="M37.52,48.68h.12c.21,0,.41,0,.45.26,0,0-.14.17-.21.17-.25,0-.42-.11-.35-.41Z" transform="translate(-19.41 -0.91)" style="fill:#cfd0d9"/><path d="M38.24,49.75c-.07.1-.17.19-.3.15s-.3-.09-.27-.26a.22.22,0,0,1,.23-.18h0C38.08,49.53,38.21,49.58,38.24,49.75Z" transform="translate(-19.41 -0.91)" style="fill:#d2d6dd"/><path d="M38.58,49.55a.29.29,0,0,1-.31-.23.18.18,0,0,1,.23-.2c.14,0,.3.06.33.22S38.7,49.51,38.58,49.55Z" transform="translate(-19.41 -0.91)" style="fill:#ced2d9"/><path d="M36.91,49.05H37a.43.43,0,0,1,.52.19.19.19,0,0,1-.17.2c-.1,0-.43-.09-.4-.39Z" transform="translate(-19.41 -0.91)" style="fill:#d2d4dc"/></svg>